<svg id="Grupo_982081" data-name="Grupo 982081" xmlns="http://www.w3.org/2000/svg" xmlns:xlink="http://www.w3.org/1999/xlink" width="378.047" height="306.035" viewBox="0 0 378.047 306.035">
  <defs>
    <clipPath id="clip-path">
      <rect id="Rectángulo_37161" data-name="Rectángulo 37161" width="378.047" height="306.035" fill="none"/>
    </clipPath>
    <clipPath id="clip-path-3">
      <rect id="Rectángulo_37158" data-name="Rectángulo 37158" width="48.811" height="48.808" fill="none"/>
    </clipPath>
    <clipPath id="clip-path-4">
      <rect id="Rectángulo_37157" data-name="Rectángulo 37157" width="8.518" height="6.141" fill="none"/>
    </clipPath>
    <clipPath id="clip-path-6">
      <rect id="Rectángulo_37159" data-name="Rectángulo 37159" width="72.811" height="60.058" fill="none"/>
    </clipPath>
  </defs>
  <g id="Grupo_142296" data-name="Grupo 142296" clip-path="url(#clip-path)">
    <g id="Grupo_142295" data-name="Grupo 142295" transform="translate(0 0)">
      <g id="Grupo_142294" data-name="Grupo 142294" clip-path="url(#clip-path)">
        <path id="Trazado_183454" data-name="Trazado 183454" d="M347.188,193c-.351,2.984-.842,5.971-1.439,8.9a110.973,110.973,0,0,1-5.454,19.454c-.785,2.116-1.628,4.232-2.522,6.3-.734,1.573-1.465,3.2-2.253,4.746v.028c-.951,1.873-1.9,3.689-2.93,5.482-1.276,2.279-2.659,4.557-4.126,6.782a127.161,127.161,0,0,1-7.921,10.773v.026a137.227,137.227,0,0,1-16.824,17.176c-.189.163-.351.3-.543.462l-.026.026c-13.623,11.559-25.7,15.468-37.5,15.793h-.026a64.752,64.752,0,0,1-7.6-.245,119.076,119.076,0,0,1-12.753-1.953c-13.269-2.713-27.161-6.947-43.469-7-.785-.026-1.573,0-2.361,0-.134,0-.271.028-.434.028-2.088.054-4.26.163-6.431.38a87.488,87.488,0,0,0-11.5,1.819c-2.387.514-4.857,1.165-7.353,1.925-2.007.6-4.015,1.3-6.131,2.062-.625.245-1.276.462-1.9.734-.134.054-.217.08-.351.134-3.418,1.356-6.756,2.607-10.094,3.8-1.222.46-2.47.922-3.689,1.328-2.824,1.031-5.562,1.956-8.278,2.824-1.382.46-2.739.894-4.095,1.3-15.359,4.883-29.36,8.058-42.032,9.334a108.545,108.545,0,0,1-15.494.543,13.308,13.308,0,0,1-1.491-.109c-1.331-.028-2.658-.137-3.935-.271-.951-.109-1.9-.217-2.85-.354-1.085-.137-2.17-.3-3.229-.517-.6-.108-1.194-.243-1.79-.38-.868-.134-1.736-.351-2.6-.568a54.511,54.511,0,0,1-27.324-16.119C31,279.476,25.192,268.459,21.177,254.133c-10.014-35.274,15.248-53.643,31.068-77.3,1.682-2.553,3.284-5.128,4.694-7.815a57.83,57.83,0,0,0,6-16.687C66.491,133.55,50.7,114.638,48.227,94.8a68.408,68.408,0,0,1,.109-17.447A61.2,61.2,0,0,1,49.478,71.2c4.475-19.7,17.935-39.046,43.006-50.822,5.779-2.715,11.585-5.128,17.393-7.3.788-.328,1.628-.625,2.441-.9l.734-.245a5.944,5.944,0,0,1,.623-.217c1.819-.677,3.692-1.3,5.537-1.871C155.081-1.765,190.952-2.958,223.053,5.48c2.333.568,4.637,1.248,6.945,1.953,1.222.354,2.416.76,3.635,1.168a147.23,147.23,0,0,1,38.531,19.534c2.2,1.493,4.286,3.067,6.376,4.694A148.789,148.789,0,0,1,310.2,67.318q3.337,5.007,6.376,10.011c3.447,5.7,6.648,11.4,9.526,17.067,17.5,34.243,24.771,67.889,21.082,98.6" transform="translate(29.923 0)" fill="#f6f6f6"/>
        <path id="Trazado_183455" data-name="Trazado 183455" d="M.307,84.961c2.54,20.873,20.139,35.9,39.307,33.571S72.265,97.388,69.725,76.515s-20.136-35.9-39.307-33.571S-2.232,64.088.307,84.961" transform="translate(0 67.628)" fill="#d2e2ed"/>
        <path id="Trazado_183456" data-name="Trazado 183456" d="M33.421,29.465c16.1,0,29.2,10.665,29.2,23.774,0,10.89-9.236,20.165-22.04,22.826.566,1.827,3.01,9.293,2.651,9.57-.481.372-2.664-1.382-3.178-1.7,0,0-11.306-7.208-11.549-7.361C14.43,74.618,4.227,64.9,4.227,53.239c0-13.109,13.1-23.774,29.194-23.774" transform="translate(6.694 46.66)" fill="#373f51"/>
        <path id="Trazado_183457" data-name="Trazado 183457" d="M15.237,40.925a3.492,3.492,0,1,1-3.5-3.49,3.494,3.494,0,0,1,3.5,3.49" transform="translate(13.071 59.281)" fill="#fff"/>
        <path id="Trazado_183458" data-name="Trazado 183458" d="M21,40.925a3.492,3.492,0,1,1-3.5-3.49,3.493,3.493,0,0,1,3.5,3.49" transform="translate(22.202 59.281)" fill="#fff"/>
        <path id="Trazado_183459" data-name="Trazado 183459" d="M26.963,40.925a3.492,3.492,0,1,1-3.493-3.49,3.488,3.488,0,0,1,3.493,3.49" transform="translate(31.64 59.281)" fill="#fff"/>
        <path id="Trazado_183460" data-name="Trazado 183460" d="M73.833,40.685c-.028,0-.059,0-.088-.005a.68.68,0,0,1-.586-.76l.052-.4a.679.679,0,1,1,1.346.173l-.052.4a.677.677,0,0,1-.672.592" transform="translate(115.843 61.641)" fill="#334d5c"/>
        <path id="Trazado_183461" data-name="Trazado 183461" d="M72.177,71.715c-.028,0-.059,0-.09-.005a.68.68,0,0,1-.584-.762l.109-.845a.679.679,0,1,1,1.346.173l-.109.847a.681.681,0,0,1-.672.592m.475-3.669a.5.5,0,0,1-.088-.005.679.679,0,0,1-.586-.76l.109-.847a.679.679,0,0,1,1.346.176l-.109.845a.679.679,0,0,1-.672.592m.475-3.666c-.028,0-.059,0-.088-.005a.682.682,0,0,1-.586-.762l.111-.845a.679.679,0,0,1,1.346.173l-.111.847a.679.679,0,0,1-.672.592m.475-3.669a.5.5,0,0,1-.088-.005.681.681,0,0,1-.586-.76l.111-.845a.679.679,0,1,1,1.346.173l-.111.847a.677.677,0,0,1-.672.589m.475-3.666a.516.516,0,0,1-.088-.005.678.678,0,0,1-.586-.76l.109-.845a.678.678,0,0,1,1.346.171l-.109.847a.677.677,0,0,1-.672.592m.475-3.666c-.028,0-.057,0-.088-.005a.68.68,0,0,1-.586-.76l.109-.847a.687.687,0,0,1,.76-.586.678.678,0,0,1,.586.76l-.108.847a.679.679,0,0,1-.672.592m.475-3.669a.5.5,0,0,1-.088-.005.678.678,0,0,1-.586-.76l.109-.847a.679.679,0,0,1,1.346.176l-.109.847a.679.679,0,0,1-.672.589m.475-3.666c-.028,0-.059,0-.088-.005a.68.68,0,0,1-.586-.762l.111-.845a.677.677,0,1,1,1.343.176l-.109.845a.677.677,0,0,1-.672.592m.475-3.666c-.028,0-.059,0-.088-.005a.681.681,0,0,1-.586-.76l.111-.847a.679.679,0,1,1,1.346.176l-.111.845a.677.677,0,0,1-.672.592" transform="translate(113.22 63.616)" fill="#334d5c"/>
        <path id="Trazado_183462" data-name="Trazado 183462" d="M72.015,54.71c-.028,0-.059,0-.088-.005a.68.68,0,0,1-.586-.76l.052-.4a.675.675,0,0,1,.76-.589.682.682,0,0,1,.586.76l-.052.406a.679.679,0,0,1-.672.592" transform="translate(112.964 83.844)" fill="#334d5c"/>
        <path id="Trazado_183463" data-name="Trazado 183463" d="M40.847,67.788S31.963,62.654,21.9,69.366,9.263,82.591,11.829,92.068s12.241,30.794,16.778,42.045c2.679,6.637,12.089,28.176,19.356,44.729,11.107,17.915,34.852,21.5,34.852,21.5L68.678,161.946Z" transform="translate(17.262 104.374)" fill="#bcb3bd"/>
        <path id="Trazado_183464" data-name="Trazado 183464" d="M52.905,89.526,41.54,72.1a12.3,12.3,0,0,0-16.512-3.9l-4.312,2.524a12.3,12.3,0,0,0-4.831,16.026L70.024,197.659l7.123,1.78Z" transform="translate(23.165 105.335)" fill="#a098a0"/>
        <path id="Trazado_183465" data-name="Trazado 183465" d="M274.381,121.5a126.741,126.741,0,0,1-7.924,10.771v.028L191.19,163.562c-13.269-2.713-27.161-6.947-43.469-7-.788-.026-1.573,0-2.361,0-.137,0-.271.028-.434.028-2.09.052-4.26.163-6.431.38L53.051,92.8,139.118,77.79Z" transform="translate(84.01 123.186)" fill="#e8e8e8"/>
        <path id="Trazado_183466" data-name="Trazado 183466" d="M58.373,84.8l81.321,61.078a87.424,87.424,0,0,0-11.5,1.819l-75.9-61.241Z" transform="translate(82.812 134.281)" fill="#12263f"/>
        <path id="Trazado_183467" data-name="Trazado 183467" d="M181.788,98.89a137.207,137.207,0,0,1-16.822,17.176c-.191.163-.354.3-.543.462l-.028.026-37.5,15.791h-.028a64.127,64.127,0,0,1-7.6-.243,119.114,119.114,0,0,1-12.755-1.953Z" transform="translate(168.679 156.6)" fill="#e5bba5"/>
        <path id="Trazado_183468" data-name="Trazado 183468" d="M181.788,98.88a135.6,135.6,0,0,1-16.822,17.2c-.191.165-.38.328-.571.491l-37.5,15.791a64.587,64.587,0,0,1-7.624-.245,119.111,119.111,0,0,1-12.755-1.953Z" transform="translate(168.679 156.584)" fill="#12263f"/>
        <path id="Trazado_183469" data-name="Trazado 183469" d="M139.472,122.206l24.872-10.461L100.189,84.9,80.254,89.834l1.775,4.144Z" transform="translate(127.089 134.441)" fill="#4e4b63"/>
        <path id="Trazado_183470" data-name="Trazado 183470" d="M128.047,95.289v4.64l-24.872,5.821Z" transform="translate(163.386 150.897)" fill="#322f41"/>
        <path id="Trazado_183471" data-name="Trazado 183471" d="M131.622,88.834c9.818,2.772,13.259,7.087,7.686,9.639s-18.044,2.372-27.861-.4-13.259-7.087-7.689-9.639,18.046-2.372,27.864.4" transform="translate(160.087 137.188)" fill="#12263f"/>
        <path id="Trazado_183472" data-name="Trazado 183472" d="M106.158,82.567l3.948,11.055,13.817,2.762L119.58,84.541Z" transform="translate(168.11 130.751)" fill="#12263f"/>
        <path id="Trazado_183473" data-name="Trazado 183473" d="M94,125.9l95.512,23.084a5.977,5.977,0,0,0,7.311-4.919l13.6-90.265a3.371,3.371,0,0,0-3.354-3.875l-107.247.648a3.577,3.577,0,0,0-3.537,3.206l-6.826,65.7A5.976,5.976,0,0,0,94,125.9" transform="translate(141.62 79.058)" fill="#12263f"/>
        <path id="Trazado_183474" data-name="Trazado 183474" d="M189.921,134.362l12.448-82.6-104.614.63-6.343,60.4Z" transform="translate(144.757 81.97)" fill="#4adbd1"/>
        <path id="Trazado_183475" data-name="Trazado 183475" d="M104.365,109.556a15.865,15.865,0,0,0,7.7.677,44.934,44.934,0,0,0,12.626-3.847c1.217-.767,2.126-2.55,1.175-3.26s-10.373-2.25-11.528-1.739a49.03,49.03,0,0,0-4.839,2.245A25.388,25.388,0,0,0,107.191,107a33.121,33.121,0,0,1-2.826,2.56" transform="translate(165.27 160.392)" fill="#322f41"/>
        <path id="Trazado_183476" data-name="Trazado 183476" d="M103.239,109.815c.271,1.728,2.757,3.142,5.19,2.757s8.846-5.513,11.474-6.025a27.954,27.954,0,0,1,7.691-.385c1.155.256-2.434-3.527-4.679-4.294s-8.4-3.077-11.856-2.245-8.717,4.488-7.82,10.192" transform="translate(163.327 157.477)" fill="#4e4b63"/>
        <path id="Trazado_183477" data-name="Trazado 183477" d="M81.8,54.659S84.781,64,85.319,71.347c.672,5.88,3.224,6.056,4.6,6.684s.426,3.356-3.286,4.718c0,0,.677,14.23-2.777,16.661s-15.755-.3-17.387.543-2.405,10.642-2.075,13.522c0,0-16.93-8.624-24.955-9.128l.372-14.791S26.772,64.3,36.171,53.814s32.538-14.357,45.629.845" transform="translate(51.887 70.579)" fill="#ffa399"/>
        <path id="Trazado_183478" data-name="Trazado 183478" d="M88.271,100.7c-2.317.661-10.438,3.48-13.843,2.516-3.356-.948-7.944-12.065-6.294-27.148.357-3.253,3.131-7,5.475-9.838a10.117,10.117,0,0,1,7.823-3.658c10.691.036,14.62-2.589,10.011-10.81A10.136,10.136,0,0,0,90.4,50.243a25.347,25.347,0,0,0-11.187-7.653C67.168,38.524,43.164,35.819,34.6,55.323c0,0-11.288,6.72-2.367,26.947C38.86,95.944,47.107,98.058,47.107,98.058s6.849-2.545,9.5-5.973a3.076,3.076,0,0,0,.183-3.361c-1.354-2.467-4.095-8.552.517-11.742,4.482-3.105,6.167,2.31,6.89,7.994a81.44,81.44,0,0,0,3.2,15.357c1.778,5.18,3.552,8.735,12.287,9.179,8.087.411,12.936.822,13.848-6.632.134-1.09-.855-3.436-5.26-2.178" transform="translate(45.612 62.85)" fill="#322f41"/>
        <path id="Trazado_183479" data-name="Trazado 183479" d="M64.983,103.606s25.464-2.222,33.9-3.405,13.026-2.814,16.137-1.186,8.833,1.532,12.039,1.284,7.8,1.085,9.97.543,1.876-3.108-1.529-3.85-6.908-.147-8.49-1.281-.1-3.8,2.222-4.1,7.3,1.235,9.771,2.467,4.935,2.369,6.268,2.369,2.268-1.876-.4-3.01a49.938,49.938,0,0,1-6.513-3.751,83.425,83.425,0,0,0,8.98.594c1.827-.2,2.566-2.026-.147-2.617s-12.189-1.579-13.326-1.974c0,0,1.581-.987.938-1.726s-1.925-.346-4.392.444S116.406,88.653,113.691,89,76.038,87.025,69.819,86.63s-17.568-3.948-17.568-3.948Z" transform="translate(82.743 130.933)" fill="#ffa399"/>
        <path id="Trazado_183480" data-name="Trazado 183480" d="M126.474,189.709c-15.357,4.883-29.36,8.058-42.03,9.334a108.56,108.56,0,0,1-15.494.543,13.314,13.314,0,0,1-1.493-.109c-1.328-.028-2.658-.137-3.935-.271-.948-.109-1.9-.217-2.847-.354-1.088-.134-2.173-.3-3.229-.514C49.93,186.263,27.9,147.76,26.921,110.8c0-26.861,16.388-38.911,16.388-38.911l.6-4.72S61.272,68.558,75.49,78.815a15.036,15.036,0,0,1,2.361,7.7s24.88,23.877,33.563,49.548c6.4,18.912,12.373,42.544,15.06,53.643" transform="translate(42.631 106.373)" fill="#ffcb52"/>
        <path id="Trazado_183481" data-name="Trazado 183481" d="M64.015,94.081s17.765,10.856,22.5,12.83,44.316-5.723,45.993-6.118,3.751-7.206,3.95-8.588a2.727,2.727,0,0,1,2.072-2.615c1.183-.2,2.615,1.036,2.219,3.6,0,0,4.1-3.108,5.973-2.863s4.736,1.186,7.007.643,6.761.444,6.761.444a24.607,24.607,0,0,0,3.948-.791,1.715,1.715,0,0,1,2.467,1.232c.2.938-1.726,2.124-3.651,2.715a21.04,21.04,0,0,1,4.687.84c1.382.592,1.529,2.418,0,2.713s-6.02,1.581-7.6,3.6-4.048,4.984-6.859,6.66-7.65,2.075-12.882,3.751S103.495,128.43,90.763,132.77,57.6,124.678,57.6,124.678s2.566-30.3,6.415-30.6" transform="translate(91.214 141.841)" fill="#ffa399"/>
        <path id="Trazado_183482" data-name="Trazado 183482" d="M102.453,110.9a135.2,135.2,0,0,1-4.147,36.715S63.663,141.991,38.2,113.861c-10.758-14.411-2.863-30.2,8-35.532,6.88-3.377,24.673-.987,34.346,12.238A80.854,80.854,0,0,0,102.453,110.9" transform="translate(52.381 121.862)" fill="#ffcb52"/>
        <path id="Trazado_183483" data-name="Trazado 183483" d="M99.007,148.247a96.663,96.663,0,0,1-16.964-4.441c-2.764-.971-5.493-2.057-8.18-3.235l-3.984-1.878c-1.338-.6-2.609-1.346-3.912-2.02-2.625-1.325-5.095-2.93-7.622-4.436-2.416-1.674-4.932-3.219-7.216-5.09-1.15-.922-2.343-1.788-3.454-2.754l-3.3-2.94c-2.232-1.93-4.175-4.162-6.278-6.232l-.067-.08c-.659-1-1.351-1.971-1.976-2.992-.522-1.08-1.165-2.106-1.581-3.237a22.278,22.278,0,0,1-1.121-3.439l-.4-1.767-.2-1.809a25.811,25.811,0,0,1-.072-3.632,26.189,26.189,0,0,1,.563-3.589,24.835,24.835,0,0,1,2.658-6.717,27.805,27.805,0,0,1,4.439-5.679A25.551,25.551,0,0,1,46.214,78.1c.674-.336,1.111-.457,1.679-.695l1.868-.481a24.76,24.76,0,0,1,3.607-.362,32.937,32.937,0,0,1,7.1.648,34.1,34.1,0,0,1,6.769,2.106,36.292,36.292,0,0,1,6.226,3.366,33.191,33.191,0,0,1,5.382,4.583,24.481,24.481,0,0,1,2.294,2.69c.749.928,1.385,1.829,2.088,2.764,1.38,1.821,2.847,3.555,4.371,5.273q2.294,2.55,4.8,4.922a82.436,82.436,0,0,0,10.755,8.619A72.157,72.157,0,0,1,91.9,103.468q-2.627-2.263-5.079-4.743a67.3,67.3,0,0,1-4.635-5.208,51.555,51.555,0,0,0-4.418-5.19,31.673,31.673,0,0,0-5.245-4.214,34.651,34.651,0,0,0-6-3.025,37.592,37.592,0,0,0-6.441-1.878,30.941,30.941,0,0,0-6.64-.548,23.131,23.131,0,0,0-3.263.357L48.7,79.4c-.493.212-1.163.444-1.506.638a23.3,23.3,0,0,0-5.307,3.847,25.623,25.623,0,0,0-4,5.219,22.552,22.552,0,0,0-2.351,6.108A25.164,25.164,0,0,0,35,98.435a23.421,23.421,0,0,0,.036,3.271l.165,1.63.351,1.6a20.408,20.408,0,0,0,.987,3.134c.369,1.036.959,1.982,1.421,2.981.571.946,1.209,1.858,1.806,2.79l-.062-.08c2.036,2.041,3.917,4.247,6.087,6.159L49,122.832c1.077.958,2.245,1.819,3.364,2.733,1.132.9,2.235,1.84,3.434,2.653l3.521,2.537c2.441,1.55,4.831,3.2,7.384,4.586,1.266.7,2.5,1.475,3.808,2.106l3.881,1.971c2.635,1.219,5.273,2.439,7.97,3.529s5.436,2.082,8.211,2.979c2.78.865,5.573,1.705,8.43,2.32" transform="translate(51.683 121.231)" fill="#cc9e40"/>
        <path id="Trazado_183484" data-name="Trazado 183484" d="M125.013,102.489,65.162,91.418a2.2,2.2,0,0,1-1.8-2.315l2.258-33.85a2.2,2.2,0,0,1,2.2-2.057h61.954a2.2,2.2,0,0,1,2.193,2.416l-4.361,44.921a2.2,2.2,0,0,1-2.594,1.956" transform="translate(100.334 84.241)" fill="#bdbab2"/>
        <path id="Trazado_183485" data-name="Trazado 183485" d="M130.327,59.347,64.167,57.88l.209-3.126A1.667,1.667,0,0,1,66.04,53.2h63.047a1.667,1.667,0,0,1,1.659,1.829Z" transform="translate(101.613 84.24)" fill="#38424d"/>
        <path id="Trazado_183486" data-name="Trazado 183486" d="M66.4,54.719a.952.952,0,0,1-.9.9.79.79,0,0,1-.729-.922.965.965,0,0,1,.9-.9.785.785,0,0,1,.726.922" transform="translate(102.573 85.192)" fill="#d2c6cd"/>
        <path id="Trazado_183487" data-name="Trazado 183487" d="M67.384,54.74a.967.967,0,0,1-.9.92.8.8,0,0,1-.723-.938.975.975,0,0,1,.9-.92.794.794,0,0,1,.726.938" transform="translate(104.127 85.2)" fill="#d2c6cd"/>
        <path id="Trazado_183488" data-name="Trazado 183488" d="M68.365,54.759a.975.975,0,0,1-.9.933.8.8,0,0,1-.726-.951.985.985,0,0,1,.907-.933.8.8,0,0,1,.718.951" transform="translate(105.68 85.209)" fill="#d2c6cd"/>
        <path id="Trazado_183489" data-name="Trazado 183489" d="M66.737,85.755l-.723-.127,2.1-29.678.744.023Z" transform="translate(104.538 88.602)" fill="#fff"/>
        <path id="Trazado_183490" data-name="Trazado 183490" d="M66.85,57.446l-1.235-.052.078-1.132,1.238.046Z" transform="translate(103.906 89.096)" fill="#fff"/>
        <path id="Trazado_183491" data-name="Trazado 183491" d="M66.781,58.419l-1.232-.067.078-1.129,1.235.059Z" transform="translate(103.801 90.616)" fill="#fff"/>
        <path id="Trazado_183492" data-name="Trazado 183492" d="M66.712,59.4l-1.23-.08.08-1.134,1.23.075Z" transform="translate(103.696 92.134)" fill="#fff"/>
        <path id="Trazado_183493" data-name="Trazado 183493" d="M66.643,60.37l-1.227-.1.08-1.134,1.227.09Z" transform="translate(103.591 93.653)" fill="#fff"/>
        <path id="Trazado_183494" data-name="Trazado 183494" d="M66.574,61.338l-1.225-.109.08-1.129,1.225.1Z" transform="translate(103.486 95.174)" fill="#fff"/>
        <path id="Trazado_183495" data-name="Trazado 183495" d="M66.5,62.315l-1.219-.124.077-1.132,1.222.116Z" transform="translate(103.382 96.692)" fill="#fff"/>
        <path id="Trazado_183496" data-name="Trazado 183496" d="M66.435,63.288l-1.217-.137.077-1.132,1.219.129Z" transform="translate(103.277 98.212)" fill="#fff"/>
        <path id="Trazado_183497" data-name="Trazado 183497" d="M66.366,64.26l-1.214-.152.078-1.129,1.217.145Z" transform="translate(103.172 99.731)" fill="#fff"/>
        <path id="Trazado_183498" data-name="Trazado 183498" d="M66.3,65.234l-1.212-.165.077-1.132,1.214.16Z" transform="translate(103.067 101.25)" fill="#fff"/>
        <path id="Trazado_183499" data-name="Trazado 183499" d="M66.228,66.211l-1.209-.181L65.1,64.9l1.212.176Z" transform="translate(102.962 102.767)" fill="#fff"/>
        <path id="Trazado_183500" data-name="Trazado 183500" d="M66.159,67.181l-1.207-.2.077-1.129,1.209.189Z" transform="translate(102.857 104.288)" fill="#fff"/>
        <path id="Trazado_183501" data-name="Trazado 183501" d="M68.886,56.267l-.961.871a.157.157,0,0,0-.015.225l.806.881a.178.178,0,0,0,.24.016.168.168,0,0,0,.065-.116.157.157,0,0,0-.041-.119s-.54-.589-.7-.765l.842-.76a.173.173,0,0,0,.057-.109.165.165,0,0,0-.049-.124.18.18,0,0,0-.245,0" transform="translate(107.477 89.026)" fill="#fff"/>
        <path id="Trazado_183502" data-name="Trazado 183502" d="M70.012,56.316a.183.183,0,0,0-.065.121.178.178,0,0,0,.036.116s.568.654.726.837l-.809.718a.178.178,0,0,0-.057.114.167.167,0,0,0,.044.124.182.182,0,0,0,.245.008l.933-.829a.166.166,0,0,0,.018-.23l-.827-.961a.18.18,0,0,0-.245-.018" transform="translate(110.603 89.118)" fill="#fff"/>
        <path id="Trazado_183503" data-name="Trazado 183503" d="M70.5,56.337l-1.788,1.555a.149.149,0,0,0-.013.23.176.176,0,0,0,.243.008l1.79-1.55a.163.163,0,0,0,.013-.235.177.177,0,0,0-.245-.008" transform="translate(108.71 89.142)" fill="#fff"/>
        <path id="Trazado_183504" data-name="Trazado 183504" d="M68.091,66.964l-.938.754a.162.162,0,0,0-.018.227l.785.99a.175.175,0,0,0,.235.047.14.14,0,0,0,.062-.109.156.156,0,0,0-.041-.121s-.524-.664-.677-.86c.178-.145.824-.661.824-.661a.152.152,0,0,0,.054-.106A.2.2,0,0,0,68.331,67a.178.178,0,0,0-.24-.031" transform="translate(106.254 105.99)" fill="#fff"/>
        <path id="Trazado_183505" data-name="Trazado 183505" d="M69.19,67.22a.169.169,0,0,0-.062.116.186.186,0,0,0,.034.121l.708.935c-.181.145-.791.625-.791.625a.138.138,0,0,0-.054.106.166.166,0,0,0,.041.129.174.174,0,0,0,.24.036l.909-.718a.168.168,0,0,0,.018-.233l-.806-1.07a.178.178,0,0,0-.238-.049" transform="translate(109.304 106.406)" fill="#fff"/>
        <path id="Trazado_183506" data-name="Trazado 183506" d="M69.664,67.175l-1.747,1.343a.157.157,0,0,0-.015.233.176.176,0,0,0,.238.039l1.749-1.341a.167.167,0,0,0,.016-.238.176.176,0,0,0-.24-.036" transform="translate(107.458 106.325)" fill="#fff"/>
        <path id="Trazado_183507" data-name="Trazado 183507" d="M72.916,58.567,67.3,58.272l.075-1.039L73,57.5Z" transform="translate(106.574 90.633)" fill="#fff"/>
        <path id="Trazado_183508" data-name="Trazado 183508" d="M73.152,64.357l-6.237-.731.075-1.041,6.242.7Z" transform="translate(105.966 99.108)" fill="#fff"/>
        <path id="Trazado_183509" data-name="Trazado 183509" d="M70.87,67.886l-4.211-.679.075-1.044,4.214.661Z" transform="translate(105.56 104.774)" fill="#fff"/>
        <path id="Trazado_183510" data-name="Trazado 183510" d="M76.731,59.773l-8.96-.566.078-1.049,8.968.522Z" transform="translate(107.321 92.099)" fill="#fff"/>
        <path id="Trazado_183511" data-name="Trazado 183511" d="M75.479,65.647l-8.1-1.039.077-1.049,8.1,1Z" transform="translate(106.701 100.652)" fill="#fff"/>
        <path id="Trazado_183512" data-name="Trazado 183512" d="M75.247,66.574l-7.929-1.1.075-1.044,7.937,1.064Z" transform="translate(106.603 102.025)" fill="#fff"/>
        <path id="Trazado_183513" data-name="Trazado 183513" d="M71.492,67.011l-4.24-.636.078-1.049,4.242.617Z" transform="translate(106.499 103.45)" fill="#fff"/>
        <path id="Trazado_183514" data-name="Trazado 183514" d="M87.335,69.4l-18.051-2.71.08-1.072,18.07,2.622Z" transform="translate(109.716 103.917)" fill="#fff"/>
        <path id="Trazado_183515" data-name="Trazado 183515" d="M83.9,67.8l-13.15-1.829.083-1.088,13.163,1.765Z" transform="translate(112.035 102.753)" fill="#fff"/>
        <path id="Trazado_183516" data-name="Trazado 183516" d="M80.479,67.37l-4.25-.592.1-1.155,4.253.568Z" transform="translate(120.714 103.919)" fill="#fff"/>
        <path id="Trazado_183517" data-name="Trazado 183517" d="M87.159,67.234,78.7,66.147l.1-1.188L87.27,66Z" transform="translate(124.62 102.866)" fill="#fff"/>
        <path id="Trazado_183518" data-name="Trazado 183518" d="M90.057,67.546,70.848,65.079l.085-1.09L90.16,66.363Z" transform="translate(112.193 101.331)" fill="#fff"/>
        <path id="Trazado_183519" data-name="Trazado 183519" d="M76.736,59.8,71.6,59.478l.085-1.1,5.144.3Z" transform="translate(113.38 92.452)" fill="#fff"/>
        <path id="Trazado_183520" data-name="Trazado 183520" d="M73.538,61.53l-5.9-.5.077-1.046,5.9.473Z" transform="translate(107.112 94.986)" fill="#fff"/>
        <path id="Trazado_183521" data-name="Trazado 183521" d="M79.873,62.082l-9.58-.806.083-1.08,9.588.757Z" transform="translate(111.315 95.325)" fill="#fff"/>
        <path id="Trazado_183522" data-name="Trazado 183522" d="M83.15,60.227l-9.205-.581.09-1.126,9.213.54Z" transform="translate(117.098 92.669)" fill="#fff"/>
        <path id="Trazado_183523" data-name="Trazado 183523" d="M77.892,60.885,67.7,60.128l.077-1.046,10.195.708Z" transform="translate(107.215 93.56)" fill="#fff"/>
        <path id="Trazado_183524" data-name="Trazado 183524" d="M82.019,61.224l-9.965-.739.088-1.1,9.973.692Z" transform="translate(114.104 94.039)" fill="#fff"/>
        <path id="Trazado_183525" data-name="Trazado 183525" d="M83.259,61.348l-6.965-.517.1-1.152,6.97.483Z" transform="translate(120.817 94.506)" fill="#fff"/>
        <path id="Trazado_183526" data-name="Trazado 183526" d="M79.6,63.08,67.575,61.928l.075-1.046,12.034,1.1Z" transform="translate(107.01 96.411)" fill="#fff"/>
        <path id="Trazado_183527" data-name="Trazado 183527" d="M79,63.061l-6.412-.615.088-1.108,6.418.584Z" transform="translate(114.944 97.134)" fill="#fff"/>
        <path id="Trazado_183528" data-name="Trazado 183528" d="M79.511,64.06l-12-1.274.075-1.049L79.6,62.954Z" transform="translate(106.911 97.765)" fill="#fff"/>
        <path id="Trazado_183529" data-name="Trazado 183529" d="M83.641,64.538,72.513,63.355l.088-1.111,11.138,1.129Z" transform="translate(114.83 98.567)" fill="#fff"/>
        <path id="Trazado_183530" data-name="Trazado 183530" d="M87.924,63.94,75.481,62.746l.1-1.145L88.03,62.736Z" transform="translate(119.53 97.551)" fill="#fff"/>
        <path id="Trazado_183531" data-name="Trazado 183531" d="M72.792,58.579l-2.9-.152.083-1.07,2.9.137Z" transform="translate(110.677 90.829)" fill="#fff"/>
        <path id="Trazado_183532" data-name="Trazado 183532" d="M170.516,73.105l-49.413.341c-.907-.005-1.439-.837-1.243-1.935l5.857-32.842a2.635,2.635,0,0,1,2.057-2.17l51.046-5.25a1.453,1.453,0,0,1,1.6,1.816L172.885,71a2.707,2.707,0,0,1-2.369,2.106" transform="translate(189.743 49.473)" fill="#fffaf3"/>
        <path id="Trazado_183533" data-name="Trazado 183533" d="M176.466,36.183l-54.537,5.033.532-3a1.993,1.993,0,0,1,1.555-1.643l51.945-5.343a1.1,1.1,0,0,1,1.212,1.374Z" transform="translate(193.084 49.447)" fill="#38424d"/>
        <path id="Trazado_183534" data-name="Trazado 183534" d="M123.888,34.644a1.158,1.158,0,0,1-.845.948c-.372.039-.594-.32-.5-.8a1.168,1.168,0,0,1,.847-.948c.372-.041.594.318.5.8" transform="translate(194.023 53.588)" fill="#d2c6cd"/>
        <path id="Trazado_183535" data-name="Trazado 183535" d="M124.7,34.562a1.167,1.167,0,0,1-.85.956c-.369.039-.589-.323-.493-.811a1.178,1.178,0,0,1,.85-.956c.369-.041.592.323.493.811" transform="translate(195.308 53.442)" fill="#d2c6cd"/>
        <path id="Trazado_183536" data-name="Trazado 183536" d="M125.509,34.482a1.174,1.174,0,0,1-.85.964c-.372.039-.592-.328-.491-.819a1.188,1.188,0,0,1,.853-.966c.369-.041.589.328.488.822" transform="translate(196.591 53.298)" fill="#d2c6cd"/>
        <path id="Trazado_183537" data-name="Trazado 183537" d="M124.947,35.91l-.894.92a.169.169,0,0,0-.039.212l.571.734c.044.057.132.049.2-.013a.236.236,0,0,0,.067-.116.125.125,0,0,0-.023-.106s-.382-.491-.493-.636c.171-.176.785-.8.785-.8a.2.2,0,0,0,.057-.109.129.129,0,0,0-.026-.109c-.047-.054-.137-.041-.2.026" transform="translate(196.349 56.771)" fill="#614bee"/>
        <path id="Trazado_183538" data-name="Trazado 183538" d="M125.934,35.778a.22.22,0,0,0-.067.121.151.151,0,0,0,.018.1s.4.543.512.695c-.173.173-.749.754-.749.754a.223.223,0,0,0-.059.111.131.131,0,0,0,.023.111.14.14,0,0,0,.2-.021l.863-.868a.181.181,0,0,0,.041-.217l-.581-.8a.135.135,0,0,0-.2.01" transform="translate(198.873 56.577)" fill="#614bee"/>
        <path id="Trazado_183539" data-name="Trazado 183539" d="M126.321,35.856,124.665,37.5a.16.16,0,0,0-.036.214c.044.059.137.046.2-.018l1.656-1.641a.169.169,0,0,0,.036-.217c-.044-.057-.134-.049-.2.018" transform="translate(197.315 56.692)" fill="#614bee"/>
        <path id="Trazado_183540" data-name="Trazado 183540" d="M123.079,46.089l-.878.873a.181.181,0,0,0-.039.22l.548.806a.122.122,0,0,0,.194.005.2.2,0,0,0,.065-.114.142.142,0,0,0-.021-.109s-.367-.543-.473-.7c.165-.165.77-.765.77-.765a.2.2,0,0,0,.057-.109.153.153,0,0,0-.023-.116.134.134,0,0,0-.2.01" transform="translate(193.417 72.906)" fill="#614bee"/>
        <path id="Trazado_183541" data-name="Trazado 183541" d="M124.046,46.064a.241.241,0,0,0-.067.119.174.174,0,0,0,.018.109s.382.6.491.762c-.171.165-.739.721-.739.721a.2.2,0,0,0-.057.111.143.143,0,0,0,.021.114c.044.062.132.057.2-.005l.847-.829a.19.19,0,0,0,.041-.222l-.558-.871a.129.129,0,0,0-.2-.008" transform="translate(195.87 72.881)" fill="#614bee"/>
        <path id="Trazado_183542" data-name="Trazado 183542" d="M124.421,46.111l-1.625,1.56a.17.17,0,0,0-.039.222.125.125,0,0,0,.2,0l1.628-1.56a.185.185,0,0,0,.039-.225.128.128,0,0,0-.2.005" transform="translate(194.353 72.94)" fill="#614bee"/>
        <path id="Trazado_183543" data-name="Trazado 183543" d="M128.042,37.758l-4.638.377.178-.984,4.643-.39Z" transform="translate(195.421 58.213)" fill="#614bee"/>
        <path id="Trazado_183544" data-name="Trazado 183544" d="M127.623,42.933l-5.144.214.181-1,5.149-.23Z" transform="translate(193.954 66.383)" fill="#614bee"/>
        <path id="Trazado_183545" data-name="Trazado 183545" d="M125.323,46.44l-3.47.044.183-1.005,3.472-.054Z" transform="translate(192.963 71.933)" fill="#614bee"/>
        <path id="Trazado_183546" data-name="Trazado 183546" d="M131.088,38.518l-7.394.55.181-.992,7.4-.574Z" transform="translate(195.878 59.389)" fill="#12263f"/>
        <path id="Trazado_183547" data-name="Trazado 183547" d="M129.436,43.789l-6.679.233.181-1,6.686-.253Z" transform="translate(194.396 67.723)" fill="#8e7af6"/>
        <path id="Trazado_183548" data-name="Trazado 183548" d="M129.145,44.635l-6.539.183.181-1,6.547-.2Z" transform="translate(194.156 69.067)" fill="#12263f"/>
        <path id="Trazado_183549" data-name="Trazado 183549" d="M125.943,45.54l-3.5.072.183-1.005,3.5-.083Z" transform="translate(193.905 70.508)" fill="#614bee"/>
        <path id="Trazado_183550" data-name="Trazado 183550" d="M139.017,45.423l-14.894.359.189-1.021,14.907-.4Z" transform="translate(196.558 70.249)" fill="#614bee"/>
        <path id="Trazado_183551" data-name="Trazado 183551" d="M136.288,44.52l-10.854.333.191-1.023,10.864-.367Z" transform="translate(198.634 68.827)" fill="#12263f"/>
        <path id="Trazado_183552" data-name="Trazado 183552" d="M133.467,44.471l-3.509.116.2-1.059,3.511-.124Z" transform="translate(205.798 68.733)" fill="#12263f"/>
        <path id="Trazado_183553" data-name="Trazado 183553" d="M139.084,43.467l-6.989.282.2-1.072,7-.3Z" transform="translate(209.182 67.11)" fill="#8e7af6"/>
        <path id="Trazado_183554" data-name="Trazado 183554" d="M141.471,43.578l-15.853.594.189-1.026,15.868-.638Z" transform="translate(198.925 67.315)" fill="#8e7af6"/>
        <path id="Trazado_183555" data-name="Trazado 183555" d="M131.091,38.384l-4.24.313.189-1.018,4.242-.323Z" transform="translate(200.879 59.155)" fill="#12263f"/>
        <path id="Trazado_183556" data-name="Trazado 183556" d="M128.246,40.342l-4.867.3.181-.995,4.873-.315Z" transform="translate(195.379 62.285)" fill="#614bee"/>
        <path id="Trazado_183557" data-name="Trazado 183557" d="M133.475,40.15l-7.906.491.186-1.013,7.913-.514Z" transform="translate(198.848 61.939)" fill="#614bee"/>
        <path id="Trazado_183558" data-name="Trazado 183558" d="M136.382,38.162l-7.593.55.191-1.031,7.6-.568Z" transform="translate(203.947 58.772)" fill="#12263f"/>
        <path id="Trazado_183559" data-name="Trazado 183559" d="M131.942,39.387l-8.407.571.181-.995,8.415-.594Z" transform="translate(195.626 60.76)" fill="#8e7af6"/>
        <path id="Trazado_183560" data-name="Trazado 183560" d="M135.346,39.165l-8.221.55.189-1.021,8.229-.571Z" transform="translate(201.312 60.372)" fill="#8e7af6"/>
        <path id="Trazado_183561" data-name="Trazado 183561" d="M136.368,39.008l-5.746.382.2-1.046,5.751-.4Z" transform="translate(206.851 60.094)" fill="#8e7af6"/>
        <path id="Trazado_183562" data-name="Trazado 183562" d="M133.144,41.112l-9.921.545.181-1,9.931-.574Z" transform="translate(195.133 63.48)" fill="#12263f"/>
        <path id="Trazado_183563" data-name="Trazado 183563" d="M132.649,40.994l-5.291.292.191-1.028,5.3-.307Z" transform="translate(201.681 63.264)" fill="#12263f"/>
        <path id="Trazado_183564" data-name="Trazado 183564" d="M132.975,41.956l-9.9.481.183-1,9.908-.512Z" transform="translate(194.897 64.807)" fill="#614bee"/>
        <path id="Trazado_183565" data-name="Trazado 183565" d="M136.383,41.78l-9.182.455.191-1.031,9.192-.481Z" transform="translate(201.433 64.489)" fill="#614bee"/>
        <path id="Trazado_183566" data-name="Trazado 183566" d="M140.017,40.77l-10.27.571.2-1.046,10.277-.594Z" transform="translate(205.465 62.869)" fill="#12263f"/>
        <path id="Trazado_183567" data-name="Trazado 183567" d="M127.939,37.662l-2.395.191.186-1,2.395-.2Z" transform="translate(198.808 58.045)" fill="#614bee"/>
        <path id="Trazado_183568" data-name="Trazado 183568" d="M95.722,43.528l-.4,1.343-6.469-2.721.3-1.026,8.19-3.015-.413,1.382L91.1,41.608Z" transform="translate(140.705 60.35)" fill="#334d5c"/>
        <path id="Trazado_183569" data-name="Trazado 183569" d="M92.073,46.688,99.052,37.6l1.465-.152L93.45,46.786Z" transform="translate(145.805 59.295)" fill="#334d5c"/>
        <path id="Trazado_183570" data-name="Trazado 183570" d="M97.006,39.445l.512-1.672,6.319,3.16-.514,1.664-8.306,3.351.5-1.63,5.971-2.514Z" transform="translate(150.467 59.818)" fill="#334d5c"/>
        <path id="Trazado_183571" data-name="Trazado 183571" d="M110.987,55.166a.8.8,0,0,1-.111-.008.656.656,0,0,1-.535-.76l.067-.388a.655.655,0,1,1,1.292.222l-.067.388a.654.654,0,0,1-.646.545" transform="translate(174.718 84.665)" fill="#334d5c"/>
        <path id="Trazado_183572" data-name="Trazado 183572" d="M165.938,66.143a.514.514,0,0,1-.109-.01.652.652,0,0,1-.537-.754l.129-.778a.661.661,0,0,1,.754-.537.652.652,0,0,1,.537.754l-.129.778a.656.656,0,0,1-.646.548M76.6,64.459a.5.5,0,0,1-.085-.008.657.657,0,0,1-.566-.736l.106-.78a.657.657,0,0,1,1.3.173l-.106.78a.657.657,0,0,1-.651.571m89.9-1.682a.829.829,0,0,1-.111-.008.654.654,0,0,1-.535-.757l.129-.775a.639.639,0,0,1,.757-.537.652.652,0,0,1,.535.754l-.129.775a.656.656,0,0,1-.646.548m-89.451-1.7a.5.5,0,0,1-.088-.005.654.654,0,0,1-.563-.736l.106-.78a.641.641,0,0,1,.736-.563.657.657,0,0,1,.566.736l-.106.78a.657.657,0,0,1-.651.568m90.02-1.661a.705.705,0,0,1-.106-.008.656.656,0,0,1-.54-.757l.132-.778a.655.655,0,1,1,1.292.22l-.132.775a.656.656,0,0,1-.646.548M77.508,57.692a.5.5,0,0,1-.088-.005.657.657,0,0,1-.563-.739l.1-.78A.649.649,0,0,1,77.7,55.6a.657.657,0,0,1,.563.739l-.1.78a.659.659,0,0,1-.651.568m90.136-1.643a.492.492,0,0,1-.106-.01.656.656,0,0,1-.54-.757l.132-.775a.655.655,0,1,1,1.292.217l-.132.778a.654.654,0,0,1-.646.548M77.957,54.31a.5.5,0,0,1-.088-.005.659.659,0,0,1-.563-.739l.106-.78a.647.647,0,0,1,.739-.561.655.655,0,0,1,.563.736l-.106.78a.659.659,0,0,1-.651.568m90.255-1.625a.54.54,0,0,1-.111-.01.654.654,0,0,1-.535-.757l.132-.778a.655.655,0,0,1,1.292.222l-.132.778a.656.656,0,0,1-.646.545M78.469,50.939a.645.645,0,0,1-.2-.028.656.656,0,0,1-.429-.824,5.054,5.054,0,0,1,.333-.829.656.656,0,0,1,1.17.594,4.035,4.035,0,0,0-.253.628.654.654,0,0,1-.625.46m89.893-1.63a.656.656,0,0,1-.633-.483,3.782,3.782,0,0,0-.233-.633.656.656,0,1,1,1.188-.555,5.237,5.237,0,0,1,.31.845.655.655,0,0,1-.46.8.664.664,0,0,1-.173.023m-87.824-.982a.657.657,0,0,1-.331-1.225,4.912,4.912,0,0,1,.816-.382.656.656,0,0,1,.45,1.232,3.913,3.913,0,0,0-.6.284.664.664,0,0,1-.331.09m3.3-.641a.656.656,0,0,1-.013-1.312l.785-.015h.015a.656.656,0,0,1,.01,1.312l-.785.016Zm3.41-.075a.655.655,0,0,1-.013-1.31l.788-.018h.013a.656.656,0,0,1,.013,1.312l-.788.016Zm3.413-.072a.656.656,0,0,1-.013-1.312l.788-.018h.013a.656.656,0,0,1,.013,1.312l-.788.018Zm3.41-.075a.656.656,0,0,1-.015-1.312l.791-.018a.688.688,0,0,1,.672.641.656.656,0,0,1-.641.672l-.791.018Zm3.413-.072a.656.656,0,0,1-.013-1.312l.785-.018a.656.656,0,1,1,.031,1.312l-.788.018Zm3.413-.075A.656.656,0,0,1,100.886,46l.785-.018h.013A.656.656,0,0,1,101.7,47.3l-.785.018Zm3.41-.075a.656.656,0,0,1-.013-1.312l.788-.016h.013a.656.656,0,0,1,.013,1.312l-.788.016Zm3.413-.075a.656.656,0,0,1-.013-1.312l.785-.016h.013a.656.656,0,0,1,.013,1.312l-.785.016Zm3.41-.075a.655.655,0,0,1-.013-1.31l.788-.018h.013a.656.656,0,0,1,.013,1.312l-.788.016Zm3.413-.072a.656.656,0,0,1-.016-1.312l.788-.018h.013A.656.656,0,0,1,115.344,47l-.788.018Zm3.41-.072a.658.658,0,0,1-.016-1.315l.785-.016a.686.686,0,0,1,.672.641.659.659,0,0,1-.641.672l-.785.018Zm3.41-.075a.656.656,0,0,1-.015-1.312l.788-.018a.656.656,0,1,1,.031,1.312l-.788.018Zm3.413-.075a.656.656,0,0,1-.016-1.312l.785-.018a.637.637,0,0,1,.672.641.659.659,0,0,1-.641.672l-.785.018Zm3.41-.075a.656.656,0,0,1-.013-1.312l.788-.016h.013a.656.656,0,0,1,.013,1.312l-.788.015Zm3.41-.075a.655.655,0,0,1-.01-1.31l.785-.018h.013a.656.656,0,0,1,.013,1.312l-.788.016Zm34.775-.016a.661.661,0,0,1-.349-.1,3.481,3.481,0,0,0-.594-.3.657.657,0,1,1,.488-1.219,5.11,5.11,0,0,1,.8.411.655.655,0,0,1-.349,1.212m-31.362-.057A.656.656,0,0,1,135,45.263l.785-.018h.013a.656.656,0,0,1,.013,1.312l-.785.018Zm3.41-.075a.656.656,0,0,1-.013-1.312l.791-.018h.013a.656.656,0,0,1,.013,1.312l-.791.018Zm3.413-.072a.656.656,0,0,1-.015-1.312l.788-.018a.631.631,0,0,1,.672.641.659.659,0,0,1-.641.672l-.788.018Zm3.41-.075a.656.656,0,0,1-.015-1.312l.791-.018a.613.613,0,0,1,.669.641.657.657,0,0,1-.641.672l-.788.018Zm3.413-.075a.656.656,0,0,1-.656-.641.662.662,0,0,1,.641-.672l.788-.018a.709.709,0,0,1,.672.641.657.657,0,0,1-.641.672l-.788.018Zm3.413-.075a.656.656,0,0,1-.013-1.312l.785-.016h.013a.656.656,0,0,1,.013,1.312l-.785.015Zm3.41-.075a.655.655,0,0,1-.013-1.31l.788-.018h.013a.656.656,0,0,1,.013,1.312l-.788.015Zm3.413-.072a.656.656,0,0,1-.013-1.312l.785-.018h.013a.656.656,0,0,1,.013,1.312l-.785.018Zm3.41-.075a.656.656,0,0,1-.013-1.312l.788-.016h.013a.655.655,0,0,1,.01,1.31l-.785.018Z" transform="translate(120.268 70.711)" fill="#334d5c"/>
        <path id="Trazado_183573" data-name="Trazado 183573" d="M76.448,54.532c-.028,0-.057,0-.085-.005a.655.655,0,0,1-.566-.736l.052-.39a.657.657,0,1,1,1.3.171l-.052.39a.657.657,0,0,1-.651.571" transform="translate(120.022 83.658)" fill="#334d5c"/>
        <path id="Trazado_183574" data-name="Trazado 183574" d="M175.947,118.193,93.449,102.8l5.539-49.116h86.193Z" transform="translate(147.983 85.012)" fill="#12263f"/>
        <path id="Trazado_183575" data-name="Trazado 183575" d="M181.064,61.662l-85.736-1.9.685-6.074h86.193Z" transform="translate(150.959 85.013)" fill="#a6a6a6"/>
        <path id="Trazado_183576" data-name="Trazado 183576" d="M100.079,57.932,96,57.857l.416-3.669,4.09.021Z" transform="translate(152.026 85.811)" fill="#fff"/>
        <path id="Trazado_183577" data-name="Trazado 183577" d="M152.83,58.983l-52.139-.94.457-3.831,52.3.245Z" transform="translate(159.452 85.847)" fill="#fff"/>
        <path id="Trazado_183578" data-name="Trazado 183578" d="M97.762,56.468l-1.212-.984,1.434-.956Z" transform="translate(152.894 86.348)"/>
        <path id="Trazado_183579" data-name="Trazado 183579" d="M98.259,57.947l4.082.075.45-3.8L98.7,54.2Z" transform="translate(155.601 85.828)" fill="#fff"/>
        <path id="Trazado_183580" data-name="Trazado 183580" d="M98.9,56.516l1.436-.971-1.207-1Z" transform="translate(156.621 86.372)"/>
        <path id="Trazado_183581" data-name="Trazado 183581" d="M125.8,56.413a2.187,2.187,0,0,1-2.031,1.958,1.627,1.627,0,0,1-1.486-2,2.209,2.209,0,0,1,2.036-1.958,1.613,1.613,0,0,1,1.48,2" transform="translate(193.604 86.172)" fill="#f6f6f6"/>
        <path id="Trazado_183582" data-name="Trazado 183582" d="M127.918,56.455a2.216,2.216,0,0,1-2.041,1.989,1.636,1.636,0,0,1-1.473-2.028,2.226,2.226,0,0,1,2.038-1.989,1.628,1.628,0,0,1,1.475,2.028" transform="translate(196.967 86.189)" fill="#fecb15"/>
        <path id="Trazado_183583" data-name="Trazado 183583" d="M130.04,56.5A2.24,2.24,0,0,1,128,58.518a1.652,1.652,0,0,1-1.473-2.059,2.26,2.26,0,0,1,2.054-2.02,1.64,1.64,0,0,1,1.46,2.059" transform="translate(200.327 86.208)" fill="#26a659"/>
        <path id="Trazado_183584" data-name="Trazado 183584" d="M97.912,95.919l-.933-.163,4.5-38.5.964.031Z" transform="translate(153.574 90.67)" fill="#e0e0e0"/>
        <path id="Trazado_183585" data-name="Trazado 183585" d="M98.7,59.194l-1.6-.067.171-1.465,1.6.057Z" transform="translate(153.773 91.312)" fill="#e0e0e0"/>
        <path id="Trazado_183586" data-name="Trazado 183586" d="M98.556,60.459l-1.594-.085.168-1.467,1.6.077Z" transform="translate(153.546 93.282)" fill="#e0e0e0"/>
        <path id="Trazado_183587" data-name="Trazado 183587" d="M98.407,61.725l-1.589-.1.168-1.473,1.591.1Z" transform="translate(153.319 95.251)" fill="#e0e0e0"/>
        <path id="Trazado_183588" data-name="Trazado 183588" d="M98.259,62.988l-1.584-.124.168-1.47,1.586.116Z" transform="translate(153.093 97.223)" fill="#e0e0e0"/>
        <path id="Trazado_183589" data-name="Trazado 183589" d="M98.113,64.245,96.531,64.1,96.7,62.64l1.581.132Z" transform="translate(152.865 99.196)" fill="#e0e0e0"/>
        <path id="Trazado_183590" data-name="Trazado 183590" d="M97.964,65.512l-1.576-.16.168-1.467,1.579.15Z" transform="translate(152.638 101.165)" fill="#e0e0e0"/>
        <rect id="Rectángulo_37155" data-name="Rectángulo 37155" width="1.484" height="1.582" transform="translate(248.657 169.732) rotate(-83.526)" fill="#e0e0e0"/>
        <path id="Trazado_183591" data-name="Trazado 183591" d="M97.669,68.036l-1.568-.2.171-1.467,1.568.189Z" transform="translate(152.183 105.106)" fill="#e0e0e0"/>
        <path id="Trazado_183592" data-name="Trazado 183592" d="M97.521,69.3l-1.563-.214.168-1.467,1.566.207Z" transform="translate(151.957 107.077)" fill="#e0e0e0"/>
        <path id="Trazado_183593" data-name="Trazado 183593" d="M97.373,70.565l-1.558-.235.168-1.47,1.56.227Z" transform="translate(151.73 109.045)" fill="#e0e0e0"/>
        <path id="Trazado_183594" data-name="Trazado 183594" d="M97.226,71.824l-1.555-.253.171-1.465,1.555.243Z" transform="translate(151.502 111.018)" fill="#e0e0e0"/>
        <path id="Trazado_183595" data-name="Trazado 183595" d="M101.413,57.666l-1.3,1.129a.2.2,0,0,0-.036.292l.992,1.142a.233.233,0,0,0,.315.021.229.229,0,0,0,.088-.152.181.181,0,0,0-.049-.15l-.858-.995,1.139-.984a.223.223,0,0,0,.08-.142.209.209,0,0,0-.057-.16.234.234,0,0,0-.318,0" transform="translate(158.412 91.22)" fill="#fff"/>
        <path id="Trazado_183596" data-name="Trazado 183596" d="M102.9,57.731a.248.248,0,0,0-.09.158.215.215,0,0,0,.041.15s.695.847.891,1.085l-1.093.933a.233.233,0,0,0-.08.15.206.206,0,0,0,.049.158.232.232,0,0,0,.318.01L104.2,59.3a.218.218,0,0,0,.036-.3l-1.015-1.245a.228.228,0,0,0-.315-.023" transform="translate(162.428 91.339)" fill="#fff"/>
        <path id="Trazado_183597" data-name="Trazado 183597" d="M103.523,57.758l-2.413,2.015a.2.2,0,0,0-.031.3.228.228,0,0,0,.315.01l2.416-2.013a.211.211,0,0,0,.031-.3.229.229,0,0,0-.318-.01" transform="translate(159.981 91.371)" fill="#fff"/>
        <path id="Trazado_183598" data-name="Trazado 183598" d="M99.738,71.543l-1.263.979a.209.209,0,0,0-.034.295L99.4,74.1a.221.221,0,0,0,.3.059.185.185,0,0,0,.088-.142.2.2,0,0,0-.046-.158l-.829-1.114,1.111-.858a.209.209,0,0,0,.075-.137.245.245,0,0,0-.052-.171.232.232,0,0,0-.31-.039" transform="translate(155.817 113.226)" fill="#fff"/>
        <path id="Trazado_183599" data-name="Trazado 183599" d="M101.185,71.876a.223.223,0,0,0-.088.15.24.24,0,0,0,.039.158L102,73.4l-1.064.809a.212.212,0,0,0-.078.14.226.226,0,0,0,.049.168.22.22,0,0,0,.307.047l1.225-.933a.223.223,0,0,0,.036-.3l-.979-1.385a.228.228,0,0,0-.307-.065" transform="translate(159.709 113.767)" fill="#fff"/>
        <path id="Trazado_183600" data-name="Trazado 183600" d="M101.786,71.817l-2.348,1.741a.207.207,0,0,0-.031.3.225.225,0,0,0,.307.052l2.348-1.741a.22.22,0,0,0,.034-.307.225.225,0,0,0-.31-.047" transform="translate(157.336 113.661)" fill="#fff"/>
        <path id="Trazado_183601" data-name="Trazado 183601" d="M106.5,60.649l-7.27-.382.16-1.346,7.278.346Z" transform="translate(157.144 93.306)" fill="#f4a338"/>
        <path id="Trazado_183602" data-name="Trazado 183602" d="M106.462,68.16l-8.045-.948.158-1.349,8.056.909Z" transform="translate(155.85 104.3)" fill="#f4a338"/>
        <path id="Trazado_183603" data-name="Trazado 183603" d="M103.292,72.739l-5.423-.881.16-1.354,5.428.855Z" transform="translate(154.983 111.649)" fill="#f4a338"/>
        <path id="Trazado_183604" data-name="Trazado 183604" d="M111.379,62.216l-11.587-.734.16-1.362,11.6.679Z" transform="translate(158.027 95.205)" fill="#17bb99"/>
        <path id="Trazado_183605" data-name="Trazado 183605" d="M109.4,69.835,98.961,68.486l.16-1.359,10.456,1.3Z" transform="translate(156.712 106.301)" fill="#fbdd82"/>
        <path id="Trazado_183606" data-name="Trazado 183606" d="M109.048,71.037,98.828,69.606l.16-1.354,10.234,1.38Z" transform="translate(156.501 108.083)" fill="#89c0c8"/>
        <path id="Trazado_183607" data-name="Trazado 183607" d="M104.15,71.6l-5.462-.824.163-1.359,5.467.8Z" transform="translate(156.281 109.932)" fill="#17bb99"/>
        <path id="Trazado_183608" data-name="Trazado 183608" d="M124.561,74.709,101.306,71.2l.171-1.393,23.281,3.4Z" transform="translate(160.425 110.538)" fill="#fbdd82"/>
        <path id="Trazado_183609" data-name="Trazado 183609" d="M120.2,72.632,103.248,70.26l.173-1.411,16.972,2.289Z" transform="translate(163.502 109.028)" fill="#fbdd82"/>
        <path id="Trazado_183610" data-name="Trazado 183610" d="M115.791,72.069l-5.477-.767.194-1.5,5.485.739Z" transform="translate(174.69 110.539)" fill="#f4a338"/>
        <path id="Trazado_183611" data-name="Trazado 183611" d="M124.466,71.892l-10.913-1.411.2-1.54L124.683,70.3Z" transform="translate(179.819 109.175)" fill="#89c0c8"/>
        <path id="Trazado_183612" data-name="Trazado 183612" d="M128.2,72.3l-24.769-3.2.173-1.416,24.8,3.08Z" transform="translate(163.794 107.182)" fill="#17bb99"/>
        <path id="Trazado_183613" data-name="Trazado 183613" d="M111.387,62.253l-6.648-.421.176-1.421,6.655.39Z" transform="translate(165.863 95.665)" fill="#fbdd82"/>
        <path id="Trazado_183614" data-name="Trazado 183614" d="M107.13,64.494l-7.619-.651.16-1.356,7.629.612Z" transform="translate(157.584 98.952)" fill="#fbdd82"/>
        <path id="Trazado_183615" data-name="Trazado 183615" d="M115.318,65.21,102.94,64.164l.171-1.4,12.391.984Z" transform="translate(163.014 99.391)" fill="#17bb99"/>
        <path id="Trazado_183616" data-name="Trazado 183616" d="M119.682,62.8l-11.905-.754.183-1.46,11.921.7Z" transform="translate(170.673 95.947)" fill="#89c0c8"/>
        <path id="Trazado_183617" data-name="Trazado 183617" d="M112.818,63.657,99.65,62.675l.16-1.356,13.184.917Z" transform="translate(157.803 97.102)" fill="#89c0c8"/>
        <path id="Trazado_183618" data-name="Trazado 183618" d="M118.155,64.1l-12.882-.961.178-1.426,12.9.9Z" transform="translate(166.708 97.723)" fill="#f4a338"/>
        <path id="Trazado_183619" data-name="Trazado 183619" d="M119.757,64.259l-9-.672.194-1.5,9.014.628Z" transform="translate(175.386 98.327)" fill="#17bb99"/>
        <path id="Trazado_183620" data-name="Trazado 183620" d="M114.9,66.505l-15.527-1.5.163-1.356,15.543,1.418Z" transform="translate(157.363 100.8)" fill="#89c0c8"/>
        <path id="Trazado_183621" data-name="Trazado 183621" d="M114.126,66.482l-8.283-.8.181-1.439,8.293.76Z" transform="translate(167.611 101.736)" fill="#fbdd82"/>
        <path id="Trazado_183622" data-name="Trazado 183622" d="M114.729,67.777,99.241,66.124l.163-1.362,15.5,1.579Z" transform="translate(157.155 102.556)" fill="#17bb99"/>
        <path id="Trazado_183623" data-name="Trazado 183623" d="M120.061,68.394,105.7,66.86l.181-1.439,14.38,1.462Z" transform="translate(167.378 103.599)" fill="#89c0c8"/>
        <path id="Trazado_183624" data-name="Trazado 183624" d="M125.654,67.62l-16.07-1.548.191-1.486,16.088,1.47Z" transform="translate(173.534 102.278)" fill="#17bb99"/>
        <path id="Trazado_183625" data-name="Trazado 183625" d="M106.341,60.667l-3.754-.2.168-1.39,3.759.181Z" transform="translate(162.455 93.559)" fill="#17bb99"/>
        <path id="Trazado_183626" data-name="Trazado 183626" d="M114.216,55.08a.5.5,0,0,1-.121-.013.655.655,0,0,1-.524-.762l.072-.388a.646.646,0,0,1,.765-.524.656.656,0,0,1,.527.762l-.072.388a.657.657,0,0,1-.646.537" transform="translate(179.831 84.531)" fill="#334d5c"/>
        <path id="Trazado_183627" data-name="Trazado 183627" d="M114.422,72.051a.922.922,0,0,1-.119-.01.657.657,0,0,1-.527-.765l.137-.754a.657.657,0,0,1,1.292.235l-.137.754a.66.66,0,0,1-.646.54m.6-3.273a.615.615,0,0,1-.119-.01.655.655,0,0,1-.527-.762l.137-.754a.669.669,0,0,1,.765-.53.659.659,0,0,1,.527.765l-.137.754a.657.657,0,0,1-.646.537m.6-3.271a.615.615,0,0,1-.119-.01.657.657,0,0,1-.527-.765l.137-.754a.665.665,0,0,1,.765-.527.657.657,0,0,1,.527.765l-.137.754a.66.66,0,0,1-.646.537m.6-3.271a.924.924,0,0,1-.119-.01.657.657,0,0,1-.527-.765l.137-.754a.657.657,0,1,1,1.292.235l-.137.754a.658.658,0,0,1-.646.54m.6-3.273a.847.847,0,0,1-.116-.01.659.659,0,0,1-.53-.765l.14-.754a.657.657,0,0,1,1.292.235l-.14.757a.66.66,0,0,1-.646.537m.6-3.271a.883.883,0,0,1-.116-.01.66.66,0,0,1-.53-.765l.139-.754a.657.657,0,0,1,1.292.235l-.14.754a.66.66,0,0,1-.646.54m.6-3.273a.607.607,0,0,1-.116-.01.658.658,0,0,1-.53-.762l.14-.754a.672.672,0,0,1,.765-.53.657.657,0,0,1,.527.765l-.139.754a.66.66,0,0,1-.646.537m.6-3.271a.924.924,0,0,1-.119-.01.657.657,0,0,1-.527-.765l.137-.754a.667.667,0,0,1,.765-.527.656.656,0,0,1,.527.762l-.137.757a.66.66,0,0,1-.646.537m.85-3.2a.666.666,0,0,1-.295-.07.657.657,0,0,1-.292-.881,6.628,6.628,0,0,1,.434-.741.658.658,0,0,1,1.083.747,4.433,4.433,0,0,0-.344.584.658.658,0,0,1-.586.362m2.188-2.457a.657.657,0,0,1-.362-1.2,6.612,6.612,0,0,1,.734-.424.661.661,0,0,1,.878.295.653.653,0,0,1-.295.878,6.476,6.476,0,0,0-.594.346.658.658,0,0,1-.362.109m3.113-1.049a.656.656,0,0,1-.044-1.31l.765-.057a.658.658,0,0,1,.093,1.312l-.767.054h-.046m3.32-.24a.656.656,0,0,1-.049-1.31l.767-.057a.627.627,0,0,1,.7.6.659.659,0,0,1-.6.705l-.767.054-.049,0" transform="translate(180.157 64.659)" fill="#334d5c"/>
        <path id="Trazado_183628" data-name="Trazado 183628" d="M121,42.092a.656.656,0,0,1-.046-1.31l.4-.028a.634.634,0,0,1,.7.607.657.657,0,0,1-.607.7l-.4.026-.047,0" transform="translate(190.582 64.525)" fill="#334d5c"/>
        <path id="Trazado_183629" data-name="Trazado 183629" d="M126.854,43.359A13.962,13.962,0,0,1,113.7,54.471c-6.141,0-10.208-4.979-9.084-11.112a13.965,13.965,0,0,1,13.156-11.122c6.133,0,10.205,4.979,9.079,11.122" transform="translate(165.377 51.05)" fill="#4adbd1"/>
        <path id="Trazado_183630" data-name="Trazado 183630" d="M115.049,35.491s-3.2,3.289-4.619,4.751l-1.206-1.55a1.216,1.216,0,0,0-1.736-.036,1.287,1.287,0,0,0-.354,1.744l2,2.573a1.019,1.019,0,0,0,.878.377,1.5,1.5,0,0,0,.995-.468l5.7-5.862a1.215,1.215,0,0,0,.114-1.734,1.3,1.3,0,0,0-1.77.2" transform="translate(169.32 55.461)" fill="#fff"/>
        <path id="Trazado_183631" data-name="Trazado 183631" d="M66.83,53.847l40.381-1.734s5.5-8.332,1.168-12.985c-4.464-4.335-10.184-.276-10.184-.276s-1.744-10.458-12.3-7.647c-10.389,2.767-9.967,11.1-9.936,13.156,0,0-5.95-.811-8.384,2.767a6.936,6.936,0,0,0-.741,6.72" transform="translate(104.967 48.654)" fill="#5573c6"/>
        <g id="Grupo_142290" data-name="Grupo 142290" transform="translate(222.162 21.588)" opacity="0.45">
          <g id="Grupo_142289" data-name="Grupo 142289">
            <g id="Grupo_142288" data-name="Grupo 142288" clip-path="url(#clip-path-3)">
              <path id="Trazado_183632" data-name="Trazado 183632" d="M134.8,32.76a24.4,24.4,0,1,1-24.407-24.4A24.4,24.4,0,0,1,134.8,32.76" transform="translate(-85.99 -8.356)" fill="#b7c6ce"/>
              <path id="Trazado_183633" data-name="Trazado 183633" d="M126.53,29.619A19.277,19.277,0,1,1,107.248,10.34,19.277,19.277,0,0,1,126.53,29.619" transform="translate(-82.847 -5.214)" fill="#aab5ba"/>
              <path id="Trazado_183634" data-name="Trazado 183634" d="M123.188,28.347a17.205,17.205,0,1,1-17.209-17.2,17.2,17.2,0,0,1,17.209,17.2" transform="translate(-81.577 -3.943)" fill="#fafafa"/>
              <g id="Grupo_142287" data-name="Grupo 142287" transform="translate(9.158 2.718)" opacity="0.6" style="mix-blend-mode: screen;isolation: isolate">
                <g id="Grupo_142286" data-name="Grupo 142286">
                  <g id="Grupo_142285" data-name="Grupo 142285" clip-path="url(#clip-path-4)">
                    <g id="Grupo_142284" data-name="Grupo 142284" opacity="0.3" style="mix-blend-mode: screen;isolation: isolate">
                      <g id="Grupo_142283" data-name="Grupo 142283">
                        <g id="Grupo_142282" data-name="Grupo 142282" clip-path="url(#clip-path-4)">
                          <path id="Trazado_183635" data-name="Trazado 183635" d="M98.025,10.519a1.748,1.748,0,0,1-1.2,1.933,13.435,13.435,0,0,0-4.573,2.638,1.752,1.752,0,0,1-2.276.072,1.606,1.606,0,0,1,.235-2.4,16.593,16.593,0,0,1,5.622-3.24,1.606,1.606,0,0,1,2.193,1" transform="translate(-89.535 -9.408)" fill="#d1bdd1"/>
                        </g>
                      </g>
                    </g>
                  </g>
                </g>
              </g>
              <path id="Trazado_183636" data-name="Trazado 183636" d="M108.35,15.133l-12.8,6.392a.783.783,0,1,0,.692,1.405l12.8-6.394a.783.783,0,0,0-.695-1.4" transform="translate(-71.542 2.246)" fill="#b7c6ce"/>
              <path id="Trazado_183637" data-name="Trazado 183637" d="M95.184,14.62l-.052,8.952a.782.782,0,1,0,1.563.005l.054-8.952a.783.783,0,0,0-1.566-.005" transform="translate(-71.513 0.328)" fill="#b7c6ce"/>
              <path id="Trazado_183638" data-name="Trazado 183638" d="M95.886,17.04a2.685,2.685,0,1,0,3.6,1.212,2.694,2.694,0,0,0-3.6-1.212" transform="translate(-72.678 4.954)" fill="#aab5ba"/>
              <path id="Trazado_183639" data-name="Trazado 183639" d="M95.68,17.391a1.439,1.439,0,1,1-.654,1.93,1.442,1.442,0,0,1,.654-1.93" transform="translate(-71.916 5.716)" fill="#b7c6ce"/>
            </g>
          </g>
        </g>
        <g id="Grupo_142293" data-name="Grupo 142293" transform="translate(106.516 11.722)" opacity="0.5">
          <g id="Grupo_142292" data-name="Grupo 142292">
            <g id="Grupo_142291" data-name="Grupo 142291" clip-path="url(#clip-path-6)">
              <path id="Trazado_183640" data-name="Trazado 183640" d="M114.023,43.423c0-.08.016-.158.016-.235,0-17.367-16.3-31.445-36.408-31.445s-36.4,14.078-36.4,31.445c0,.078.01.155.01.235Z" transform="translate(-41.228 6.874)" fill="#b7c6ce"/>
              <path id="Trazado_183641" data-name="Trazado 183641" d="M52.038,24.476v.067a8.477,8.477,0,1,0,16.953,0l-.005-.067Z" transform="translate(-24.11 27.038)" fill="#b7c6ce"/>
              <path id="Trazado_183642" data-name="Trazado 183642" d="M56.413,4.537V25.89H55.057V5c.245-.083.488-.163.731-.245a5.441,5.441,0,0,1,.625-.217" transform="translate(-19.329 -4.537)" fill="#b7c6ce"/>
            </g>
          </g>
        </g>
      </g>
    </g>
  </g>
</svg>
