<svg xmlns="http://www.w3.org/2000/svg" width="180.711" height="178.964" viewBox="0 0 180.711 178.964">
  <g id="Grupo_985690" data-name="Grupo 985690" transform="translate(45.045 46.569)">
    <rect id="Rectángulo_49533" data-name="Rectángulo 49533" width="114.67" height="106.47" transform="translate(20.996 25.925)" fill="#ffde96"/>
    <g id="kaoxqM" transform="translate(-45.045 -46.569)">
      <g id="Grupo_892600" data-name="Grupo 892600">
        <path id="Trazado_612215" data-name="Trazado 612215" d="M-490.919,228.475c0-9.535.173-18.821-.068-28.1a8.551,8.551,0,0,1,8.916-8.9q43.925.216,87.852,0c5.046-.024,9.3,3.694,8.813,8.947-.081.872-.011,1.757-.012,2.636,0,3.785-.5,4.3-4.221,4.3q-2.884,0-5.769.015a2.935,2.935,0,0,0-.439.088v17.3c1.175-1.243,2.066-2.251,3.026-3.19a12.149,12.149,0,0,1,17.437-.023q3.778,3.68,7.458,7.46a12.143,12.143,0,0,1,.057,17.323c-2.018,2.1-4.14,4.1-6.145,6.207a2.955,2.955,0,0,0-.819,1.814q-.061,31.482-.029,62.964c0,.212.039.424.081.844,2.416,0,4.812-.007,7.208,0s3.259.9,3.253,3.282c-.028,10.87-8.765,21.063-19.5,22.723a24.838,24.838,0,0,1-3.763.342q-55.877.027-111.753,0c-12.489-.011-23.229-10.755-23.234-23.1,0-2.372.872-3.244,3.282-3.252,2.353-.007,4.707,0,7.268,0v-2.026c0-24.559.121-49.12-.07-73.678-.061-7.871,6.183-14.471,14.1-14C-495.7,228.59-493.4,228.475-490.919,228.475Zm89.6,51.195c-1.478,1.529-2.69,2.766-3.883,4.02a25.1,25.1,0,0,1-12.038,7.082c-5.773,1.525-11.522,3.139-17.294,4.668-2.268.6-4.563,1.5-6.857,1.535-10.163.168-20.33.076-30.5.07-2.089,0-3.225-.967-3.2-2.675s1.143-2.581,3.288-2.584q6.017-.009,12.034,0h16.9l1.422-5.288c-5,0-9.779,0-14.556,0-2.126,0-3.253-.914-3.264-2.611s1.119-2.645,3.223-2.648q7.171-.011,14.342,0h1.726c.495-1.858.929-3.493,1.406-5.288h-4.079q-14.754,0-29.508-.006c-1.827,0-2.925-1.013-2.937-2.6s1.074-2.613,2.89-2.65c.989-.02,1.978,0,2.967,0q15.331,0,30.662-.021c.533,0,1.392-.154,1.542-.488.681-1.512,1.163-3.114,1.75-4.78-1.838,0-3.539.019-5.241-.005-1.964-.028-2.9-.971-2.916-2.955-.021-3.187-.011-6.374,0-9.561.005-2.418.857-3.288,3.243-3.291,5.989-.007,11.979,0,17.968-.012.529,0,1.232.05,1.556-.248,1.663-1.53,3.228-3.166,5.093-5.03h-16.406q-9.479,0-18.957,0c-2.049,0-3.258-1.223-3.034-2.992.184-1.455,1.265-2.263,3.1-2.263,11.814-.006,23.629-.032,35.442.04a18.537,18.537,0,0,1,4.068,1.052c2.761-2.769,5.974-5.921,9.085-9.173a3.839,3.839,0,0,0,1-2.387c.07-9.066.044-18.133.044-27.2v-4.553h-80.513c-3.1,0-3.91.8-3.91,3.886q0,52.5,0,105.008v1.8h84.336Zm-115.675,43.756c.06.527.069.908.15,1.273a18.516,18.516,0,0,0,18.512,14.556q54.877.036,109.753-.045a20.5,20.5,0,0,0,7.059-1.278c6.58-2.486,10.347-7.431,11.708-14.365a5.435,5.435,0,0,0-.778-.133q-24.554-.009-49.108.033a2.046,2.046,0,0,0-1.425.962c-.974,1.714-1.762,3.532-2.709,5.263a7.73,7.73,0,0,1-7.242,4.287q-12.36-.012-24.719,0a7.792,7.792,0,0,1-7.336-4.412c-.83-1.545-1.66-3.1-2.34-4.712a2.145,2.145,0,0,0-2.356-1.459q-23.731.066-47.461.029Zm26.076-78.979c-4.332-.532-5.288.279-5.288,4.308v69.278H-390.8V269.18c-1.542,1.581-2.788,2.962-4.151,4.217a3.159,3.159,0,0,0-1.039,2.592q.048,16.649.019,33.3c0,2.832-.762,3.588-3.614,3.588q-43.846,0-87.693,0c-2.926,0-3.643-.733-3.643-3.721q0-31.319,0-62.638Zm-.069-10.708c-2.38,0-4.574,0-6.769,0-5.8.006-9,3.182-9,8.943q-.005,36.837,0,73.674v1.724h5.288v-2.014c0-22.69.1-45.381-.073-68.069-.043-5.584,4.08-9.514,8.947-8.981a10.508,10.508,0,0,0,1.609-.068Zm110.824,24.782c-1.621,1.67-2.862,3.046-4.213,4.3a3.185,3.185,0,0,0-1.062,2.583q.045,25.457.021,50.913v1.713h5.254Zm-48.7,7.031c-2.421,2.979-3.168,6.721-4.062,10.384a2.449,2.449,0,0,0,.521,1.939c2.222,2.359,4.687,4.5,6.8,6.947a4.056,4.056,0,0,0,5.084,1.374c2.987-1.053,6.136-1.67,8.586-3.73Zm14.153,6.249,26.228-26.188-3.269-3.72-26.408,26.41Zm25.519-46.164L-372,242.823a6.6,6.6,0,0,0,.548-9.765c-2.594-2.759-5.268-5.451-8.034-8.037A6.544,6.544,0,0,0-389.2,225.637Zm-71,97.83c.635,1.3,1.173,2.361,1.683,3.441a2.937,2.937,0,0,0,2.878,1.806c8.127,0,16.254.026,24.38-.043a3.227,3.227,0,0,0,2.3-.969,31.591,31.591,0,0,0,2.315-4.235Zm37.717-59.628,26.2-26.2-2.194-2.458-26.358,26.343Zm14.512,14.481,26.168-26.173-2.139-2.481-26.324,26.329Zm31.712-31.2-17.174-17.243-1.206.941,17.247,17.33ZM-438.1,260.13c1.706,0,3.288.014,4.868-.007.647-.008,1.522.163,1.9-.18,1.709-1.546,3.277-3.247,5.017-5.014H-438.1Zm1.1,30.495,7.009-1.943-5.054-5.228ZM-395.936,202h5.25c-.088-1.749.541-3.663-1.305-4.68a3.239,3.239,0,0,0-2.719.037C-396.521,198.408-395.888,200.293-395.936,202Z" transform="translate(522.571 -191.476)" fill="#12263f"/>
        <path id="Trazado_612216" data-name="Trazado 612216" d="M-363.138,265.954c-4.177,0-8.353.007-12.529,0-2.3-.005-3.19-.888-3.193-3.178q-.013-9.974,0-19.948c0-2.323.876-3.231,3.134-3.233q12.695-.013,25.389,0c2.187,0,3.108.916,3.112,3.092q.017,10.056,0,20.113c0,2.264-.914,3.15-3.218,3.155C-354.675,265.961-358.907,265.954-363.138,265.954Zm10.578-20.986h-20.908V260.6h20.908Z" transform="translate(426.343 -223.691)" fill="#12263f"/>
        <path id="Trazado_612217" data-name="Trazado 612217" d="M-253.981,276.786c-3.352,0-6.7.012-10.056,0-1.946-.009-3.056-1.016-3.026-2.682.029-1.589,1.122-2.567,2.968-2.571q10.221-.02,20.443,0c1.832,0,2.929,1.006,2.945,2.6s-1.081,2.642-2.888,2.654C-247.057,276.8-250.519,276.786-253.981,276.786Z" transform="translate(351.477 -245.074)" fill="#12263f"/>
        <path id="Trazado_612218" data-name="Trazado 612218" d="M-253.97,308.723c-3.352,0-6.7.011-10.057,0-1.946-.009-3.06-1.01-3.036-2.672.023-1.59,1.117-2.578,2.958-2.581q10.221-.021,20.443,0c1.838,0,2.934,1,2.956,2.585.022,1.653-1.1,2.659-3.042,2.668C-247.156,308.734-250.563,308.723-253.97,308.723Z" transform="translate(351.477 -266.46)" fill="#12263f"/>
        <path id="Trazado_612219" data-name="Trazado 612219" d="M-365.742,372.6c-3.352,0-6.7.011-10.057,0-1.948-.009-3.064-1.005-3.045-2.663s1.13-2.59,3.113-2.592q10.056-.013,20.113,0c1.991,0,3.1.937,3.13,2.579.028,1.7-1.114,2.673-3.2,2.679C-359.038,372.609-362.39,372.6-365.742,372.6Z" transform="translate(426.328 -309.236)" fill="#12263f"/>
        <path id="Trazado_612220" data-name="Trazado 612220" d="M-365.785,404.536c-3.352,0-6.7.013-10.057,0-1.934-.01-3.046-1.034-3-2.7.04-1.587,1.13-2.547,2.989-2.55q10.222-.018,20.443,0c1.82,0,2.92,1.024,2.924,2.616s-1.1,2.622-2.909,2.634C-358.86,404.552-362.323,404.536-365.785,404.536Z" transform="translate(426.329 -330.619)" fill="#12263f"/>
        <path id="Trazado_612221" data-name="Trazado 612221" d="M-240.65,244.845c-2.473,0-4.946.013-7.419,0-1.945-.014-3.056-1.016-3.025-2.683.029-1.589,1.122-2.565,2.968-2.571q7.584-.023,15.167,0c1.832.006,2.929,1.006,2.945,2.6s-1.081,2.637-2.888,2.655C-235.484,244.864-238.068,244.845-240.65,244.845Z" transform="translate(340.784 -223.685)" fill="#12263f"/>
        <path id="Trazado_612222" data-name="Trazado 612222" d="M-357.489,335.371a24.572,24.572,0,0,1,2.8.02,2.439,2.439,0,0,1,2.336,2.517,2.478,2.478,0,0,1-2.332,2.684c-1.919.09-3.848.08-5.768.006a2.5,2.5,0,0,1-2.422-2.605,2.569,2.569,0,0,1,2.419-2.622,3.237,3.237,0,0,1,.329-.008h2.638Z" transform="translate(415.635 -287.809)" fill="#12263f"/>
        <path id="Trazado_612223" data-name="Trazado 612223" d="M-373.649,468.358c-.934,0-1.873.055-2.8-.015a2.538,2.538,0,0,1-2.393-2.639,2.5,2.5,0,0,1,2.447-2.579c1.866-.07,3.738-.067,5.6,0a2.508,2.508,0,0,1,2.477,2.553,2.551,2.551,0,0,1-2.532,2.673C-371.778,468.4-372.714,468.36-373.649,468.358Z" transform="translate(426.327 -373.345)" fill="#12263f"/>
      </g>
    </g>
  </g>
</svg>
