<svg xmlns="http://www.w3.org/2000/svg" width="188.627" height="192.896" viewBox="0 0 188.627 192.896">
  <g id="Grupo_985692" data-name="Grupo 985692" transform="translate(37.572 43.498)">
    <rect id="Rectángulo_49533" data-name="Rectángulo 49533" width="126.366" height="117.329" transform="translate(24.688 32.068)" fill="#ffde96"/>
    <g id="Q4GkDX" transform="translate(-37.572 -43.498)">
      <g id="Grupo_892601" data-name="Grupo 892601" transform="translate(0 0)">
        <path id="Trazado_612224" data-name="Trazado 612224" d="M-1247.247,501.193h152.321c.4.168.785.364,1.194.5a10.41,10.41,0,0,1,7.4,10.071q.031,56.531,0,113.063a10.191,10.191,0,0,1-7.723,10.113,21.343,21.343,0,0,1-5.4.517c-14.9.029-29.8,0-44.694,0-.687,0-1.373.058-2.133.093,0,4.5.047,8.8-.032,13.1a2.059,2.059,0,0,0,1.314,2.129,10.314,10.314,0,0,1,5.692,9.394c.025,1.092,0,2.184,0,3.508h7.01v6.958h-77.572V663.6h6.855a4.67,4.67,0,0,0,.126-.566,9.581,9.581,0,0,0,.013-.992c-.336-5.232,1.521-9.254,6.363-11.676a1.336,1.336,0,0,0,.607-.987c.04-4.573.026-9.147.026-13.928h-2.241c-15.284,0-30.569-.026-45.853.018-3.985.012-7.431-1.055-9.81-4.408a30.737,30.737,0,0,1-2.075-4.033V509.8a41.057,41.057,0,0,1,2.069-4.234C-1252.277,503.178-1249.807,502.086-1247.247,501.193Zm-1.51,102.278h155.241c.035-.523.094-1.006.094-1.489q.008-44.367,0-88.733c0-3.845-1.1-4.955-4.9-4.955-8.829,0-17.659.024-26.488.023q-56.452-.008-112.9-.02c-2.647,0-5.3,0-7.94.139a3.056,3.056,0,0,0-2.981,2.964,16.85,16.85,0,0,0-.094,1.98q-.021,42.876-.032,85.753C-1248.757,600.511-1248.756,601.887-1248.756,603.471Zm0,7.359v1.7c0,3.641-.006,7.283,0,10.924.008,3.764,1.155,4.887,4.969,4.889q16.965.005,33.93.008,55.943,0,111.886,0c3.208,0,4.515-1.291,4.544-4.508.035-3.917.014-7.834,0-11.751a10.664,10.664,0,0,0-.148-1.26Zm95.2,24.867h-35v13.733h35Zm7.156,27.881c0-.972-.019-1.785,0-2.6.071-2.588-1.169-4.31-4.345-4.256-7.992.137-15.987.033-23.981.029-5.789,0-11.578.029-17.366-.017-1.647-.013-2.947.65-3.359,2.126a23.726,23.726,0,0,0-.378,4.715Z" transform="translate(1255.856 -501.193)" fill="#12263f"/>
        <path id="Trazado_612225" data-name="Trazado 612225" d="M-1094.992,628.516h41V596.872h7.037c.028.574.077,1.107.077,1.641q0,16.142-.012,32.284c0,3.728-1.1,4.875-4.8,4.878q-29.386.02-58.772,0a29.407,29.407,0,0,1-3.793-.057c-2.546-.333-3.931-2.426-3.027-4.8,2.255-5.911,4.63-11.777,7.029-17.631a6.938,6.938,0,0,1,1.616-2.071q22.108-22.143,44.243-44.259c2.531-2.531,4.2-2.524,6.748.015q4.573,4.559,9.129,9.134c2.22,2.243,2.222,4.033-.017,6.274q-22.29,22.312-44.6,44.6C-1093.632,627.392-1094.2,627.829-1094.992,628.516Zm-1.429-8.729,29.984-29.982-5.076-5.291-30.023,30.023Zm35.528-45.938-5.157,5.162,5.123,5.183,5.27-5.228Zm-41.886,49.93-2.9-2.819-1.826,4.7Z" transform="translate(1163.437 -543.811)" fill="#12263f"/>
        <path id="Trazado_612226" data-name="Trazado 612226" d="M-883.49,655.25q0-10.752,0-21.5c0-3.6,1.243-4.827,4.877-4.826q11.248,0,22.5.015c3.231,0,4.549,1.287,4.548,4.465,0,14.611.007,29.223-.06,43.834a5.839,5.839,0,0,1-.945,3.364,4.077,4.077,0,0,1-2.863,1.248c-8.049.1-16.1.073-24.15.044-2.531-.009-3.873-1.517-3.881-4.31-.022-7.443-.007-14.887-.007-22.331Zm24.737-5.022H-876.2v24.484h17.451Zm-17.477-7.315h17.477v-6.735H-876.23Z" transform="translate(1007.034 -586.543)" fill="#12263f"/>
        <path id="Trazado_612227" data-name="Trazado 612227" d="M-867.629,564.906c-3.749,0-7.5.012-11.245,0-3.22-.013-4.581-1.4-4.594-4.657q-.022-6.036-.015-12.072c.006-3.165,1.357-4.569,4.5-4.576q11.494-.024,22.987.03c3.139.016,4.378,1.284,4.4,4.436q.045,6.2,0,12.4c-.028,3.086-1.388,4.419-4.458,4.435C-859.911,564.921-863.77,564.906-867.629,564.906Zm-8.546-14.124v6.838h17.39v-6.838Z" transform="translate(1007.03 -529.523)" fill="#12263f"/>
        <path id="Trazado_612228" data-name="Trazado 612228" d="M-1085.811,586.141v7.095h-24.62v24.682h-7.108c-.03-.622-.077-1.161-.078-1.7q-.022-12.493-.031-24.986c0-3.912,1.216-5.108,5.165-5.107q12.411,0,24.821.016Z" transform="translate(1163.502 -557.946)" fill="#12263f"/>
        <path id="Trazado_612229" data-name="Trazado 612229" d="M-1206.153,635.815h-6.906v-49.4h6.906Z" transform="translate(1227.258 -558.141)" fill="#12263f"/>
        <path id="Trazado_612230" data-name="Trazado 612230" d="M-1170.635,550.9v-6.9h17.61v6.9Z" transform="translate(1198.91 -529.794)" fill="#12263f"/>
        <path id="Trazado_612231" data-name="Trazado 612231" d="M-1095.791,543.95h13.99v6.915h-13.99Z" transform="translate(1148.897 -529.764)" fill="#12263f"/>
        <path id="Trazado_612232" data-name="Trazado 612232" d="M-1206.177,767.473h-6.874V757.02h6.874Z" transform="translate(1227.253 -672.142)" fill="#12263f"/>
        <path id="Trazado_612233" data-name="Trazado 612233" d="M-1206.137,544.007v6.865h-6.941v-6.865Z" transform="translate(1227.271 -529.802)" fill="#12263f"/>
      </g>
    </g>
  </g>
</svg>
