<svg xmlns="http://www.w3.org/2000/svg" xmlns:xlink="http://www.w3.org/1999/xlink" width="283.881" height="283.43" viewBox="0 0 283.881 283.43">
  <defs>
    <clipPath id="clip-path">
      <rect id="Rectángulo_344444" data-name="Rectángulo 344444" width="214.193" height="276.341" fill="none"/>
    </clipPath>
    <clipPath id="clip-path-3">
      <rect id="Rectángulo_344382" data-name="Rectángulo 344382" width="210.252" height="274.112" transform="translate(0 2.229)" fill="none"/>
    </clipPath>
    <clipPath id="clip-path-4">
      <rect id="Rectángulo_344383" data-name="Rectángulo 344383" width="212.23" height="122.707" transform="translate(1.023)" fill="none"/>
    </clipPath>
    <clipPath id="clip-path-5">
      <rect id="Rectángulo_344384" data-name="Rectángulo 344384" width="4.867" height="15.404" transform="translate(209.326 120.439)" fill="none"/>
    </clipPath>
    <clipPath id="clip-path-6">
      <rect id="Rectángulo_344385" data-name="Rectángulo 344385" width="5.05" height="142.5" transform="translate(209.143 133.532)" fill="none"/>
    </clipPath>
    <clipPath id="clip-path-7">
      <rect id="Rectángulo_344386" data-name="Rectángulo 344386" width="23.863" height="15.262" transform="translate(125.912 122.783)" fill="none"/>
    </clipPath>
    <clipPath id="clip-path-8">
      <rect id="Rectángulo_344387" data-name="Rectángulo 344387" width="12.331" height="8.551" transform="translate(137.444 138.968)" fill="none"/>
    </clipPath>
    <clipPath id="clip-path-9">
      <rect id="Rectángulo_344388" data-name="Rectángulo 344388" width="12.331" height="8.551" transform="translate(137.444 148.46)" fill="none"/>
    </clipPath>
    <clipPath id="clip-path-10">
      <rect id="Rectángulo_344389" data-name="Rectángulo 344389" width="12.331" height="8.551" transform="translate(137.444 157.952)" fill="none"/>
    </clipPath>
    <clipPath id="clip-path-11">
      <rect id="Rectángulo_344390" data-name="Rectángulo 344390" width="12.331" height="8.551" transform="translate(137.444 167.444)" fill="none"/>
    </clipPath>
    <clipPath id="clip-path-12">
      <rect id="Rectángulo_344391" data-name="Rectángulo 344391" width="15.188" height="10.17" transform="translate(108.669 112.851)" fill="none"/>
    </clipPath>
    <clipPath id="clip-path-13">
      <rect id="Rectángulo_344392" data-name="Rectángulo 344392" width="23.863" height="15.262" transform="translate(109.471 122.765)" fill="none"/>
    </clipPath>
    <clipPath id="clip-path-14">
      <rect id="Rectángulo_344393" data-name="Rectángulo 344393" width="89.135" height="52.894" transform="translate(18.281 70.109)" fill="none"/>
    </clipPath>
    <clipPath id="clip-path-15">
      <rect id="Rectángulo_344406" data-name="Rectángulo 344406" width="8.124" height="113.824" transform="translate(157.444 129.564)" fill="none"/>
    </clipPath>
    <clipPath id="clip-path-16">
      <rect id="Rectángulo_344394" data-name="Rectángulo 344394" width="8.124" height="8.427" transform="translate(157.444 129.564)" fill="none"/>
    </clipPath>
    <clipPath id="clip-path-17">
      <rect id="Rectángulo_344395" data-name="Rectángulo 344395" width="8.124" height="8.427" transform="translate(157.444 139.145)" fill="none"/>
    </clipPath>
    <clipPath id="clip-path-18">
      <rect id="Rectángulo_344396" data-name="Rectángulo 344396" width="8.124" height="8.427" transform="translate(157.444 148.727)" fill="none"/>
    </clipPath>
    <clipPath id="clip-path-19">
      <rect id="Rectángulo_344397" data-name="Rectángulo 344397" width="8.124" height="8.427" transform="translate(157.444 158.308)" fill="none"/>
    </clipPath>
    <clipPath id="clip-path-20">
      <rect id="Rectángulo_344398" data-name="Rectángulo 344398" width="8.124" height="8.427" transform="translate(157.444 167.89)" fill="none"/>
    </clipPath>
    <clipPath id="clip-path-21">
      <rect id="Rectángulo_344399" data-name="Rectángulo 344399" width="8.124" height="8.427" transform="translate(157.444 177.471)" fill="none"/>
    </clipPath>
    <clipPath id="clip-path-22">
      <rect id="Rectángulo_344400" data-name="Rectángulo 344400" width="8.124" height="8.427" transform="translate(157.444 187.053)" fill="none"/>
    </clipPath>
    <clipPath id="clip-path-23">
      <rect id="Rectángulo_344401" data-name="Rectángulo 344401" width="8.124" height="8.427" transform="translate(157.444 196.635)" fill="none"/>
    </clipPath>
    <clipPath id="clip-path-24">
      <rect id="Rectángulo_344402" data-name="Rectángulo 344402" width="8.124" height="8.427" transform="translate(157.444 206.216)" fill="none"/>
    </clipPath>
    <clipPath id="clip-path-25">
      <rect id="Rectángulo_344403" data-name="Rectángulo 344403" width="8.124" height="8.427" transform="translate(157.444 215.798)" fill="none"/>
    </clipPath>
    <clipPath id="clip-path-26">
      <rect id="Rectángulo_344404" data-name="Rectángulo 344404" width="8.124" height="8.427" transform="translate(157.444 225.379)" fill="none"/>
    </clipPath>
    <clipPath id="clip-path-27">
      <rect id="Rectángulo_344405" data-name="Rectángulo 344405" width="8.124" height="8.427" transform="translate(157.444 234.961)" fill="none"/>
    </clipPath>
    <clipPath id="clip-path-28">
      <rect id="Rectángulo_344407" data-name="Rectángulo 344407" width="5.158" height="4.399" transform="translate(196.969 169.778)" fill="none"/>
    </clipPath>
    <clipPath id="clip-path-29">
      <rect id="Rectángulo_344408" data-name="Rectángulo 344408" width="5.158" height="4.399" transform="translate(196.969 139.303)" fill="none"/>
    </clipPath>
    <clipPath id="clip-path-30">
      <rect id="Rectángulo_344409" data-name="Rectángulo 344409" width="5.158" height="4.399" transform="translate(192.799 142.977)" fill="none"/>
    </clipPath>
    <clipPath id="clip-path-31">
      <rect id="Rectángulo_344410" data-name="Rectángulo 344410" width="5.158" height="4.4" transform="translate(192.799 149.056)" fill="none"/>
    </clipPath>
    <clipPath id="clip-path-32">
      <rect id="Rectángulo_344411" data-name="Rectángulo 344411" width="5.158" height="4.399" transform="translate(196.969 157.584)" fill="none"/>
    </clipPath>
    <clipPath id="clip-path-33">
      <rect id="Rectángulo_344412" data-name="Rectángulo 344412" width="5.158" height="4.4" transform="translate(192.799 161.263)" fill="none"/>
    </clipPath>
    <clipPath id="clip-path-34">
      <rect id="Rectángulo_344413" data-name="Rectángulo 344413" width="20.31" height="13.149" transform="translate(173.692 125.865)" fill="none"/>
    </clipPath>
    <clipPath id="clip-path-35">
      <rect id="Rectángulo_344414" data-name="Rectángulo 344414" width="20.31" height="13.149" transform="translate(173.692 156.34)" fill="none"/>
    </clipPath>
    <clipPath id="clip-path-36">
      <rect id="Rectángulo_344415" data-name="Rectángulo 344415" width="16.14" height="10.727" transform="translate(173.692 131.96)" fill="none"/>
    </clipPath>
    <clipPath id="clip-path-37">
      <rect id="Rectángulo_344416" data-name="Rectángulo 344416" width="16.14" height="10.727" transform="translate(173.692 138.055)" fill="none"/>
    </clipPath>
    <clipPath id="clip-path-38">
      <rect id="Rectángulo_344417" data-name="Rectángulo 344417" width="20.31" height="13.149" transform="translate(173.692 144.15)" fill="none"/>
    </clipPath>
    <clipPath id="clip-path-39">
      <rect id="Rectángulo_344418" data-name="Rectángulo 344418" width="16.14" height="10.73" transform="translate(173.692 150.245)" fill="none"/>
    </clipPath>
    <clipPath id="clip-path-40">
      <rect id="Rectángulo_344419" data-name="Rectángulo 344419" width="5.158" height="4.399" transform="translate(196.969 188.518)" fill="none"/>
    </clipPath>
    <clipPath id="clip-path-41">
      <rect id="Rectángulo_344420" data-name="Rectángulo 344420" width="5.158" height="4.4" transform="translate(192.799 192.192)" fill="none"/>
    </clipPath>
    <clipPath id="clip-path-42">
      <rect id="Rectángulo_344421" data-name="Rectángulo 344421" width="5.158" height="4.4" transform="translate(192.799 198.271)" fill="none"/>
    </clipPath>
    <clipPath id="clip-path-43">
      <rect id="Rectángulo_344422" data-name="Rectángulo 344422" width="5.158" height="4.399" transform="translate(196.969 206.799)" fill="none"/>
    </clipPath>
    <clipPath id="clip-path-44">
      <rect id="Rectángulo_344423" data-name="Rectángulo 344423" width="20.31" height="13.15" transform="translate(173.692 175.08)" fill="none"/>
    </clipPath>
    <clipPath id="clip-path-45">
      <rect id="Rectángulo_344424" data-name="Rectángulo 344424" width="16.14" height="10.728" transform="translate(173.692 181.175)" fill="none"/>
    </clipPath>
    <clipPath id="clip-path-46">
      <rect id="Rectángulo_344425" data-name="Rectángulo 344425" width="16.14" height="10.728" transform="translate(173.692 187.27)" fill="none"/>
    </clipPath>
    <clipPath id="clip-path-47">
      <rect id="Rectángulo_344426" data-name="Rectángulo 344426" width="20.31" height="13.15" transform="translate(173.692 193.365)" fill="none"/>
    </clipPath>
    <clipPath id="clip-path-48">
      <rect id="Rectángulo_344427" data-name="Rectángulo 344427" width="5.158" height="4.4" transform="translate(192.799 210.514)" fill="none"/>
    </clipPath>
    <clipPath id="clip-path-49">
      <rect id="Rectángulo_344428" data-name="Rectángulo 344428" width="5.158" height="4.399" transform="translate(192.799 216.593)" fill="none"/>
    </clipPath>
    <clipPath id="clip-path-50">
      <rect id="Rectángulo_344429" data-name="Rectángulo 344429" width="16.14" height="10.728" transform="translate(173.692 199.497)" fill="none"/>
    </clipPath>
    <clipPath id="clip-path-51">
      <rect id="Rectángulo_344430" data-name="Rectángulo 344430" width="16.14" height="10.728" transform="translate(173.692 205.592)" fill="none"/>
    </clipPath>
    <clipPath id="clip-path-52">
      <rect id="Rectángulo_344431" data-name="Rectángulo 344431" width="5.158" height="4.4" transform="translate(196.969 237.347)" fill="none"/>
    </clipPath>
    <clipPath id="clip-path-53">
      <rect id="Rectángulo_344432" data-name="Rectángulo 344432" width="20.31" height="13.15" transform="translate(173.692 223.913)" fill="none"/>
    </clipPath>
    <clipPath id="clip-path-54">
      <rect id="Rectángulo_344433" data-name="Rectángulo 344433" width="5.158" height="4.399" transform="translate(192.799 241.062)" fill="none"/>
    </clipPath>
    <clipPath id="clip-path-55">
      <rect id="Rectángulo_344434" data-name="Rectángulo 344434" width="5.158" height="4.399" transform="translate(192.799 247.142)" fill="none"/>
    </clipPath>
    <clipPath id="clip-path-56">
      <rect id="Rectángulo_344435" data-name="Rectángulo 344435" width="16.14" height="10.728" transform="translate(173.692 230.045)" fill="none"/>
    </clipPath>
    <clipPath id="clip-path-57">
      <rect id="Rectángulo_344436" data-name="Rectángulo 344436" width="16.14" height="10.728" transform="translate(173.692 236.14)" fill="none"/>
    </clipPath>
    <clipPath id="clip-path-58">
      <rect id="Rectángulo_344437" data-name="Rectángulo 344437" width="5.158" height="4.4" transform="translate(192.799 222.64)" fill="none"/>
    </clipPath>
    <clipPath id="clip-path-59">
      <rect id="Rectángulo_344438" data-name="Rectángulo 344438" width="5.158" height="4.4" transform="translate(196.969 231.168)" fill="none"/>
    </clipPath>
    <clipPath id="clip-path-60">
      <rect id="Rectángulo_344439" data-name="Rectángulo 344439" width="16.14" height="10.728" transform="translate(173.692 211.639)" fill="none"/>
    </clipPath>
    <clipPath id="clip-path-61">
      <rect id="Rectángulo_344440" data-name="Rectángulo 344440" width="20.31" height="13.15" transform="translate(173.692 217.734)" fill="none"/>
    </clipPath>
    <clipPath id="clip-path-62">
      <rect id="Rectángulo_344441" data-name="Rectángulo 344441" width="5.158" height="4.399" transform="translate(196.969 255.754)" fill="none"/>
    </clipPath>
    <clipPath id="clip-path-63">
      <rect id="Rectángulo_344442" data-name="Rectángulo 344442" width="20.31" height="13.15" transform="translate(173.692 242.32)" fill="none"/>
    </clipPath>
    <clipPath id="clip-path-64">
      <rect id="Rectángulo_59008" data-name="Rectángulo 59008" width="10.449" height="22.52" fill="none"/>
    </clipPath>
    <clipPath id="clip-path-65">
      <rect id="Rectángulo_59009" data-name="Rectángulo 59009" width="16.584" height="25.214" fill="none"/>
    </clipPath>
    <clipPath id="clip-path-66">
      <rect id="Rectángulo_59010" data-name="Rectángulo 59010" width="9.935" height="15.363" fill="none"/>
    </clipPath>
    <clipPath id="clip-path-67">
      <rect id="Rectángulo_59011" data-name="Rectángulo 59011" width="16.07" height="16.605" fill="none"/>
    </clipPath>
    <clipPath id="clip-path-68">
      <rect id="Rectángulo_59017" data-name="Rectángulo 59017" width="139.374" height="180.668" fill="none"/>
    </clipPath>
    <clipPath id="clip-path-70">
      <rect id="Rectángulo_59014" data-name="Rectángulo 59014" width="139.372" height="91.011" transform="translate(0.002 0.001)" fill="none"/>
    </clipPath>
    <clipPath id="clip-path-71">
      <rect id="Rectángulo_59015" data-name="Rectángulo 59015" width="137.691" height="79.725" transform="translate(0.875)" fill="none"/>
    </clipPath>
  </defs>
  <g id="Grupo_985856" data-name="Grupo 985856" transform="translate(13995.232 12200.985)">
    <g id="Grupo_985850" data-name="Grupo 985850" transform="translate(-13925.545 -12193.896)">
      <g id="Grupo_985583" data-name="Grupo 985583" clip-path="url(#clip-path)">
        <g id="Grupo_985582" data-name="Grupo 985582">
          <g id="Grupo_985581" data-name="Grupo 985581" clip-path="url(#clip-path)">
            <g id="Grupo_985400" data-name="Grupo 985400" opacity="0.8">
              <g id="Grupo_985399" data-name="Grupo 985399">
                <g id="Grupo_985398" data-name="Grupo 985398" clip-path="url(#clip-path-3)">
                  <path id="Trazado_658570" data-name="Trazado 658570" d="M.02,4.04a1.224,1.224,0,0,1,.051-.282A.067.067,0,0,1,.081,3.7a1.046,1.046,0,0,1,.071-.274,1.373,1.373,0,0,1,.182-.394.534.534,0,0,1,.1-.163.486.486,0,0,1,.091-.111.967.967,0,0,1,.2-.2l.021-.02a1.5,1.5,0,0,1,.263-.153,2.237,2.237,0,0,1,2.074.265l204.08,117.772a6.83,6.83,0,0,1,3.086,5.342V273.466c0,.009,0,.017,0,.026v.675a2.087,2.087,0,0,1-1.11,1.853l-.131.087c-.051.03-.1.061-.162.091a1.032,1.032,0,0,1-.264.091,1.71,1.71,0,0,1-.394.051,1.972,1.972,0,0,1-1.022-.293l-.081-.047-.007,0-2.941-1.7L3.086,158.223A6.815,6.815,0,0,1,0,152.88V4.426c0-.133.01-.265.02-.386" fill="#455a64"/>
                </g>
              </g>
            </g>
            <path id="Trazado_658571" data-name="Trazado 658571" d="M1.012,2.381a2.238,2.238,0,0,1,2.074.263l204.08,117.773a6.834,6.834,0,0,1,3.086,5.343v10.079l3.937-2.308V123.524a6.8,6.8,0,0,0-3.077-5.333L7.023.418A2.147,2.147,0,0,0,4.786.236C4.23.57,1.67,2.037,1.012,2.381" fill="#27debf"/>
            <path id="Trazado_658572" data-name="Trazado 658572" d="M.007,4.405C.019,2.458,1.392,1.67,3.087,2.648L207.168,120.421a6.814,6.814,0,0,1,3.082,5.339l0,10.083L.007,14.523Z" fill="#27debf"/>
            <g id="Grupo_985403" data-name="Grupo 985403" opacity="0.4">
              <g id="Grupo_985402" data-name="Grupo 985402">
                <g id="Grupo_985401" data-name="Grupo 985401" clip-path="url(#clip-path-4)">
                  <path id="Trazado_658573" data-name="Trazado 658573" d="M3.089,2.647,207.165,120.419a6.344,6.344,0,0,1,2.171,2.288l3.917-2.268a6.157,6.157,0,0,0-2.144-2.251L7.026.416A2.168,2.168,0,0,0,4.786.233C4.233.572,1.674,2.027,1.024,2.376a2.228,2.228,0,0,1,2.065.271" fill="#fff"/>
                </g>
              </g>
            </g>
            <g id="Grupo_985406" data-name="Grupo 985406" opacity="0.15">
              <g id="Grupo_985405" data-name="Grupo 985405">
                <g id="Grupo_985404" data-name="Grupo 985404" clip-path="url(#clip-path-5)">
                  <path id="Trazado_658574" data-name="Trazado 658574" d="M214.193,133.544l0-10.023a6.355,6.355,0,0,0-.938-3.082l-3.927,2.258a6.234,6.234,0,0,1,.921,3.064v10.082Z"/>
                </g>
              </g>
            </g>
            <path id="Trazado_658575" data-name="Trazado 658575" d="M18.575,15.883a4.593,4.593,0,0,1,1.742,3.687c0,1.481-.78,2.231-1.742,1.676a4.593,4.593,0,0,1-1.742-3.687c0-1.481.78-2.232,1.742-1.676" fill="#455a64"/>
            <path id="Trazado_658576" data-name="Trazado 658576" d="M12.3,12.255a4.593,4.593,0,0,1,1.742,3.687c0,1.481-.78,2.232-1.742,1.676a4.593,4.593,0,0,1-1.741-3.687c0-1.481.779-2.231,1.741-1.676" fill="#455a64"/>
            <path id="Trazado_658577" data-name="Trazado 658577" d="M6.034,8.628a4.593,4.593,0,0,1,1.742,3.687c0,1.481-.78,2.232-1.742,1.676A4.593,4.593,0,0,1,4.292,10.3c0-1.481.78-2.231,1.742-1.676" fill="#455a64"/>
            <g id="Grupo_985409" data-name="Grupo 985409" opacity="0.9">
              <g id="Grupo_985408" data-name="Grupo 985408">
                <g id="Grupo_985407" data-name="Grupo 985407" clip-path="url(#clip-path-6)">
                  <path id="Trazado_658578" data-name="Trazado 658578" d="M209.143,276.032l.16-.09,3.25-1.88a3.267,3.267,0,0,0,1.61-2.39,3.4,3.4,0,0,0,.03-.45V133.532l-3.94,2.31v138.32a2.022,2.022,0,0,1-.96,1.75.606.606,0,0,1-.1.07c-.01.01-.01.02-.02.02Z" fill="#37474f"/>
                </g>
              </g>
            </g>
            <path id="Trazado_658579" data-name="Trazado 658579" d="M20.613,43.77a.455.455,0,0,1-.157.393l-2.217,2.029a.1.1,0,0,1-.1.019c-.03-.011-.049-.019-.057-.023a.481.481,0,0,1-.174-.213.741.741,0,0,1-.073-.312v-1.54a1.387,1.387,0,0,1,.046-.425.6.6,0,0,1,.157-.238l1.169-1.073-1.169-2.424a2.239,2.239,0,0,1-.157-.42,1.984,1.984,0,0,1-.046-.476V37.526a.305.305,0,0,1,.073-.226.134.134,0,0,1,.174-.012.5.5,0,0,1,.057.042.431.431,0,0,1,.1.135l2.217,4.587a1.232,1.232,0,0,1,.157.576Z" fill="#27debf"/>
            <path id="Trazado_658580" data-name="Trazado 658580" d="M16.273,47.307a.775.775,0,0,1,.022.168.3.3,0,0,1-.073.227.133.133,0,0,1-.174.012l-.8-.461a.823.823,0,0,1-.337-.368,2.154,2.154,0,0,1-.158-.438l-3.8-16.2a.775.775,0,0,1-.022-.168A.3.3,0,0,1,11,29.852a.134.134,0,0,1,.175-.012l.832.48a.817.817,0,0,1,.326.352,2.3,2.3,0,0,1,.168.453Z" fill="#27debf"/>
            <path id="Trazado_658581" data-name="Trazado 658581" d="M6.624,34.551a.457.457,0,0,1,.157-.394L9,32.128a.108.108,0,0,1,.1-.018.493.493,0,0,1,.056.023.476.476,0,0,1,.175.213.73.73,0,0,1,.072.31V34.2a1.429,1.429,0,0,1-.045.424.614.614,0,0,1-.157.238l-1.17,1.073L9.2,38.357a2.312,2.312,0,0,1,.157.42,2.044,2.044,0,0,1,.045.476v1.541a.308.308,0,0,1-.072.227.134.134,0,0,1-.175.011.426.426,0,0,1-.056-.041.441.441,0,0,1-.1-.136L6.781,36.268a1.228,1.228,0,0,1-.157-.575Z" fill="#27debf"/>
            <path id="Trazado_658582" data-name="Trazado 658582" d="M30.507,51.232a.575.575,0,0,1,.214.262.891.891,0,0,1,.089.382v1.7a.376.376,0,0,1-.089.278.167.167,0,0,1-.214.015l-1.045-.605A.58.58,0,0,1,29.247,53a.911.911,0,0,1-.09-.382v-1.7a.377.377,0,0,1,.09-.278.168.168,0,0,1,.215-.015Z" fill="#27debf"/>
            <path id="Trazado_658583" data-name="Trazado 658583" d="M27.01,49.213a.568.568,0,0,1,.213.262.871.871,0,0,1,.09.381v1.7a.368.368,0,0,1-.09.277.164.164,0,0,1-.213.015l-1.047-.6a.575.575,0,0,1-.213-.262.889.889,0,0,1-.09-.381V48.9a.372.372,0,0,1,.09-.277.164.164,0,0,1,.213-.015Z" fill="#27debf"/>
            <path id="Trazado_658584" data-name="Trazado 658584" d="M23.513,47.194a.57.57,0,0,1,.214.262.884.884,0,0,1,.089.381v1.7a.373.373,0,0,1-.089.278.165.165,0,0,1-.214.015l-1.046-.6a.582.582,0,0,1-.214-.262.9.9,0,0,1-.09-.381v-1.7a.376.376,0,0,1,.09-.277.165.165,0,0,1,.214-.015Z" fill="#27debf"/>
            <path id="Trazado_658585" data-name="Trazado 658585" d="M148.68,126l-43.027-24.888c-.605-.35-1.1-.1-1.1.554a2.35,2.35,0,0,0,1.1,1.819l43.027,24.888c.605.349,1.1.1,1.1-.554a2.348,2.348,0,0,0-1.1-1.819" fill="#27debf"/>
            <path id="Trazado_658586" data-name="Trazado 658586" d="M132.238,144.984,15.265,77.371c-.605-.349-1.1-.1-1.1.554a2.348,2.348,0,0,0,1.1,1.819l116.973,67.613c.6.349,1.095.1,1.095-.554a2.348,2.348,0,0,0-1.095-1.819" fill="#f5f5f5"/>
            <path id="Trazado_658587" data-name="Trazado 658587" d="M132.238,154.476l-16.309-9.453c-.605-.349-1.1-.1-1.1.554a2.348,2.348,0,0,0,1.1,1.819l16.309,9.453c.6.35,1.095.1,1.095-.554a2.348,2.348,0,0,0-1.095-1.819" fill="#f5f5f5"/>
            <path id="Trazado_658588" data-name="Trazado 658588" d="M132.238,163.969l-16.309-9.453c-.605-.349-1.1-.1-1.1.554a2.348,2.348,0,0,0,1.1,1.819l16.309,9.453c.6.349,1.095.1,1.095-.554a2.348,2.348,0,0,0-1.095-1.819" fill="#f5f5f5"/>
            <path id="Trazado_658589" data-name="Trazado 658589" d="M101.407,98.659,7.045,44.1c-.605-.35-1.1-.1-1.1.554a2.351,2.351,0,0,0,1.1,1.819l94.362,54.555c.605.35,1.1.1,1.1-.554a2.348,2.348,0,0,0-1.1-1.819" fill="#27debf"/>
            <path id="Trazado_658590" data-name="Trazado 658590" d="M131.883,220.629l-26.23-15.111c-.605-.349-1.1-.1-1.1.554a2.35,2.35,0,0,0,1.1,1.819L131.883,223c.605.35,1.1.1,1.1-.554a2.348,2.348,0,0,0-1.1-1.819" fill="#27debf"/>
            <path id="Trazado_658591" data-name="Trazado 658591" d="M101.407,203.066,7.045,148.511c-.605-.35-1.1-.1-1.1.554a2.351,2.351,0,0,0,1.1,1.819l94.362,54.555c.605.35,1.1.1,1.1-.554a2.348,2.348,0,0,0-1.1-1.819" fill="#27debf"/>
            <path id="Trazado_658592" data-name="Trazado 658592" d="M101.407,174.64,7.045,120.085c-.605-.35-1.1-.1-1.1.554a2.351,2.351,0,0,0,1.1,1.819l94.362,54.555c.605.35,1.1.1,1.1-.554a2.348,2.348,0,0,0-1.1-1.819" fill="#27debf"/>
            <path id="Trazado_658593" data-name="Trazado 658593" d="M101.407,184.13,7.045,129.575c-.605-.35-1.1-.1-1.1.554a2.351,2.351,0,0,0,1.1,1.819L101.407,186.5c.605.35,1.1.1,1.1-.554a2.348,2.348,0,0,0-1.1-1.819" fill="#27debf"/>
            <path id="Trazado_658594" data-name="Trazado 658594" d="M131.883,211.147l-26.23-15.111c-.605-.349-1.1-.1-1.1.554a2.35,2.35,0,0,0,1.1,1.819l26.23,15.111c.605.35,1.1.1,1.1-.554a2.348,2.348,0,0,0-1.1-1.819" fill="#fff"/>
            <path id="Trazado_658595" data-name="Trazado 658595" d="M110.6,179.965l-3.253-1.925c-.606-.349-1.1-.1-1.1.554a2.345,2.345,0,0,0,1.1,1.819l3.253,1.925c.605.35,1.1.1,1.1-.554a2.348,2.348,0,0,0-1.1-1.819" fill="#27debf"/>
            <path id="Trazado_658596" data-name="Trazado 658596" d="M148.68,135.513l-21.672-12.572c-.605-.349-1.1-.1-1.1.554a2.35,2.35,0,0,0,1.1,1.819l21.672,12.572c.605.349,1.1.1,1.1-.554a2.348,2.348,0,0,0-1.1-1.819" fill="#27debf"/>
            <g id="Grupo_985412" data-name="Grupo 985412" opacity="0.6">
              <g id="Grupo_985411" data-name="Grupo 985411">
                <g id="Grupo_985410" data-name="Grupo 985410" clip-path="url(#clip-path-7)">
                  <path id="Trazado_658597" data-name="Trazado 658597" d="M148.68,135.513l-21.672-12.572c-.605-.349-1.1-.1-1.1.554a2.35,2.35,0,0,0,1.1,1.819l21.672,12.572c.605.349,1.1.1,1.1-.554a2.348,2.348,0,0,0-1.1-1.819" fill="#fff"/>
                </g>
              </g>
            </g>
            <path id="Trazado_658598" data-name="Trazado 658598" d="M148.68,144.988l-10.14-5.861c-.6-.35-1.095-.1-1.095.554a2.348,2.348,0,0,0,1.095,1.819l10.14,5.861c.605.349,1.1.1,1.1-.554a2.348,2.348,0,0,0-1.1-1.819" fill="#27debf"/>
            <g id="Grupo_985415" data-name="Grupo 985415" opacity="0.6">
              <g id="Grupo_985414" data-name="Grupo 985414">
                <g id="Grupo_985413" data-name="Grupo 985413" clip-path="url(#clip-path-8)">
                  <path id="Trazado_658599" data-name="Trazado 658599" d="M148.68,144.988l-10.14-5.861c-.6-.35-1.095-.1-1.095.554a2.348,2.348,0,0,0,1.095,1.819l10.14,5.861c.605.349,1.1.1,1.1-.554a2.348,2.348,0,0,0-1.1-1.819" fill="#fff"/>
                </g>
              </g>
            </g>
            <path id="Trazado_658600" data-name="Trazado 658600" d="M148.68,154.48l-10.14-5.861c-.6-.35-1.095-.1-1.095.554a2.348,2.348,0,0,0,1.095,1.819l10.14,5.861c.605.35,1.1.1,1.1-.554a2.348,2.348,0,0,0-1.1-1.819" fill="#27debf"/>
            <g id="Grupo_985418" data-name="Grupo 985418" opacity="0.6">
              <g id="Grupo_985417" data-name="Grupo 985417">
                <g id="Grupo_985416" data-name="Grupo 985416" clip-path="url(#clip-path-9)">
                  <path id="Trazado_658601" data-name="Trazado 658601" d="M148.68,154.48l-10.14-5.861c-.6-.35-1.095-.1-1.095.554a2.348,2.348,0,0,0,1.095,1.819l10.14,5.861c.605.35,1.1.1,1.1-.554a2.348,2.348,0,0,0-1.1-1.819" fill="#fff"/>
                </g>
              </g>
            </g>
            <path id="Trazado_658602" data-name="Trazado 658602" d="M148.68,163.972l-10.14-5.861c-.6-.35-1.095-.1-1.095.554a2.348,2.348,0,0,0,1.095,1.819l10.14,5.861c.605.349,1.1.1,1.1-.554a2.348,2.348,0,0,0-1.1-1.819" fill="#27debf"/>
            <g id="Grupo_985421" data-name="Grupo 985421" opacity="0.6">
              <g id="Grupo_985420" data-name="Grupo 985420">
                <g id="Grupo_985419" data-name="Grupo 985419" clip-path="url(#clip-path-10)">
                  <path id="Trazado_658603" data-name="Trazado 658603" d="M148.68,163.972l-10.14-5.861c-.6-.35-1.095-.1-1.095.554a2.348,2.348,0,0,0,1.095,1.819l10.14,5.861c.605.349,1.1.1,1.1-.554a2.348,2.348,0,0,0-1.1-1.819" fill="#fff"/>
                </g>
              </g>
            </g>
            <path id="Trazado_658604" data-name="Trazado 658604" d="M148.68,173.464,138.54,167.6c-.6-.35-1.095-.1-1.095.554a2.348,2.348,0,0,0,1.095,1.819l10.14,5.861c.605.349,1.1.1,1.1-.554a2.348,2.348,0,0,0-1.1-1.819" fill="#27debf"/>
            <g id="Grupo_985424" data-name="Grupo 985424" opacity="0.6">
              <g id="Grupo_985423" data-name="Grupo 985423">
                <g id="Grupo_985422" data-name="Grupo 985422" clip-path="url(#clip-path-11)">
                  <path id="Trazado_658605" data-name="Trazado 658605" d="M148.68,173.464,138.54,167.6c-.6-.35-1.095-.1-1.095.554a2.348,2.348,0,0,0,1.095,1.819l10.14,5.861c.605.349,1.1.1,1.1-.554a2.348,2.348,0,0,0-1.1-1.819" fill="#fff"/>
                </g>
              </g>
            </g>
            <path id="Trazado_658606" data-name="Trazado 658606" d="M122.761,120.489l-13-7.48c-.6-.349-1.1-.1-1.1.554a2.35,2.35,0,0,0,1.1,1.819l13,7.48c.606.35,1.1.1,1.1-.554a2.346,2.346,0,0,0-1.1-1.819" fill="#27debf"/>
            <g id="Grupo_985427" data-name="Grupo 985427" opacity="0.6">
              <g id="Grupo_985426" data-name="Grupo 985426">
                <g id="Grupo_985425" data-name="Grupo 985425" clip-path="url(#clip-path-12)">
                  <path id="Trazado_658607" data-name="Trazado 658607" d="M122.761,120.489l-13-7.48c-.6-.349-1.1-.1-1.1.554a2.35,2.35,0,0,0,1.1,1.819l13,7.48c.606.35,1.1.1,1.1-.554a2.346,2.346,0,0,0-1.1-1.819" fill="#fff"/>
                </g>
              </g>
            </g>
            <path id="Trazado_658608" data-name="Trazado 658608" d="M102.663,165.9l-95.618-55.3c-.605-.349-1.1-.1-1.1.554a2.348,2.348,0,0,0,1.1,1.819l95.618,55.3c.6.35,1.1.1,1.1-.554a2.348,2.348,0,0,0-1.1-1.819" fill="#fff"/>
            <path id="Trazado_658609" data-name="Trazado 658609" d="M20.042,108.579l-13-7.48c-.605-.349-1.1-.1-1.1.554a2.348,2.348,0,0,0,1.1,1.819l13,7.48c.6.349,1.095.1,1.095-.554a2.348,2.348,0,0,0-1.095-1.819" fill="#fff"/>
            <path id="Trazado_658610" data-name="Trazado 658610" d="M119.907,166.328l-95.618-55.3c-.6-.349-1.1-.1-1.1.554a2.348,2.348,0,0,0,1.1,1.819l95.618,55.3c.605.35,1.1.1,1.1-.554a2.348,2.348,0,0,0-1.1-1.819" fill="#fff"/>
            <path id="Trazado_658611" data-name="Trazado 658611" d="M132.239,135.5l-21.672-12.572c-.605-.349-1.1-.1-1.1.554a2.35,2.35,0,0,0,1.1,1.819l21.672,12.572c.6.349,1.1.1,1.1-.554a2.348,2.348,0,0,0-1.1-1.819" fill="#27debf"/>
            <g id="Grupo_985430" data-name="Grupo 985430" opacity="0.6">
              <g id="Grupo_985429" data-name="Grupo 985429">
                <g id="Grupo_985428" data-name="Grupo 985428" clip-path="url(#clip-path-13)">
                  <path id="Trazado_658612" data-name="Trazado 658612" d="M132.239,135.5l-21.672-12.572c-.605-.349-1.1-.1-1.1.554a2.35,2.35,0,0,0,1.1,1.819l21.672,12.572c.6.349,1.1.1,1.1-.554a2.348,2.348,0,0,0-1.1-1.819" fill="#fff"/>
                </g>
              </g>
            </g>
            <path id="Trazado_658613" data-name="Trazado 658613" d="M106.32,120.472,19.376,70.267c-.6-.349-1.095-.1-1.095.554a2.347,2.347,0,0,0,1.095,1.819l86.944,50.205c.605.35,1.1.1,1.1-.554a2.348,2.348,0,0,0-1.1-1.819" fill="#27debf"/>
            <g id="Grupo_985433" data-name="Grupo 985433" opacity="0.6">
              <g id="Grupo_985432" data-name="Grupo 985432">
                <g id="Grupo_985431" data-name="Grupo 985431" clip-path="url(#clip-path-14)">
                  <path id="Trazado_658614" data-name="Trazado 658614" d="M106.32,120.472,19.376,70.267c-.6-.349-1.095-.1-1.095.554a2.347,2.347,0,0,0,1.095,1.819l86.944,50.205c.605.35,1.1.1,1.1-.554a2.348,2.348,0,0,0-1.1-1.819" fill="#fff"/>
                </g>
              </g>
            </g>
            <g id="Grupo_985472" data-name="Grupo 985472" opacity="0.6">
              <g id="Grupo_985471" data-name="Grupo 985471">
                <g id="Grupo_985470" data-name="Grupo 985470" clip-path="url(#clip-path-15)">
                  <g id="Grupo_985436" data-name="Grupo 985436">
                    <g id="Grupo_985435" data-name="Grupo 985435">
                      <g id="Grupo_985434" data-name="Grupo 985434" clip-path="url(#clip-path-16)">
                        <path id="Trazado_658615" data-name="Trazado 658615" d="M164.486,133.152l-5.96-3.441c-.6-.345-1.082-.065-1.082.625v2.191a2.392,2.392,0,0,0,1.082,1.875l5.959,3.44c.6.346,1.083.066,1.083-.625v-2.19a2.392,2.392,0,0,0-1.082-1.875" fill="#fff"/>
                      </g>
                    </g>
                  </g>
                  <g id="Grupo_985439" data-name="Grupo 985439">
                    <g id="Grupo_985438" data-name="Grupo 985438">
                      <g id="Grupo_985437" data-name="Grupo 985437" clip-path="url(#clip-path-17)">
                        <path id="Trazado_658616" data-name="Trazado 658616" d="M164.486,142.734l-5.96-3.441c-.6-.345-1.082-.065-1.082.625v2.191a2.392,2.392,0,0,0,1.082,1.875l5.959,3.44c.6.346,1.083.066,1.083-.625v-2.19a2.392,2.392,0,0,0-1.082-1.875" fill="#fff"/>
                      </g>
                    </g>
                  </g>
                  <g id="Grupo_985442" data-name="Grupo 985442">
                    <g id="Grupo_985441" data-name="Grupo 985441">
                      <g id="Grupo_985440" data-name="Grupo 985440" clip-path="url(#clip-path-18)">
                        <path id="Trazado_658617" data-name="Trazado 658617" d="M164.486,152.315l-5.96-3.441c-.6-.345-1.082-.065-1.082.625v2.191a2.392,2.392,0,0,0,1.082,1.875l5.959,3.44c.6.346,1.083.066,1.083-.625v-2.19a2.392,2.392,0,0,0-1.082-1.875" fill="#fff"/>
                      </g>
                    </g>
                  </g>
                  <g id="Grupo_985445" data-name="Grupo 985445">
                    <g id="Grupo_985444" data-name="Grupo 985444">
                      <g id="Grupo_985443" data-name="Grupo 985443" clip-path="url(#clip-path-19)">
                        <path id="Trazado_658618" data-name="Trazado 658618" d="M164.486,161.9l-5.96-3.441c-.6-.345-1.082-.065-1.082.625v2.191a2.392,2.392,0,0,0,1.082,1.875l5.959,3.44c.6.346,1.083.066,1.083-.625v-2.19a2.392,2.392,0,0,0-1.082-1.875" fill="#fff"/>
                      </g>
                    </g>
                  </g>
                  <g id="Grupo_985448" data-name="Grupo 985448">
                    <g id="Grupo_985447" data-name="Grupo 985447">
                      <g id="Grupo_985446" data-name="Grupo 985446" clip-path="url(#clip-path-20)">
                        <path id="Trazado_658619" data-name="Trazado 658619" d="M164.486,171.479l-5.96-3.442c-.6-.345-1.082-.064-1.082.625v2.192a2.394,2.394,0,0,0,1.082,1.875l5.959,3.44c.6.346,1.083.065,1.083-.625v-2.19a2.391,2.391,0,0,0-1.082-1.875" fill="#fff"/>
                      </g>
                    </g>
                  </g>
                  <g id="Grupo_985451" data-name="Grupo 985451">
                    <g id="Grupo_985450" data-name="Grupo 985450">
                      <g id="Grupo_985449" data-name="Grupo 985449" clip-path="url(#clip-path-21)">
                        <path id="Trazado_658620" data-name="Trazado 658620" d="M164.486,181.06l-5.96-3.441c-.6-.345-1.082-.065-1.082.625v2.191a2.392,2.392,0,0,0,1.082,1.875l5.959,3.441c.6.345,1.083.065,1.083-.625v-2.191a2.392,2.392,0,0,0-1.082-1.875" fill="#fff"/>
                      </g>
                    </g>
                  </g>
                  <g id="Grupo_985454" data-name="Grupo 985454">
                    <g id="Grupo_985453" data-name="Grupo 985453">
                      <g id="Grupo_985452" data-name="Grupo 985452" clip-path="url(#clip-path-22)">
                        <path id="Trazado_658621" data-name="Trazado 658621" d="M164.486,190.642l-5.96-3.441c-.6-.345-1.082-.065-1.082.625v2.191a2.392,2.392,0,0,0,1.082,1.875l5.959,3.441c.6.345,1.083.065,1.083-.625v-2.191a2.392,2.392,0,0,0-1.082-1.875" fill="#fff"/>
                      </g>
                    </g>
                  </g>
                  <g id="Grupo_985457" data-name="Grupo 985457">
                    <g id="Grupo_985456" data-name="Grupo 985456">
                      <g id="Grupo_985455" data-name="Grupo 985455" clip-path="url(#clip-path-23)">
                        <path id="Trazado_658622" data-name="Trazado 658622" d="M164.486,200.223l-5.96-3.441c-.6-.345-1.082-.065-1.082.625V199.6a2.392,2.392,0,0,0,1.082,1.875l5.959,3.44c.6.346,1.083.066,1.083-.625V202.1a2.392,2.392,0,0,0-1.082-1.875" fill="#fff"/>
                      </g>
                    </g>
                  </g>
                  <g id="Grupo_985460" data-name="Grupo 985460">
                    <g id="Grupo_985459" data-name="Grupo 985459">
                      <g id="Grupo_985458" data-name="Grupo 985458" clip-path="url(#clip-path-24)">
                        <path id="Trazado_658623" data-name="Trazado 658623" d="M164.486,209.8l-5.96-3.441c-.6-.345-1.082-.065-1.082.625v2.191a2.392,2.392,0,0,0,1.082,1.875l5.959,3.44c.6.346,1.083.066,1.083-.625v-2.19a2.392,2.392,0,0,0-1.082-1.875" fill="#fff"/>
                      </g>
                    </g>
                  </g>
                  <g id="Grupo_985463" data-name="Grupo 985463">
                    <g id="Grupo_985462" data-name="Grupo 985462">
                      <g id="Grupo_985461" data-name="Grupo 985461" clip-path="url(#clip-path-25)">
                        <path id="Trazado_658624" data-name="Trazado 658624" d="M164.486,219.387l-5.96-3.441c-.6-.345-1.082-.065-1.082.625v2.191a2.392,2.392,0,0,0,1.082,1.875l5.959,3.44c.6.346,1.083.066,1.083-.625v-2.19a2.392,2.392,0,0,0-1.082-1.875" fill="#fff"/>
                      </g>
                    </g>
                  </g>
                  <g id="Grupo_985466" data-name="Grupo 985466">
                    <g id="Grupo_985465" data-name="Grupo 985465">
                      <g id="Grupo_985464" data-name="Grupo 985464" clip-path="url(#clip-path-26)">
                        <path id="Trazado_658625" data-name="Trazado 658625" d="M164.486,228.968l-5.96-3.441c-.6-.345-1.082-.065-1.082.625v2.191a2.392,2.392,0,0,0,1.082,1.875l5.959,3.44c.6.346,1.083.066,1.083-.625v-2.19a2.392,2.392,0,0,0-1.082-1.875" fill="#fff"/>
                      </g>
                    </g>
                  </g>
                  <g id="Grupo_985469" data-name="Grupo 985469">
                    <g id="Grupo_985468" data-name="Grupo 985468">
                      <g id="Grupo_985467" data-name="Grupo 985467" clip-path="url(#clip-path-27)">
                        <path id="Trazado_658626" data-name="Trazado 658626" d="M164.486,238.55l-5.96-3.441c-.6-.345-1.082-.065-1.082.625v2.191a2.392,2.392,0,0,0,1.082,1.875l5.959,3.441c.6.345,1.083.065,1.083-.625v-2.191a2.392,2.392,0,0,0-1.082-1.875" fill="#fff"/>
                      </g>
                    </g>
                  </g>
                </g>
              </g>
            </g>
            <path id="Trazado_658627" data-name="Trazado 658627" d="M204.023,138.212l-32.228-18.607c-1.2-.69-2.165-.132-2.165,1.25v37.214a4.784,4.784,0,0,0,2.165,3.75l32.228,18.6c1.2.692,2.165.132,2.165-1.25V141.962a4.784,4.784,0,0,0-2.165-3.75" fill="#455a64"/>
            <path id="Trazado_658628" data-name="Trazado 658628" d="M201.031,171.646l-2.967-1.71c-.6-.349-1.1-.1-1.1.554a2.347,2.347,0,0,0,1.1,1.819l2.967,1.71c.6.349,1.1.1,1.1-.554a2.348,2.348,0,0,0-1.1-1.819" fill="#27debf"/>
            <g id="Grupo_985475" data-name="Grupo 985475" opacity="0.6">
              <g id="Grupo_985474" data-name="Grupo 985474">
                <g id="Grupo_985473" data-name="Grupo 985473" clip-path="url(#clip-path-28)">
                  <path id="Trazado_658629" data-name="Trazado 658629" d="M201.031,171.646l-2.967-1.71c-.6-.349-1.1-.1-1.1.554a2.347,2.347,0,0,0,1.1,1.819l2.967,1.71c.6.349,1.1.1,1.1-.554a2.348,2.348,0,0,0-1.1-1.819" fill="#fff"/>
                </g>
              </g>
            </g>
            <path id="Trazado_658630" data-name="Trazado 658630" d="M201.031,141.171l-2.967-1.71c-.6-.349-1.1-.1-1.1.554a2.347,2.347,0,0,0,1.1,1.819l2.967,1.71c.6.349,1.1.1,1.1-.554a2.348,2.348,0,0,0-1.1-1.819" fill="#27debf"/>
            <g id="Grupo_985478" data-name="Grupo 985478" opacity="0.6">
              <g id="Grupo_985477" data-name="Grupo 985477">
                <g id="Grupo_985476" data-name="Grupo 985476" clip-path="url(#clip-path-29)">
                  <path id="Trazado_658631" data-name="Trazado 658631" d="M201.031,141.171l-2.967-1.71c-.6-.349-1.1-.1-1.1.554a2.347,2.347,0,0,0,1.1,1.819l2.967,1.71c.6.349,1.1.1,1.1-.554a2.348,2.348,0,0,0-1.1-1.819" fill="#fff"/>
                </g>
              </g>
            </g>
            <path id="Trazado_658632" data-name="Trazado 658632" d="M196.861,144.845l-2.967-1.71c-.6-.349-1.1-.1-1.1.554a2.347,2.347,0,0,0,1.1,1.819l2.967,1.71c.605.349,1.1.1,1.1-.554a2.348,2.348,0,0,0-1.1-1.819" fill="#27debf"/>
            <g id="Grupo_985481" data-name="Grupo 985481" opacity="0.6">
              <g id="Grupo_985480" data-name="Grupo 985480">
                <g id="Grupo_985479" data-name="Grupo 985479" clip-path="url(#clip-path-30)">
                  <path id="Trazado_658633" data-name="Trazado 658633" d="M196.861,144.845l-2.967-1.71c-.6-.349-1.1-.1-1.1.554a2.347,2.347,0,0,0,1.1,1.819l2.967,1.71c.605.349,1.1.1,1.1-.554a2.348,2.348,0,0,0-1.1-1.819" fill="#fff"/>
                </g>
              </g>
            </g>
            <path id="Trazado_658634" data-name="Trazado 658634" d="M196.861,150.924l-2.967-1.71c-.6-.349-1.1-.1-1.1.554a2.347,2.347,0,0,0,1.1,1.819l2.967,1.71c.605.349,1.1.1,1.1-.554a2.348,2.348,0,0,0-1.1-1.819" fill="#27debf"/>
            <g id="Grupo_985484" data-name="Grupo 985484" opacity="0.6">
              <g id="Grupo_985483" data-name="Grupo 985483">
                <g id="Grupo_985482" data-name="Grupo 985482" clip-path="url(#clip-path-31)">
                  <path id="Trazado_658635" data-name="Trazado 658635" d="M196.861,150.924l-2.967-1.71c-.6-.349-1.1-.1-1.1.554a2.347,2.347,0,0,0,1.1,1.819l2.967,1.71c.605.349,1.1.1,1.1-.554a2.348,2.348,0,0,0-1.1-1.819" fill="#fff"/>
                </g>
              </g>
            </g>
            <path id="Trazado_658636" data-name="Trazado 658636" d="M201.031,159.451l-2.967-1.709c-.6-.349-1.1-.1-1.1.554a2.348,2.348,0,0,0,1.1,1.819l2.967,1.71c.6.349,1.1.1,1.1-.554a2.35,2.35,0,0,0-1.1-1.82" fill="#27debf"/>
            <g id="Grupo_985487" data-name="Grupo 985487" opacity="0.6">
              <g id="Grupo_985486" data-name="Grupo 985486">
                <g id="Grupo_985485" data-name="Grupo 985485" clip-path="url(#clip-path-32)">
                  <path id="Trazado_658637" data-name="Trazado 658637" d="M201.031,159.451l-2.967-1.709c-.6-.349-1.1-.1-1.1.554a2.348,2.348,0,0,0,1.1,1.819l2.967,1.71c.6.349,1.1.1,1.1-.554a2.35,2.35,0,0,0-1.1-1.82" fill="#fff"/>
                </g>
              </g>
            </g>
            <path id="Trazado_658638" data-name="Trazado 658638" d="M196.861,163.131l-2.967-1.71c-.6-.349-1.1-.1-1.1.554a2.347,2.347,0,0,0,1.1,1.819l2.967,1.71c.605.349,1.1.1,1.1-.554a2.348,2.348,0,0,0-1.1-1.819" fill="#27debf"/>
            <g id="Grupo_985490" data-name="Grupo 985490" opacity="0.6">
              <g id="Grupo_985489" data-name="Grupo 985489">
                <g id="Grupo_985488" data-name="Grupo 985488" clip-path="url(#clip-path-33)">
                  <path id="Trazado_658639" data-name="Trazado 658639" d="M196.861,163.131l-2.967-1.71c-.6-.349-1.1-.1-1.1.554a2.347,2.347,0,0,0,1.1,1.819l2.967,1.71c.605.349,1.1.1,1.1-.554a2.348,2.348,0,0,0-1.1-1.819" fill="#fff"/>
                </g>
              </g>
            </g>
            <path id="Trazado_658640" data-name="Trazado 658640" d="M192.907,136.483l-18.119-10.46c-.6-.35-1.1-.1-1.1.554a2.35,2.35,0,0,0,1.1,1.819l18.119,10.46c.6.349,1.1.1,1.1-.554a2.348,2.348,0,0,0-1.1-1.819" fill="#27debf"/>
            <g id="Grupo_985493" data-name="Grupo 985493" opacity="0.8">
              <g id="Grupo_985492" data-name="Grupo 985492">
                <g id="Grupo_985491" data-name="Grupo 985491" clip-path="url(#clip-path-34)">
                  <path id="Trazado_658641" data-name="Trazado 658641" d="M192.907,136.483l-18.119-10.46c-.6-.35-1.1-.1-1.1.554a2.35,2.35,0,0,0,1.1,1.819l18.119,10.46c.6.349,1.1.1,1.1-.554a2.348,2.348,0,0,0-1.1-1.819" fill="#fff"/>
                </g>
              </g>
            </g>
            <path id="Trazado_658642" data-name="Trazado 658642" d="M192.907,166.958,174.788,156.5c-.6-.35-1.1-.1-1.1.554a2.35,2.35,0,0,0,1.1,1.819l18.119,10.46c.6.349,1.1.1,1.1-.554a2.348,2.348,0,0,0-1.1-1.819" fill="#27debf"/>
            <g id="Grupo_985496" data-name="Grupo 985496" opacity="0.8">
              <g id="Grupo_985495" data-name="Grupo 985495">
                <g id="Grupo_985494" data-name="Grupo 985494" clip-path="url(#clip-path-35)">
                  <path id="Trazado_658643" data-name="Trazado 658643" d="M192.907,166.958,174.788,156.5c-.6-.35-1.1-.1-1.1.554a2.35,2.35,0,0,0,1.1,1.819l18.119,10.46c.6.349,1.1.1,1.1-.554a2.348,2.348,0,0,0-1.1-1.819" fill="#fff"/>
                </g>
              </g>
            </g>
            <path id="Trazado_658644" data-name="Trazado 658644" d="M188.737,140.156l-13.949-8.038c-.6-.349-1.1-.1-1.1.554a2.35,2.35,0,0,0,1.1,1.819l13.949,8.038c.6.349,1.1.1,1.1-.554a2.348,2.348,0,0,0-1.1-1.819" fill="#27debf"/>
            <g id="Grupo_985499" data-name="Grupo 985499" opacity="0.8">
              <g id="Grupo_985498" data-name="Grupo 985498">
                <g id="Grupo_985497" data-name="Grupo 985497" clip-path="url(#clip-path-36)">
                  <path id="Trazado_658645" data-name="Trazado 658645" d="M188.737,140.156l-13.949-8.038c-.6-.349-1.1-.1-1.1.554a2.35,2.35,0,0,0,1.1,1.819l13.949,8.038c.6.349,1.1.1,1.1-.554a2.348,2.348,0,0,0-1.1-1.819" fill="#fff"/>
                </g>
              </g>
            </g>
            <path id="Trazado_658646" data-name="Trazado 658646" d="M188.737,146.251l-13.949-8.038c-.6-.349-1.1-.1-1.1.554a2.35,2.35,0,0,0,1.1,1.819l13.949,8.038c.6.349,1.1.1,1.1-.554a2.348,2.348,0,0,0-1.1-1.819" fill="#27debf"/>
            <g id="Grupo_985502" data-name="Grupo 985502" opacity="0.8">
              <g id="Grupo_985501" data-name="Grupo 985501">
                <g id="Grupo_985500" data-name="Grupo 985500" clip-path="url(#clip-path-37)">
                  <path id="Trazado_658647" data-name="Trazado 658647" d="M188.737,146.251l-13.949-8.038c-.6-.349-1.1-.1-1.1.554a2.35,2.35,0,0,0,1.1,1.819l13.949,8.038c.6.349,1.1.1,1.1-.554a2.348,2.348,0,0,0-1.1-1.819" fill="#fff"/>
                </g>
              </g>
            </g>
            <path id="Trazado_658648" data-name="Trazado 658648" d="M192.907,154.768l-18.119-10.46c-.6-.35-1.1-.1-1.1.554a2.35,2.35,0,0,0,1.1,1.819l18.119,10.46c.6.349,1.1.1,1.1-.554a2.348,2.348,0,0,0-1.1-1.819" fill="#27debf"/>
            <g id="Grupo_985505" data-name="Grupo 985505" opacity="0.8">
              <g id="Grupo_985504" data-name="Grupo 985504">
                <g id="Grupo_985503" data-name="Grupo 985503" clip-path="url(#clip-path-38)">
                  <path id="Trazado_658649" data-name="Trazado 658649" d="M192.907,154.768l-18.119-10.46c-.6-.35-1.1-.1-1.1.554a2.35,2.35,0,0,0,1.1,1.819l18.119,10.46c.6.349,1.1.1,1.1-.554a2.348,2.348,0,0,0-1.1-1.819" fill="#fff"/>
                </g>
              </g>
            </g>
            <path id="Trazado_658650" data-name="Trazado 658650" d="M188.737,158.443l-13.949-8.04c-.6-.35-1.1-.1-1.1.554a2.351,2.351,0,0,0,1.1,1.819l13.949,8.04c.6.349,1.1.1,1.1-.554a2.348,2.348,0,0,0-1.1-1.819" fill="#27debf"/>
            <g id="Grupo_985508" data-name="Grupo 985508" opacity="0.8">
              <g id="Grupo_985507" data-name="Grupo 985507">
                <g id="Grupo_985506" data-name="Grupo 985506" clip-path="url(#clip-path-39)">
                  <path id="Trazado_658651" data-name="Trazado 658651" d="M188.737,158.443l-13.949-8.04c-.6-.35-1.1-.1-1.1.554a2.351,2.351,0,0,0,1.1,1.819l13.949,8.04c.6.349,1.1.1,1.1-.554a2.348,2.348,0,0,0-1.1-1.819" fill="#fff"/>
                </g>
              </g>
            </g>
            <path id="Trazado_658652" data-name="Trazado 658652" d="M204.023,187.427,171.795,168.82c-1.2-.69-2.165-.131-2.165,1.25V243.6a4.784,4.784,0,0,0,2.165,3.75l32.228,18.606c1.2.691,2.165.131,2.165-1.25V191.177a4.784,4.784,0,0,0-2.165-3.75" fill="#455a64"/>
            <path id="Trazado_658653" data-name="Trazado 658653" d="M201.031,190.386l-2.967-1.71c-.6-.349-1.1-.1-1.1.554a2.347,2.347,0,0,0,1.1,1.819l2.967,1.71c.6.349,1.1.1,1.1-.554a2.348,2.348,0,0,0-1.1-1.819" fill="#27debf"/>
            <g id="Grupo_985511" data-name="Grupo 985511" opacity="0.6">
              <g id="Grupo_985510" data-name="Grupo 985510">
                <g id="Grupo_985509" data-name="Grupo 985509" clip-path="url(#clip-path-40)">
                  <path id="Trazado_658654" data-name="Trazado 658654" d="M201.031,190.386l-2.967-1.71c-.6-.349-1.1-.1-1.1.554a2.347,2.347,0,0,0,1.1,1.819l2.967,1.71c.6.349,1.1.1,1.1-.554a2.348,2.348,0,0,0-1.1-1.819" fill="#fff"/>
                </g>
              </g>
            </g>
            <path id="Trazado_658655" data-name="Trazado 658655" d="M196.861,194.06l-2.967-1.71c-.6-.349-1.1-.1-1.1.554a2.347,2.347,0,0,0,1.1,1.819l2.967,1.71c.605.349,1.1.1,1.1-.554a2.348,2.348,0,0,0-1.1-1.819" fill="#27debf"/>
            <g id="Grupo_985514" data-name="Grupo 985514" opacity="0.6">
              <g id="Grupo_985513" data-name="Grupo 985513">
                <g id="Grupo_985512" data-name="Grupo 985512" clip-path="url(#clip-path-41)">
                  <path id="Trazado_658656" data-name="Trazado 658656" d="M196.861,194.06l-2.967-1.71c-.6-.349-1.1-.1-1.1.554a2.347,2.347,0,0,0,1.1,1.819l2.967,1.71c.605.349,1.1.1,1.1-.554a2.348,2.348,0,0,0-1.1-1.819" fill="#fff"/>
                </g>
              </g>
            </g>
            <path id="Trazado_658657" data-name="Trazado 658657" d="M196.861,200.14l-2.967-1.71c-.6-.349-1.1-.1-1.1.554a2.347,2.347,0,0,0,1.1,1.819l2.967,1.71c.605.349,1.1.1,1.1-.554a2.348,2.348,0,0,0-1.1-1.819" fill="#27debf"/>
            <g id="Grupo_985517" data-name="Grupo 985517" opacity="0.6">
              <g id="Grupo_985516" data-name="Grupo 985516">
                <g id="Grupo_985515" data-name="Grupo 985515" clip-path="url(#clip-path-42)">
                  <path id="Trazado_658658" data-name="Trazado 658658" d="M196.861,200.14l-2.967-1.71c-.6-.349-1.1-.1-1.1.554a2.347,2.347,0,0,0,1.1,1.819l2.967,1.71c.605.349,1.1.1,1.1-.554a2.348,2.348,0,0,0-1.1-1.819" fill="#fff"/>
                </g>
              </g>
            </g>
            <path id="Trazado_658659" data-name="Trazado 658659" d="M201.031,208.667l-2.967-1.71c-.6-.349-1.1-.1-1.1.554a2.347,2.347,0,0,0,1.1,1.819l2.967,1.71c.6.349,1.1.1,1.1-.554a2.348,2.348,0,0,0-1.1-1.819" fill="#27debf"/>
            <g id="Grupo_985520" data-name="Grupo 985520" opacity="0.6">
              <g id="Grupo_985519" data-name="Grupo 985519">
                <g id="Grupo_985518" data-name="Grupo 985518" clip-path="url(#clip-path-43)">
                  <path id="Trazado_658660" data-name="Trazado 658660" d="M201.031,208.667l-2.967-1.71c-.6-.349-1.1-.1-1.1.554a2.347,2.347,0,0,0,1.1,1.819l2.967,1.71c.6.349,1.1.1,1.1-.554a2.348,2.348,0,0,0-1.1-1.819" fill="#fff"/>
                </g>
              </g>
            </g>
            <path id="Trazado_658661" data-name="Trazado 658661" d="M192.907,185.7l-18.119-10.46c-.6-.35-1.1-.1-1.1.554a2.35,2.35,0,0,0,1.1,1.819l18.119,10.46c.6.349,1.1.1,1.1-.554a2.348,2.348,0,0,0-1.1-1.819" fill="#27debf"/>
            <g id="Grupo_985523" data-name="Grupo 985523" opacity="0.8">
              <g id="Grupo_985522" data-name="Grupo 985522">
                <g id="Grupo_985521" data-name="Grupo 985521" clip-path="url(#clip-path-44)">
                  <path id="Trazado_658662" data-name="Trazado 658662" d="M192.907,185.7l-18.119-10.46c-.6-.35-1.1-.1-1.1.554a2.35,2.35,0,0,0,1.1,1.819l18.119,10.46c.6.349,1.1.1,1.1-.554a2.348,2.348,0,0,0-1.1-1.819" fill="#fff"/>
                </g>
              </g>
            </g>
            <path id="Trazado_658663" data-name="Trazado 658663" d="M188.737,189.371l-13.949-8.038c-.6-.349-1.1-.1-1.1.554a2.35,2.35,0,0,0,1.1,1.819l13.949,8.038c.6.349,1.1.1,1.1-.554a2.348,2.348,0,0,0-1.1-1.819" fill="#27debf"/>
            <g id="Grupo_985526" data-name="Grupo 985526" opacity="0.8">
              <g id="Grupo_985525" data-name="Grupo 985525">
                <g id="Grupo_985524" data-name="Grupo 985524" clip-path="url(#clip-path-45)">
                  <path id="Trazado_658664" data-name="Trazado 658664" d="M188.737,189.371l-13.949-8.038c-.6-.349-1.1-.1-1.1.554a2.35,2.35,0,0,0,1.1,1.819l13.949,8.038c.6.349,1.1.1,1.1-.554a2.348,2.348,0,0,0-1.1-1.819" fill="#fff"/>
                </g>
              </g>
            </g>
            <path id="Trazado_658665" data-name="Trazado 658665" d="M188.737,195.466l-13.949-8.038c-.6-.349-1.1-.1-1.1.554a2.35,2.35,0,0,0,1.1,1.819l13.949,8.038c.6.349,1.1.1,1.1-.554a2.348,2.348,0,0,0-1.1-1.819" fill="#27debf"/>
            <g id="Grupo_985529" data-name="Grupo 985529" opacity="0.8">
              <g id="Grupo_985528" data-name="Grupo 985528">
                <g id="Grupo_985527" data-name="Grupo 985527" clip-path="url(#clip-path-46)">
                  <path id="Trazado_658666" data-name="Trazado 658666" d="M188.737,195.466l-13.949-8.038c-.6-.349-1.1-.1-1.1.554a2.35,2.35,0,0,0,1.1,1.819l13.949,8.038c.6.349,1.1.1,1.1-.554a2.348,2.348,0,0,0-1.1-1.819" fill="#fff"/>
                </g>
              </g>
            </g>
            <path id="Trazado_658667" data-name="Trazado 658667" d="M192.907,203.983l-18.119-10.46c-.6-.35-1.1-.1-1.1.554a2.35,2.35,0,0,0,1.1,1.819l18.119,10.46c.6.349,1.1.1,1.1-.554a2.348,2.348,0,0,0-1.1-1.819" fill="#27debf"/>
            <g id="Grupo_985532" data-name="Grupo 985532" opacity="0.8">
              <g id="Grupo_985531" data-name="Grupo 985531">
                <g id="Grupo_985530" data-name="Grupo 985530" clip-path="url(#clip-path-47)">
                  <path id="Trazado_658668" data-name="Trazado 658668" d="M192.907,203.983l-18.119-10.46c-.6-.35-1.1-.1-1.1.554a2.35,2.35,0,0,0,1.1,1.819l18.119,10.46c.6.349,1.1.1,1.1-.554a2.348,2.348,0,0,0-1.1-1.819" fill="#fff"/>
                </g>
              </g>
            </g>
            <path id="Trazado_658669" data-name="Trazado 658669" d="M196.861,212.382l-2.967-1.71c-.6-.349-1.1-.1-1.1.554a2.347,2.347,0,0,0,1.1,1.819l2.967,1.71c.605.349,1.1.1,1.1-.554a2.348,2.348,0,0,0-1.1-1.819" fill="#27debf"/>
            <g id="Grupo_985535" data-name="Grupo 985535" opacity="0.6">
              <g id="Grupo_985534" data-name="Grupo 985534">
                <g id="Grupo_985533" data-name="Grupo 985533" clip-path="url(#clip-path-48)">
                  <path id="Trazado_658670" data-name="Trazado 658670" d="M196.861,212.382l-2.967-1.71c-.6-.349-1.1-.1-1.1.554a2.347,2.347,0,0,0,1.1,1.819l2.967,1.71c.605.349,1.1.1,1.1-.554a2.348,2.348,0,0,0-1.1-1.819" fill="#fff"/>
                </g>
              </g>
            </g>
            <path id="Trazado_658671" data-name="Trazado 658671" d="M196.861,218.461l-2.967-1.71c-.6-.349-1.1-.1-1.1.554a2.347,2.347,0,0,0,1.1,1.819l2.967,1.71c.605.349,1.1.1,1.1-.554a2.348,2.348,0,0,0-1.1-1.819" fill="#27debf"/>
            <g id="Grupo_985538" data-name="Grupo 985538" opacity="0.6">
              <g id="Grupo_985537" data-name="Grupo 985537">
                <g id="Grupo_985536" data-name="Grupo 985536" clip-path="url(#clip-path-49)">
                  <path id="Trazado_658672" data-name="Trazado 658672" d="M196.861,218.461l-2.967-1.71c-.6-.349-1.1-.1-1.1.554a2.347,2.347,0,0,0,1.1,1.819l2.967,1.71c.605.349,1.1.1,1.1-.554a2.348,2.348,0,0,0-1.1-1.819" fill="#fff"/>
                </g>
              </g>
            </g>
            <path id="Trazado_658673" data-name="Trazado 658673" d="M188.737,207.693l-13.949-8.038c-.6-.349-1.1-.1-1.1.554a2.35,2.35,0,0,0,1.1,1.819l13.949,8.038c.6.349,1.1.1,1.1-.554a2.348,2.348,0,0,0-1.1-1.819" fill="#27debf"/>
            <g id="Grupo_985541" data-name="Grupo 985541" opacity="0.8">
              <g id="Grupo_985540" data-name="Grupo 985540">
                <g id="Grupo_985539" data-name="Grupo 985539" clip-path="url(#clip-path-50)">
                  <path id="Trazado_658674" data-name="Trazado 658674" d="M188.737,207.693l-13.949-8.038c-.6-.349-1.1-.1-1.1.554a2.35,2.35,0,0,0,1.1,1.819l13.949,8.038c.6.349,1.1.1,1.1-.554a2.348,2.348,0,0,0-1.1-1.819" fill="#fff"/>
                </g>
              </g>
            </g>
            <path id="Trazado_658675" data-name="Trazado 658675" d="M188.737,213.788l-13.949-8.038c-.6-.349-1.1-.1-1.1.554a2.35,2.35,0,0,0,1.1,1.819l13.949,8.038c.6.349,1.1.1,1.1-.554a2.348,2.348,0,0,0-1.1-1.819" fill="#27debf"/>
            <g id="Grupo_985544" data-name="Grupo 985544" opacity="0.8">
              <g id="Grupo_985543" data-name="Grupo 985543">
                <g id="Grupo_985542" data-name="Grupo 985542" clip-path="url(#clip-path-51)">
                  <path id="Trazado_658676" data-name="Trazado 658676" d="M188.737,213.788l-13.949-8.038c-.6-.349-1.1-.1-1.1.554a2.35,2.35,0,0,0,1.1,1.819l13.949,8.038c.6.349,1.1.1,1.1-.554a2.348,2.348,0,0,0-1.1-1.819" fill="#fff"/>
                </g>
              </g>
            </g>
            <path id="Trazado_658677" data-name="Trazado 658677" d="M201.031,239.215l-2.967-1.71c-.6-.349-1.1-.1-1.1.554a2.347,2.347,0,0,0,1.1,1.819l2.967,1.71c.6.349,1.1.1,1.1-.554a2.348,2.348,0,0,0-1.1-1.819" fill="#27debf"/>
            <g id="Grupo_985547" data-name="Grupo 985547" opacity="0.6">
              <g id="Grupo_985546" data-name="Grupo 985546">
                <g id="Grupo_985545" data-name="Grupo 985545" clip-path="url(#clip-path-52)">
                  <path id="Trazado_658678" data-name="Trazado 658678" d="M201.031,239.215l-2.967-1.71c-.6-.349-1.1-.1-1.1.554a2.347,2.347,0,0,0,1.1,1.819l2.967,1.71c.6.349,1.1.1,1.1-.554a2.348,2.348,0,0,0-1.1-1.819" fill="#fff"/>
                </g>
              </g>
            </g>
            <path id="Trazado_658679" data-name="Trazado 658679" d="M192.907,234.532l-18.119-10.46c-.6-.349-1.1-.1-1.1.554a2.35,2.35,0,0,0,1.1,1.819l18.119,10.46c.6.349,1.1.1,1.1-.554a2.348,2.348,0,0,0-1.1-1.819" fill="#27debf"/>
            <g id="Grupo_985550" data-name="Grupo 985550" opacity="0.8">
              <g id="Grupo_985549" data-name="Grupo 985549">
                <g id="Grupo_985548" data-name="Grupo 985548" clip-path="url(#clip-path-53)">
                  <path id="Trazado_658680" data-name="Trazado 658680" d="M192.907,234.532l-18.119-10.46c-.6-.349-1.1-.1-1.1.554a2.35,2.35,0,0,0,1.1,1.819l18.119,10.46c.6.349,1.1.1,1.1-.554a2.348,2.348,0,0,0-1.1-1.819" fill="#fff"/>
                </g>
              </g>
            </g>
            <path id="Trazado_658681" data-name="Trazado 658681" d="M196.861,242.93l-2.967-1.71c-.6-.349-1.1-.1-1.1.554a2.347,2.347,0,0,0,1.1,1.819l2.967,1.71c.605.349,1.1.1,1.1-.554a2.348,2.348,0,0,0-1.1-1.819" fill="#27debf"/>
            <g id="Grupo_985553" data-name="Grupo 985553" opacity="0.6">
              <g id="Grupo_985552" data-name="Grupo 985552">
                <g id="Grupo_985551" data-name="Grupo 985551" clip-path="url(#clip-path-54)">
                  <path id="Trazado_658682" data-name="Trazado 658682" d="M196.861,242.93l-2.967-1.71c-.6-.349-1.1-.1-1.1.554a2.347,2.347,0,0,0,1.1,1.819l2.967,1.71c.605.349,1.1.1,1.1-.554a2.348,2.348,0,0,0-1.1-1.819" fill="#fff"/>
                </g>
              </g>
            </g>
            <path id="Trazado_658683" data-name="Trazado 658683" d="M196.861,249.01l-2.967-1.71c-.6-.349-1.1-.1-1.1.554a2.347,2.347,0,0,0,1.1,1.819l2.967,1.71c.605.349,1.1.1,1.1-.554a2.348,2.348,0,0,0-1.1-1.819" fill="#27debf"/>
            <g id="Grupo_985556" data-name="Grupo 985556" opacity="0.6">
              <g id="Grupo_985555" data-name="Grupo 985555">
                <g id="Grupo_985554" data-name="Grupo 985554" clip-path="url(#clip-path-55)">
                  <path id="Trazado_658684" data-name="Trazado 658684" d="M196.861,249.01l-2.967-1.71c-.6-.349-1.1-.1-1.1.554a2.347,2.347,0,0,0,1.1,1.819l2.967,1.71c.605.349,1.1.1,1.1-.554a2.348,2.348,0,0,0-1.1-1.819" fill="#fff"/>
                </g>
              </g>
            </g>
            <path id="Trazado_658685" data-name="Trazado 658685" d="M188.737,238.241,174.788,230.2c-.6-.349-1.1-.1-1.1.554a2.35,2.35,0,0,0,1.1,1.819l13.949,8.038c.6.349,1.1.1,1.1-.554a2.348,2.348,0,0,0-1.1-1.819" fill="#27debf"/>
            <g id="Grupo_985559" data-name="Grupo 985559" opacity="0.8">
              <g id="Grupo_985558" data-name="Grupo 985558">
                <g id="Grupo_985557" data-name="Grupo 985557" clip-path="url(#clip-path-56)">
                  <path id="Trazado_658686" data-name="Trazado 658686" d="M188.737,238.241,174.788,230.2c-.6-.349-1.1-.1-1.1.554a2.35,2.35,0,0,0,1.1,1.819l13.949,8.038c.6.349,1.1.1,1.1-.554a2.348,2.348,0,0,0-1.1-1.819" fill="#fff"/>
                </g>
              </g>
            </g>
            <path id="Trazado_658687" data-name="Trazado 658687" d="M188.737,244.336,174.788,236.3c-.6-.349-1.1-.1-1.1.554a2.35,2.35,0,0,0,1.1,1.819l13.949,8.038c.6.349,1.1.1,1.1-.554a2.348,2.348,0,0,0-1.1-1.819" fill="#27debf"/>
            <g id="Grupo_985562" data-name="Grupo 985562" opacity="0.8">
              <g id="Grupo_985561" data-name="Grupo 985561">
                <g id="Grupo_985560" data-name="Grupo 985560" clip-path="url(#clip-path-57)">
                  <path id="Trazado_658688" data-name="Trazado 658688" d="M188.737,244.336,174.788,236.3c-.6-.349-1.1-.1-1.1.554a2.35,2.35,0,0,0,1.1,1.819l13.949,8.038c.6.349,1.1.1,1.1-.554a2.348,2.348,0,0,0-1.1-1.819" fill="#fff"/>
                </g>
              </g>
            </g>
            <path id="Trazado_658689" data-name="Trazado 658689" d="M196.861,224.508l-2.967-1.71c-.6-.349-1.1-.1-1.1.554a2.347,2.347,0,0,0,1.1,1.819l2.967,1.71c.605.349,1.1.1,1.1-.554a2.348,2.348,0,0,0-1.1-1.819" fill="#27debf"/>
            <g id="Grupo_985565" data-name="Grupo 985565" opacity="0.6">
              <g id="Grupo_985564" data-name="Grupo 985564">
                <g id="Grupo_985563" data-name="Grupo 985563" clip-path="url(#clip-path-58)">
                  <path id="Trazado_658690" data-name="Trazado 658690" d="M196.861,224.508l-2.967-1.71c-.6-.349-1.1-.1-1.1.554a2.347,2.347,0,0,0,1.1,1.819l2.967,1.71c.605.349,1.1.1,1.1-.554a2.348,2.348,0,0,0-1.1-1.819" fill="#fff"/>
                </g>
              </g>
            </g>
            <path id="Trazado_658691" data-name="Trazado 658691" d="M201.031,233.036l-2.967-1.71c-.6-.349-1.1-.1-1.1.554a2.347,2.347,0,0,0,1.1,1.819l2.967,1.71c.6.349,1.1.1,1.1-.554a2.348,2.348,0,0,0-1.1-1.819" fill="#27debf"/>
            <g id="Grupo_985568" data-name="Grupo 985568" opacity="0.6">
              <g id="Grupo_985567" data-name="Grupo 985567">
                <g id="Grupo_985566" data-name="Grupo 985566" clip-path="url(#clip-path-59)">
                  <path id="Trazado_658692" data-name="Trazado 658692" d="M201.031,233.036l-2.967-1.71c-.6-.349-1.1-.1-1.1.554a2.347,2.347,0,0,0,1.1,1.819l2.967,1.71c.6.349,1.1.1,1.1-.554a2.348,2.348,0,0,0-1.1-1.819" fill="#fff"/>
                </g>
              </g>
            </g>
            <path id="Trazado_658693" data-name="Trazado 658693" d="M188.737,219.835,174.788,211.8c-.6-.349-1.1-.1-1.1.554a2.35,2.35,0,0,0,1.1,1.819l13.949,8.038c.6.349,1.1.1,1.1-.554a2.348,2.348,0,0,0-1.1-1.819" fill="#27debf"/>
            <g id="Grupo_985571" data-name="Grupo 985571" opacity="0.8">
              <g id="Grupo_985570" data-name="Grupo 985570">
                <g id="Grupo_985569" data-name="Grupo 985569" clip-path="url(#clip-path-60)">
                  <path id="Trazado_658694" data-name="Trazado 658694" d="M188.737,219.835,174.788,211.8c-.6-.349-1.1-.1-1.1.554a2.35,2.35,0,0,0,1.1,1.819l13.949,8.038c.6.349,1.1.1,1.1-.554a2.348,2.348,0,0,0-1.1-1.819" fill="#fff"/>
                </g>
              </g>
            </g>
            <path id="Trazado_658695" data-name="Trazado 658695" d="M192.907,228.352l-18.119-10.46c-.6-.35-1.1-.1-1.1.554a2.35,2.35,0,0,0,1.1,1.819l18.119,10.46c.6.349,1.1.1,1.1-.554a2.348,2.348,0,0,0-1.1-1.819" fill="#27debf"/>
            <g id="Grupo_985574" data-name="Grupo 985574" opacity="0.8">
              <g id="Grupo_985573" data-name="Grupo 985573">
                <g id="Grupo_985572" data-name="Grupo 985572" clip-path="url(#clip-path-61)">
                  <path id="Trazado_658696" data-name="Trazado 658696" d="M192.907,228.352l-18.119-10.46c-.6-.35-1.1-.1-1.1.554a2.35,2.35,0,0,0,1.1,1.819l18.119,10.46c.6.349,1.1.1,1.1-.554a2.348,2.348,0,0,0-1.1-1.819" fill="#fff"/>
                </g>
              </g>
            </g>
            <path id="Trazado_658697" data-name="Trazado 658697" d="M201.031,257.622l-2.967-1.71c-.6-.349-1.1-.1-1.1.554a2.347,2.347,0,0,0,1.1,1.819l2.967,1.71c.6.349,1.1.1,1.1-.554a2.348,2.348,0,0,0-1.1-1.819" fill="#27debf"/>
            <g id="Grupo_985577" data-name="Grupo 985577" opacity="0.6">
              <g id="Grupo_985576" data-name="Grupo 985576">
                <g id="Grupo_985575" data-name="Grupo 985575" clip-path="url(#clip-path-62)">
                  <path id="Trazado_658698" data-name="Trazado 658698" d="M201.031,257.622l-2.967-1.71c-.6-.349-1.1-.1-1.1.554a2.347,2.347,0,0,0,1.1,1.819l2.967,1.71c.6.349,1.1.1,1.1-.554a2.348,2.348,0,0,0-1.1-1.819" fill="#fff"/>
                </g>
              </g>
            </g>
            <path id="Trazado_658699" data-name="Trazado 658699" d="M192.907,252.938l-18.119-10.46c-.6-.349-1.1-.1-1.1.554a2.35,2.35,0,0,0,1.1,1.819l18.119,10.46c.6.349,1.1.1,1.1-.554a2.348,2.348,0,0,0-1.1-1.819" fill="#27debf"/>
            <g id="Grupo_985580" data-name="Grupo 985580" opacity="0.8">
              <g id="Grupo_985579" data-name="Grupo 985579">
                <g id="Grupo_985578" data-name="Grupo 985578" clip-path="url(#clip-path-63)">
                  <path id="Trazado_658700" data-name="Trazado 658700" d="M192.907,252.938l-18.119-10.46c-.6-.349-1.1-.1-1.1.554a2.35,2.35,0,0,0,1.1,1.819l18.119,10.46c.6.349,1.1.1,1.1-.554a2.348,2.348,0,0,0-1.1-1.819" fill="#fff"/>
                </g>
              </g>
            </g>
          </g>
        </g>
      </g>
    </g>
    <g id="Grupo_985852" data-name="Grupo 985852" transform="translate(-15040.972 -12335)">
      <path id="Trazado_658701" data-name="Trazado 658701" d="M194.783,90.378,180.89,82.357l-2.853,6.588a1.162,1.162,0,0,1-1.14.7,1.148,1.148,0,0,1-1.044-.832l-3.317-11.278L161.61,71.226a5.853,5.853,0,0,1-2.683-4.648V28.594a1.972,1.972,0,0,1,3.185-1.839l33.173,19.152a5.852,5.852,0,0,1,2.683,4.648V88.539a2.183,2.183,0,0,1-.963,2.01,1.756,1.756,0,0,1-.884.231,2.709,2.709,0,0,1-1.338-.4M161.61,27.623a1,1,0,0,0-1.68.971V66.578a4.906,4.906,0,0,0,2.182,3.779l11.273,6.508,3.429,11.662a.15.15,0,0,0,.144.115.144.144,0,0,0,.159-.1l3.3-7.62,14.869,8.583a1,1,0,0,0,1.68-.971V50.554a4.9,4.9,0,0,0-2.182-3.779Z" transform="translate(1125.013 136.338)" fill="#27debf"/>
      <path id="Trazado_658702" data-name="Trazado 658702" d="M177.363,43.254c-2.3-1.325-4.411-1.548-6.136-.871l6.136,14.8Z" transform="translate(1126.097 137.719)" fill="#455a64"/>
      <path id="Trazado_658703" data-name="Trazado 658703" d="M183,49.368a19.042,19.042,0,0,0-6.135-6.215V57.085Z" transform="translate(1126.594 137.819)" fill="#27debf"/>
      <path id="Trazado_658704" data-name="Trazado 658704" d="M186.8,58.013a27.878,27.878,0,0,0-3.8-9.149l-6.135,7.717Z" transform="translate(1126.594 138.323)" fill="#27debf"/>
      <path id="Trazado_658705" data-name="Trazado 658705" d="M171.535,42.353a6.76,6.76,0,0,0-3.8,4.762l9.936,10.041Z" transform="translate(1125.789 137.749)" fill="#455a64"/>
      <path id="Trazado_658706" data-name="Trazado 658706" d="M186.8,66a14.689,14.689,0,0,0,.514-4.008,22.119,22.119,0,0,0-.514-4.6l-9.935-1.431Z" transform="translate(1126.594 138.948)" fill="#27debf"/>
      <path id="Trazado_658707" data-name="Trazado 658707" d="M167.736,54.64a27.877,27.877,0,0,0,3.8,9.149l6.135-7.717Z" transform="translate(1125.789 138.832)" fill="#27debf"/>
      <path id="Trazado_658708" data-name="Trazado 658708" d="M176.866,69.888c2.295,1.325,4.411,1.548,6.135.871l-6.135-14.8Z" transform="translate(1126.594 138.948)" fill="#27debf"/>
      <path id="Trazado_658709" data-name="Trazado 658709" d="M186.8,66l-9.935-10.039L183,70.758A6.757,6.757,0,0,0,186.8,66" transform="translate(1126.594 138.948)" fill="#27debf"/>
      <g id="Grupo_985588" data-name="Grupo 985588" transform="translate(1303.46 187.187)" opacity="0.5">
        <g id="Grupo_182716" data-name="Grupo 182716">
          <g id="Grupo_182715" data-name="Grupo 182715" clip-path="url(#clip-path-64)">
            <path id="Trazado_235891" data-name="Trazado 235891" d="M183,48.864a27.924,27.924,0,0,1,3.8,9.149,22.193,22.193,0,0,1,.514,4.6,14.744,14.744,0,0,1-.514,4.008,6.76,6.76,0,0,1-3.8,4.762l-6.135-14.8Z" transform="translate(-176.866 -48.864)" fill="#fff"/>
          </g>
        </g>
      </g>
      <path id="Trazado_658710" data-name="Trazado 658710" d="M167.778,46.73a14.689,14.689,0,0,0-.514,4.008,22.119,22.119,0,0,0,.514,4.6l9.935,1.431Z" transform="translate(1125.748 138.135)" fill="#27debf"/>
      <path id="Trazado_658711" data-name="Trazado 658711" d="M171.227,63.673a19.034,19.034,0,0,0,6.136,6.215V55.956Z" transform="translate(1126.097 138.948)" fill="#27debf"/>
      <g id="Grupo_985589" data-name="Grupo 985589" transform="translate(1293.012 184.865)" opacity="0.2">
        <g id="Grupo_182719" data-name="Grupo 182719">
          <g id="Grupo_182718" data-name="Grupo 182718" clip-path="url(#clip-path-65)">
            <path id="Trazado_235894" data-name="Trazado 235894" d="M167.778,46.73l9.935,10.039,6.135,14.8c-1.724.678-3.84.455-6.135-.871a19.021,19.021,0,0,1-6.135-6.215,27.872,27.872,0,0,1-3.8-9.148,22.119,22.119,0,0,1-.514-4.6,14.689,14.689,0,0,1,.514-4.008" transform="translate(-167.264 -46.73)"/>
          </g>
        </g>
      </g>
      <path id="Trazado_658712" data-name="Trazado 658712" d="M149.139,64.025,135.246,56l-2.853,6.589a1.162,1.162,0,0,1-1.14.7,1.148,1.148,0,0,1-1.044-.834L126.892,51.18l-10.925-6.307a5.853,5.853,0,0,1-2.683-4.648V2.241a2.183,2.183,0,0,1,.963-2.01A2.183,2.183,0,0,1,116.468.4l33.173,19.152a5.852,5.852,0,0,1,2.683,4.648V62.186a2.185,2.185,0,0,1-.963,2.01,1.759,1.759,0,0,1-.884.231,2.709,2.709,0,0,1-1.338-.4M115.966,1.27a1.268,1.268,0,0,0-1.219-.171,1.266,1.266,0,0,0-.462,1.141V40.225A4.9,4.9,0,0,0,116.468,44l11.273,6.508,3.429,11.662a.15.15,0,0,0,.144.115.144.144,0,0,0,.159-.1l3.3-7.622,14.869,8.585a1,1,0,0,0,1.68-.971V24.2a4.9,4.9,0,0,0-2.182-3.779Z" transform="translate(1120.988 134.015)" fill="#27debf"/>
      <path id="Trazado_658713" data-name="Trazado 658713" d="M131.719,16.9c-2.3-1.325-4.411-1.548-6.135-.871l6.135,14.8Z" transform="translate(1122.072 135.396)" fill="#455a64"/>
      <path id="Trazado_658714" data-name="Trazado 658714" d="M137.357,23.015a19.042,19.042,0,0,0-6.135-6.215V30.732Z" transform="translate(1122.569 135.496)" fill="#27debf"/>
      <path id="Trazado_658715" data-name="Trazado 658715" d="M141.157,31.66a27.878,27.878,0,0,0-3.8-9.149l-6.135,7.717Z" transform="translate(1122.569 135.999)" fill="#27debf"/>
      <g id="Grupo_985590" data-name="Grupo 985590" transform="translate(1253.792 152.297)" opacity="0.5">
        <g id="Grupo_182722" data-name="Grupo 182722">
          <g id="Grupo_182721" data-name="Grupo 182721" clip-path="url(#clip-path-66)">
            <path id="Trazado_235899" data-name="Trazado 235899" d="M137.357,23.015a27.9,27.9,0,0,1,3.8,9.149l-9.934-1.432V16.8a19.042,19.042,0,0,1,6.135,6.215" transform="translate(-131.222 -16.801)" fill="#fff"/>
          </g>
        </g>
      </g>
      <path id="Trazado_658716" data-name="Trazado 658716" d="M125.891,16a6.756,6.756,0,0,0-3.8,4.762L132.026,30.8Z" transform="translate(1121.765 135.426)" fill="#455a64"/>
      <path id="Trazado_658717" data-name="Trazado 658717" d="M141.157,39.643a14.686,14.686,0,0,0,.514-4.007,22.1,22.1,0,0,0-.514-4.6L131.222,29.6Z" transform="translate(1122.569 136.625)" fill="#27debf"/>
      <path id="Trazado_658718" data-name="Trazado 658718" d="M122.092,28.288a27.9,27.9,0,0,0,3.8,9.149l6.136-7.717Z" transform="translate(1121.765 136.509)" fill="#27debf"/>
      <path id="Trazado_658719" data-name="Trazado 658719" d="M131.222,43.535c2.3,1.325,4.411,1.548,6.135.871l-6.135-14.8Z" transform="translate(1122.569 136.625)" fill="#27debf"/>
      <path id="Trazado_658720" data-name="Trazado 658720" d="M141.157,39.643,131.222,29.6l6.135,14.8a6.755,6.755,0,0,0,3.8-4.763" transform="translate(1122.569 136.625)" fill="#27debf"/>
      <path id="Trazado_658721" data-name="Trazado 658721" d="M122.134,20.377a14.689,14.689,0,0,0-.514,4.008,22.118,22.118,0,0,0,.514,4.6l9.935,1.431Z" transform="translate(1121.724 135.812)" fill="#455a64"/>
      <path id="Trazado_658722" data-name="Trazado 658722" d="M125.583,37.32a19.042,19.042,0,0,0,6.135,6.215V29.6Z" transform="translate(1122.072 136.625)" fill="#27debf"/>
      <g id="Grupo_985591" data-name="Grupo 985591" transform="translate(1243.856 164.797)" opacity="0.2">
        <g id="Grupo_182725" data-name="Grupo 182725">
          <g id="Grupo_182724" data-name="Grupo 182724" clip-path="url(#clip-path-67)">
            <path id="Trazado_235907" data-name="Trazado 235907" d="M132.027,29.719l6.135,14.8c-1.724.678-3.839.455-6.135-.871a19.032,19.032,0,0,1-6.135-6.215,27.878,27.878,0,0,1-3.8-9.149Z" transform="translate(-122.092 -28.288)"/>
          </g>
        </g>
      </g>
    </g>
    <g id="Grupo_985851" data-name="Grupo 985851" transform="translate(-13995.232 -12116.428)">
      <g id="Grupo_182739" data-name="Grupo 182739" clip-path="url(#clip-path-68)">
        <g id="Grupo_182738" data-name="Grupo 182738">
          <g id="Grupo_182737" data-name="Grupo 182737" clip-path="url(#clip-path-68)">
            <path id="Trazado_235908" data-name="Trazado 235908" d="M134.21,180.221a1.324,1.324,0,0,1-.652-.2L2.875,104.5a5.439,5.439,0,0,1-2.43-4.2V3.8c0-.9.382-1.445,1.021-1.445a1.977,1.977,0,0,1,.959.3L133.113,78.147a5.455,5.455,0,0,1,2.428,4.2V178.2a2.628,2.628,0,0,1-.421,1.479,1.132,1.132,0,0,1-.91.543" fill="#fafafa"/>
            <path id="Trazado_235909" data-name="Trazado 235909" d="M138.258,178.579c-.287.152-2.346,1.327-3.249,1.841a2.7,2.7,0,0,0,.975-2.224V91.012l3.39-1.984V176.28a2.576,2.576,0,0,1-1.116,2.3" fill="#ebebeb"/>
            <path id="Trazado_235910" data-name="Trazado 235910" d="M1.466,2.807a1.511,1.511,0,0,1,.736.242L132.89,78.535a4.946,4.946,0,0,1,2.2,3.813V178.2c0,.839-.412,1.575-.882,1.575a.884.884,0,0,1-.428-.136L3.1,104.107a4.937,4.937,0,0,1-2.2-3.808V3.8c0-.372.074-1,.572-1m0-.894C.6,1.913,0,2.606,0,3.8v96.5a5.842,5.842,0,0,0,2.651,4.583l130.684,75.53a1.748,1.748,0,0,0,.875.256c1.035,0,1.776-1.134,1.776-2.469V82.348a5.851,5.851,0,0,0-2.648-4.587L2.649,2.275a2.4,2.4,0,0,0-1.183-.362" fill="#e0e0e0"/>
            <path id="Trazado_235911" data-name="Trazado 235911" d="M0,3.751v8.73L135.984,91.012l3.39-1.973V80.422a5.5,5.5,0,0,0-.8-2.65,5.334,5.334,0,0,0-1.844-1.932L6.033.353A1.892,1.892,0,0,0,4.1.2C3.618.5,1.3,1.818.823,2.06a.86.86,0,0,0-.2.137,1.29,1.29,0,0,0-.209.209,1.448,1.448,0,0,0-.169.266,1.253,1.253,0,0,0-.129.322,1.662,1.662,0,0,0-.081.362v.017A2.761,2.761,0,0,0,0,3.751" fill="#27debf"/>
            <g id="Grupo_182733" data-name="Grupo 182733" opacity="0.15">
              <g id="Grupo_182732" data-name="Grupo 182732">
                <g id="Grupo_182731" data-name="Grupo 182731" clip-path="url(#clip-path-70)">
                  <path id="Trazado_235912" data-name="Trazado 235912" d="M0,3.751v8.73L135.984,91.012l3.39-1.973V80.422a5.5,5.5,0,0,0-.8-2.65,5.334,5.334,0,0,0-1.844-1.932L6.033.353A1.892,1.892,0,0,0,4.1.2C3.618.5,1.3,1.818.823,2.06a.86.86,0,0,0-.2.137,1.29,1.29,0,0,0-.209.209,1.448,1.448,0,0,0-.169.266,1.253,1.253,0,0,0-.129.322,1.662,1.662,0,0,0-.081.362v.017A2.761,2.761,0,0,0,0,3.751"/>
                </g>
              </g>
            </g>
            <path id="Trazado_235913" data-name="Trazado 235913" d="M0,3.751v8.73L135.984,91.012V82.346a4.7,4.7,0,0,0-.322-1.643c-.032-.088-.065-.185-.1-.273a6.6,6.6,0,0,0-.362-.717,5.331,5.331,0,0,0-1.86-1.957L2.651,2.277A1.756,1.756,0,0,0,.622,2.2a1.29,1.29,0,0,0-.209.209,1.448,1.448,0,0,0-.169.266,1.253,1.253,0,0,0-.129.322,1.662,1.662,0,0,0-.081.362v.017A2.761,2.761,0,0,0,0,3.751" fill="#27debf"/>
            <path id="Trazado_235914" data-name="Trazado 235914" d="M17.07,14.488a4.361,4.361,0,0,1,1.653,3.5c0,1.406-.74,2.118-1.653,1.591a4.362,4.362,0,0,1-1.653-3.5c0-1.406.74-2.118,1.653-1.591" fill="#fafafa"/>
            <path id="Trazado_235915" data-name="Trazado 235915" d="M11.118,11.046a4.361,4.361,0,0,1,1.653,3.5c0,1.406-.74,2.118-1.653,1.591a4.361,4.361,0,0,1-1.653-3.5c0-1.406.74-2.118,1.653-1.591" fill="#fafafa"/>
            <path id="Trazado_235916" data-name="Trazado 235916" d="M5.166,7.6a4.361,4.361,0,0,1,1.653,3.5c0,1.406-.74,2.118-1.653,1.591a4.361,4.361,0,0,1-1.653-3.5c0-1.406.74-2.118,1.653-1.591" fill="#fafafa"/>
            <path id="Trazado_235917" data-name="Trazado 235917" d="M2.65,2.273,133.335,77.759a5.451,5.451,0,0,1,1.866,1.966l3.366-1.949a5.281,5.281,0,0,0-1.841-1.933L6.032.357A1.862,1.862,0,0,0,4.108.2C3.633.49,1.434,1.74.876,2.04a1.916,1.916,0,0,1,1.774.233" fill="#27debf"/>
            <g id="Grupo_182736" data-name="Grupo 182736" opacity="0.5">
              <g id="Grupo_182735" data-name="Grupo 182735">
                <g id="Grupo_182734" data-name="Grupo 182734" clip-path="url(#clip-path-71)">
                  <path id="Trazado_235918" data-name="Trazado 235918" d="M2.65,2.273,133.335,77.759a5.451,5.451,0,0,1,1.866,1.966l3.366-1.949a5.281,5.281,0,0,0-1.841-1.933L6.032.357A1.862,1.862,0,0,0,4.108.2C3.633.49,1.434,1.74.876,2.04a1.916,1.916,0,0,1,1.774.233" fill="#fff"/>
                </g>
              </g>
            </g>
            <path id="Trazado_235919" data-name="Trazado 235919" d="M130.054,96.661c0,1.229-.863,1.728-1.928,1.113a4.276,4.276,0,0,1-1.933-3.342c0-1.231.86-1.73,1.928-1.113a4.271,4.271,0,0,1,1.933,3.342" fill="#27debf"/>
            <path id="Trazado_235920" data-name="Trazado 235920" d="M116.647,88.581,99.424,78.637c-.568-.328-1.028-.1-1.028.52a2.2,2.2,0,0,0,1.027,1.706l17.224,9.944c.567.328,1.027.1,1.027-.52a2.2,2.2,0,0,0-1.027-1.706" fill="#e0e0e0"/>
            <path id="Trazado_235921" data-name="Trazado 235921" d="M93.716,75.171,76.493,65.227c-.568-.328-1.028-.095-1.028.52a2.2,2.2,0,0,0,1.027,1.706L93.716,77.4c.567.327,1.027.095,1.027-.52a2.2,2.2,0,0,0-1.027-1.706" fill="#e0e0e0"/>
            <path id="Trazado_235922" data-name="Trazado 235922" d="M70.785,61.76,53.562,51.816c-.568-.328-1.028-.1-1.028.52a2.2,2.2,0,0,0,1.027,1.706l17.224,9.944c.567.327,1.027.1,1.027-.52a2.2,2.2,0,0,0-1.027-1.706" fill="#e0e0e0"/>
            <path id="Trazado_235923" data-name="Trazado 235923" d="M47.854,48.35,30.631,38.406c-.568-.328-1.028-.095-1.028.52a2.2,2.2,0,0,0,1.027,1.706l17.224,9.944c.567.327,1.027.1,1.027-.52a2.2,2.2,0,0,0-1.027-1.706" fill="#e0e0e0"/>
            <path id="Trazado_235924" data-name="Trazado 235924" d="M24.923,34.939,7.7,25c-.568-.328-1.028-.1-1.028.52A2.2,2.2,0,0,0,7.7,27.221l17.224,9.944c.567.327,1.027.095,1.027-.52a2.2,2.2,0,0,0-1.027-1.706" fill="#e0e0e0"/>
            <path id="Trazado_235925" data-name="Trazado 235925" d="M128.375,108.181v1.907c0,.524-.368.736-.822.474l-4.587-2.652a1.827,1.827,0,0,1-.824-1.424l0-1.913c0-.525.365-.737.819-.474l4.6,2.658a1.817,1.817,0,0,1,.822,1.424" fill="#27debf"/>
            <path id="Trazado_235926" data-name="Trazado 235926" d="M118.679,102.4,106.321,95.3c-.568-.328-1.028-.1-1.028.52a2.205,2.205,0,0,0,1.027,1.706l12.359,7.108c.567.327,1.027.1,1.027-.52a2.2,2.2,0,0,0-1.027-1.706" fill="#e0e0e0"/>
            <path id="Trazado_235927" data-name="Trazado 235927" d="M130.054,105.655l-26.99-15.583v8.9l26.99,15.582Z" fill="none" stroke="#e0e0e0" stroke-linecap="round" stroke-linejoin="round" stroke-width="0.497"/>
            <path id="Trazado_235928" data-name="Trazado 235928" d="M128.375,121.538v1.907c0,.524-.368.736-.822.474l-4.587-2.652a1.825,1.825,0,0,1-.824-1.424l0-1.913c0-.525.365-.737.819-.475l4.6,2.659a1.817,1.817,0,0,1,.822,1.424" fill="#27debf"/>
            <path id="Trazado_235929" data-name="Trazado 235929" d="M118.679,115.761l-12.358-7.108c-.568-.328-1.028-.1-1.028.519a2.205,2.205,0,0,0,1.027,1.707l12.359,7.108c.567.328,1.027.1,1.027-.52a2.2,2.2,0,0,0-1.027-1.706" fill="#e0e0e0"/>
            <path id="Trazado_235930" data-name="Trazado 235930" d="M130.054,119.011l-26.99-15.583v8.9l26.99,15.582Z" fill="none" stroke="#e0e0e0" stroke-linecap="round" stroke-linejoin="round" stroke-width="0.497"/>
            <path id="Trazado_235931" data-name="Trazado 235931" d="M128.375,134.9V136.8c0,.524-.368.736-.822.474l-4.587-2.652a1.828,1.828,0,0,1-.824-1.424l0-1.914c0-.524.365-.737.819-.473l4.6,2.658a1.817,1.817,0,0,1,.822,1.424" fill="#27debf"/>
            <path id="Trazado_235932" data-name="Trazado 235932" d="M118.679,129.117l-12.358-7.108c-.568-.328-1.028-.1-1.028.519a2.205,2.205,0,0,0,1.027,1.707l12.359,7.108c.567.327,1.027.1,1.027-.52a2.2,2.2,0,0,0-1.027-1.706" fill="#e0e0e0"/>
            <path id="Trazado_235933" data-name="Trazado 235933" d="M130.054,132.367l-26.99-15.583v8.9l26.99,15.582Z" fill="none" stroke="#e0e0e0" stroke-linecap="round" stroke-linejoin="round" stroke-width="0.497"/>
            <path id="Trazado_235934" data-name="Trazado 235934" d="M128.375,148.251v1.907c0,.524-.368.736-.822.474l-4.587-2.652a1.826,1.826,0,0,1-.824-1.424l0-1.913c0-.525.365-.737.819-.475l4.6,2.659a1.817,1.817,0,0,1,.822,1.424" fill="#27debf"/>
            <path id="Trazado_235935" data-name="Trazado 235935" d="M118.679,142.474l-12.358-7.108c-.568-.328-1.028-.1-1.028.52a2.205,2.205,0,0,0,1.027,1.706l12.359,7.108c.567.328,1.027.1,1.027-.52a2.2,2.2,0,0,0-1.027-1.706" fill="#e0e0e0"/>
            <path id="Trazado_235936" data-name="Trazado 235936" d="M130.054,145.724l-26.99-15.583v8.9l26.99,15.582Z" fill="none" stroke="#e0e0e0" stroke-linecap="round" stroke-linejoin="round" stroke-width="0.497"/>
            <path id="Trazado_235937" data-name="Trazado 235937" d="M128.375,161.608v1.907c0,.524-.368.736-.822.474l-4.587-2.652a1.827,1.827,0,0,1-.824-1.424l0-1.913c0-.525.365-.737.819-.474l4.6,2.658a1.817,1.817,0,0,1,.822,1.424" fill="#27debf"/>
            <path id="Trazado_235938" data-name="Trazado 235938" d="M118.679,155.83l-12.358-7.108c-.568-.328-1.028-.1-1.028.519a2.205,2.205,0,0,0,1.027,1.707l12.359,7.108c.567.327,1.027.1,1.027-.52a2.2,2.2,0,0,0-1.027-1.706" fill="#e0e0e0"/>
            <path id="Trazado_235939" data-name="Trazado 235939" d="M130.054,159.081,103.064,143.5V152.4l26.99,15.582Z" fill="none" stroke="#e0e0e0" stroke-linecap="round" stroke-linejoin="round" stroke-width="0.497"/>
            <path id="Trazado_235940" data-name="Trazado 235940" d="M92.125,118.7l-28.25-16.31a4.194,4.194,0,0,1-1.9-3.287v-24.4c0-1.21.849-1.7,1.9-1.1l28.249,16.31a4.2,4.2,0,0,1,1.9,3.287v24.4c0,1.211-.85,1.7-1.9,1.1" fill="#fafafa"/>
            <path id="Trazado_235941" data-name="Trazado 235941" d="M92.125,118.7l-28.25-16.31a4.194,4.194,0,0,1-1.9-3.287v-24.4c0-1.21.849-1.7,1.9-1.1l28.249,16.31a4.2,4.2,0,0,1,1.9,3.287v24.4C94.023,118.817,93.173,119.307,92.125,118.7Z" fill="none" stroke="#e0e0e0" stroke-miterlimit="10" stroke-width="0.917"/>
            <path id="Trazado_235942" data-name="Trazado 235942" d="M95.753,88.177a.329.329,0,0,0,.164-.614l-.949-.548a.333.333,0,0,0-.449.121.328.328,0,0,0,.12.449l.95.548a.326.326,0,0,0,.164.044" fill="#27debf"/>
            <path id="Trazado_235943" data-name="Trazado 235943" d="M92.642,86.433l-2-1.153a.329.329,0,0,1-.121-.45.334.334,0,0,1,.45-.121l2,1.153a.329.329,0,0,1-.165.614.335.335,0,0,1-.164-.043m-3.994-2.306-2-1.154a.328.328,0,0,1-.121-.449.334.334,0,0,1,.45-.121l2,1.153a.329.329,0,0,1-.164.614.335.335,0,0,1-.164-.043M84.654,81.82l-2-1.153a.328.328,0,0,1-.121-.449.333.333,0,0,1,.449-.121l2,1.153a.329.329,0,0,1-.164.614.333.333,0,0,1-.164-.044M80.66,79.514l-2-1.153a.329.329,0,0,1-.12-.449.333.333,0,0,1,.449-.121l2,1.153a.329.329,0,0,1-.164.614.34.34,0,0,1-.165-.044m-3.994-2.306-2-1.153a.329.329,0,0,1,.329-.57l2,1.153a.329.329,0,0,1-.164.614.34.34,0,0,1-.165-.044M72.672,74.9l-2-1.153a.33.33,0,0,1-.121-.449.334.334,0,0,1,.45-.121l2,1.153a.329.329,0,0,1-.164.614.34.34,0,0,1-.165-.044M68.678,72.6l-2-1.153a.329.329,0,1,1,.329-.57l2,1.153a.329.329,0,0,1-.164.614.334.334,0,0,1-.165-.044M64.684,70.29l-2-1.153a.329.329,0,0,1-.121-.449.333.333,0,0,1,.45-.121l2,1.153a.329.329,0,0,1-.165.614.333.333,0,0,1-.164-.044" fill="#27debf"/>
            <path id="Trazado_235944" data-name="Trazado 235944" d="M60.854,68.028a.329.329,0,0,0,.164-.614l-.948-.548a.334.334,0,0,0-.45.121.33.33,0,0,0,.121.449l.949.548a.323.323,0,0,0,.164.044" fill="#27debf"/>
            <path id="Trazado_235945" data-name="Trazado 235945" d="M97.212,124.411a.329.329,0,0,0,.329-.329v-1.1a.329.329,0,1,0-.658,0v1.1a.329.329,0,0,0,.329.329" fill="#27debf"/>
            <path id="Trazado_235946" data-name="Trazado 235946" d="M96.883,120.886v-2.1a.329.329,0,0,1,.658,0v2.1a.329.329,0,0,1-.658,0m0-4.2v-2.1a.329.329,0,0,1,.658,0v2.1a.329.329,0,1,1-.658,0m0-4.2v-2.1a.329.329,0,0,1,.658,0v2.1a.329.329,0,0,1-.658,0m0-4.2v-2.1a.328.328,0,1,1,.657,0v2.1a.329.329,0,1,1-.658,0m0-4.2v-2.1a.328.328,0,1,1,.657,0v2.1a.328.328,0,1,1-.657,0m0-4.2v-2.1a.328.328,0,1,1,.657,0v2.1a.328.328,0,1,1-.657,0m0-4.2v-2.1a.328.328,0,0,1,.657,0v2.1a.328.328,0,1,1-.657,0" fill="#27debf"/>
            <path id="Trazado_235947" data-name="Trazado 235947" d="M97.213,91.8a.329.329,0,0,0,.329-.329v-1.1a.329.329,0,1,0-.658,0v1.1a.329.329,0,0,0,.329.329" fill="#27debf"/>
            <path id="Trazado_235948" data-name="Trazado 235948" d="M60.826,105.088a.329.329,0,0,0,.165-.614l-.95-.547a.332.332,0,0,0-.449.12.328.328,0,0,0,.12.449l.95.548a.326.326,0,0,0,.164.044" fill="#27debf"/>
            <path id="Trazado_235949" data-name="Trazado 235949" d="M92.64,123.507l-2-1.153a.33.33,0,0,1,.329-.571l2,1.154a.329.329,0,0,1-.165.614.323.323,0,0,1-.164-.044m-4-2.307-2-1.154a.329.329,0,1,1,.328-.57l2,1.154a.328.328,0,0,1-.164.613.339.339,0,0,1-.165-.043m-4-2.308-2-1.154a.33.33,0,0,1-.121-.449.334.334,0,0,1,.45-.121l2,1.154a.329.329,0,0,1-.165.614.333.333,0,0,1-.164-.044m-4-2.308-2-1.155a.328.328,0,0,1,.328-.569l2,1.154a.329.329,0,0,1-.164.614.337.337,0,0,1-.165-.044m-4-2.309-2-1.153a.33.33,0,0,1-.121-.45.333.333,0,0,1,.45-.121l2,1.154a.329.329,0,0,1-.164.614.323.323,0,0,1-.164-.044m-4-2.307-2-1.154a.329.329,0,0,1,.329-.57l2,1.154a.329.329,0,0,1,.121.449.332.332,0,0,1-.285.164.336.336,0,0,1-.165-.043m-4-2.308-2-1.154a.328.328,0,0,1-.121-.449.332.332,0,0,1,.449-.121l2,1.154a.328.328,0,0,1,.121.449.328.328,0,0,1-.449.121m-4-2.308-2-1.154a.329.329,0,0,1-.12-.449.333.333,0,0,1,.449-.121l2,1.154a.329.329,0,0,1-.165.614.333.333,0,0,1-.164-.044" fill="#27debf"/>
            <path id="Trazado_235950" data-name="Trazado 235950" d="M95.753,125.253a.329.329,0,0,0,.164-.614l-.949-.548a.33.33,0,0,0-.329.571l.95.547a.326.326,0,0,0,.164.044" fill="#27debf"/>
            <path id="Trazado_235951" data-name="Trazado 235951" d="M58.417,69.4a.329.329,0,0,0,.329-.329v-1.1a.329.329,0,0,0-.658,0v1.1a.329.329,0,0,0,.329.329" fill="#27debf"/>
            <path id="Trazado_235952" data-name="Trazado 235952" d="M58.088,98.486v-2.1a.329.329,0,1,1,.658,0v2.1a.329.329,0,1,1-.658,0m0-4.2v-2.1a.329.329,0,0,1,.658,0v2.1a.329.329,0,1,1-.658,0m0-4.2v-2.1a.329.329,0,1,1,.658,0v2.1a.329.329,0,0,1-.658,0m0-4.2v-2.1a.328.328,0,1,1,.657,0v2.1a.329.329,0,0,1-.658,0m0-4.2v-2.1a.328.328,0,1,1,.657,0v2.1a.328.328,0,0,1-.657,0m0-4.2v-2.1a.328.328,0,1,1,.657,0v2.1a.328.328,0,1,1-.657,0m0-4.2v-2.1a.328.328,0,0,1,.657,0v2.1a.328.328,0,1,1-.657,0" fill="#27debf"/>
            <path id="Trazado_235953" data-name="Trazado 235953" d="M58.416,102.011a.329.329,0,0,0,.329-.329v-1.1a.329.329,0,0,0-.658,0v1.1a.329.329,0,0,0,.329.329" fill="#27debf"/>
            <path id="Trazado_235954" data-name="Trazado 235954" d="M59.713,69.106l-2.92-1.686a.329.329,0,0,1-.164-.285V63.763a.328.328,0,0,1,.493-.285l2.92,1.686a.331.331,0,0,1,.164.285v3.372a.329.329,0,0,1-.493.285m-2.427-4.774v2.613l2.262,1.307V65.639Z" fill="#27debf"/>
            <path id="Trazado_235955" data-name="Trazado 235955" d="M59.713,106.182l-2.92-1.686a.329.329,0,0,1-.164-.285v-3.372a.328.328,0,0,1,.164-.285.333.333,0,0,1,.329,0l2.92,1.686a.331.331,0,0,1,.164.285V105.9a.329.329,0,0,1-.493.285m-2.427-4.774v2.613l2.262,1.307v-2.613Z" fill="#27debf"/>
            <path id="Trazado_235956" data-name="Trazado 235956" d="M98.508,91.5l-2.92-1.687a.328.328,0,0,1-.164-.285V86.162a.328.328,0,0,1,.493-.285l2.919,1.686a.33.33,0,0,1,.165.285V91.22a.33.33,0,0,1-.493.285m-2.427-4.774v2.612l2.262,1.307V88.038Z" fill="#27debf"/>
            <path id="Trazado_235957" data-name="Trazado 235957" d="M98.508,128.581l-2.92-1.686a.329.329,0,0,1-.164-.285v-3.372a.329.329,0,0,1,.164-.285.333.333,0,0,1,.329,0l2.919,1.686a.33.33,0,0,1,.165.285V128.3a.329.329,0,0,1-.493.285m-2.427-4.774v2.613l2.262,1.307v-2.613Z" fill="#27debf"/>
            <path id="Trazado_235958" data-name="Trazado 235958" d="M56.947,86.058a3.522,3.522,0,0,0,1.47,2.809c.812.469,1.47-.028,1.47-1.111a3.519,3.519,0,0,0-1.47-2.809c-.812-.469-1.47.028-1.47,1.111" fill="#27debf"/>
            <path id="Trazado_235959" data-name="Trazado 235959" d="M76.359,76.643a3.52,3.52,0,0,0,1.47,2.809c.812.469,1.471-.029,1.471-1.111a3.52,3.52,0,0,0-1.471-2.809c-.812-.469-1.47.028-1.47,1.111" fill="#27debf"/>
            <path id="Trazado_235960" data-name="Trazado 235960" d="M76.359,113.719a3.522,3.522,0,0,0,1.47,2.809c.812.469,1.471-.029,1.471-1.111a3.523,3.523,0,0,0-1.471-2.81c-.812-.468-1.47.029-1.47,1.112" fill="#27debf"/>
            <path id="Trazado_235961" data-name="Trazado 235961" d="M95.744,108.507a3.52,3.52,0,0,0,1.47,2.809c.812.469,1.47-.029,1.47-1.111a3.519,3.519,0,0,0-1.47-2.809c-.812-.469-1.47.028-1.47,1.111" fill="#27debf"/>
            <path id="Trazado_235962" data-name="Trazado 235962" d="M70.592,93.271l1.777,1.251a.723.723,0,0,1,.249.377,11.609,11.609,0,0,0,.45,1.508.372.372,0,0,1-.1.385l-1,.864a.3.3,0,0,0-.063.369l1.43,2.477a.306.306,0,0,0,.351.13l1.249-.436a.373.373,0,0,1,.382.108,11.774,11.774,0,0,0,1.081,1.144.725.725,0,0,1,.2.4l.195,2.165a.525.525,0,0,0,.232.363l1.945,1.123a.145.145,0,0,0,.235-.12l.19-1.89a.2.2,0,0,1,.259-.183,3.862,3.862,0,0,0,.937.1.481.481,0,0,1,.377.187l1.438,2.163a.261.261,0,0,0,.344.081l1.253-.723a.262.262,0,0,0,.1-.339l-1.154-2.327a.482.482,0,0,1,.027-.42,3.871,3.871,0,0,0,.385-.858.207.207,0,0,1,.289-.134l1.731.781a.145.145,0,0,0,.222-.143V99.426a.522.522,0,0,0-.2-.382l-1.777-1.251a.723.723,0,0,1-.249-.377,11.56,11.56,0,0,0-.45-1.508.372.372,0,0,1,.1-.385l1-.864a.3.3,0,0,0,.063-.368l-1.43-2.478a.306.306,0,0,0-.351-.13l-1.249.436a.373.373,0,0,1-.382-.108A11.654,11.654,0,0,0,79.6,90.867a.729.729,0,0,1-.2-.4L79.205,88.3a.525.525,0,0,0-.232-.363l-1.945-1.123a.145.145,0,0,0-.235.12l-.19,1.89a.2.2,0,0,1-.259.183,3.863,3.863,0,0,0-.937-.095.481.481,0,0,1-.376-.187L73.592,86.56a.261.261,0,0,0-.344-.081L72,87.2a.262.262,0,0,0-.1.339l1.154,2.327a.482.482,0,0,1-.026.42,3.827,3.827,0,0,0-.386.858.207.207,0,0,1-.289.134L70.615,90.5a.145.145,0,0,0-.222.143v2.247a.522.522,0,0,0,.2.382m4.122.989c0-2.1,1.471-2.945,3.286-1.9a7.26,7.26,0,0,1,3.287,5.692c0,2.1-1.471,2.945-3.287,1.9a7.263,7.263,0,0,1-3.286-5.692" fill="#27debf"/>
            <path id="Trazado_235963" data-name="Trazado 235963" d="M42.168,89.938,13.919,73.628a4.2,4.2,0,0,1-1.9-3.288v-24.4c0-1.209.849-1.7,1.9-1.1l28.249,16.31a4.192,4.192,0,0,1,1.9,3.287v24.4c0,1.211-.85,1.7-1.9,1.1" fill="#fafafa"/>
            <path id="Trazado_235964" data-name="Trazado 235964" d="M42.168,89.938,13.919,73.628a4.2,4.2,0,0,1-1.9-3.288v-24.4c0-1.209.849-1.7,1.9-1.1l28.249,16.31a4.192,4.192,0,0,1,1.9,3.287v24.4C44.066,90.052,43.216,90.543,42.168,89.938Z" fill="none" stroke="#e0e0e0" stroke-miterlimit="10" stroke-width="0.917"/>
            <path id="Trazado_235965" data-name="Trazado 235965" d="M45.8,59.412a.328.328,0,0,0,.164-.613l-.949-.549a.333.333,0,0,0-.449.121.33.33,0,0,0,.12.45l.95.547a.326.326,0,0,0,.164.044" fill="#27debf"/>
            <path id="Trazado_235966" data-name="Trazado 235966" d="M42.686,57.667l-2-1.153a.328.328,0,0,1-.12-.449.333.333,0,0,1,.45-.121l2,1.153a.329.329,0,0,1-.165.614.32.32,0,0,1-.163-.044m-3.994-2.306-2-1.153a.327.327,0,0,1-.12-.449.333.333,0,0,1,.449-.121l2,1.153a.329.329,0,0,1-.166.614.322.322,0,0,1-.163-.044m-4-2.306-2-1.153a.327.327,0,0,1-.122-.449.334.334,0,0,1,.45-.121l2,1.153a.329.329,0,0,1-.166.614.339.339,0,0,1-.164-.044M30.7,50.749l-2-1.153a.326.326,0,0,1-.121-.449.332.332,0,0,1,.448-.121l2,1.153a.329.329,0,1,1-.328.57m-4-2.306-2-1.153a.329.329,0,0,1,.33-.57l2,1.153a.33.33,0,0,1,.122.45.334.334,0,0,1-.285.164.347.347,0,0,1-.166-.044m-3.994-2.306-2-1.153a.329.329,0,0,1-.121-.449.334.334,0,0,1,.45-.121l2,1.153a.329.329,0,0,1-.164.614.344.344,0,0,1-.166-.044m-3.993-2.306-2-1.153a.329.329,0,1,1,.328-.57l2,1.153a.329.329,0,0,1-.164.614.336.336,0,0,1-.164-.044m-3.995-2.306-2-1.153a.329.329,0,0,1-.122-.449.333.333,0,0,1,.45-.121l2,1.153a.329.329,0,0,1-.164.614.334.334,0,0,1-.165-.044" fill="#27debf"/>
            <path id="Trazado_235967" data-name="Trazado 235967" d="M10.9,39.264a.329.329,0,0,0,.164-.614l-.948-.548a.332.332,0,0,0-.449.121.328.328,0,0,0,.12.449l.949.548a.333.333,0,0,0,.164.044" fill="#27debf"/>
            <path id="Trazado_235968" data-name="Trazado 235968" d="M47.256,95.646a.329.329,0,0,0,.329-.329v-1.1a.329.329,0,1,0-.658,0v1.1a.329.329,0,0,0,.329.329" fill="#27debf"/>
            <path id="Trazado_235969" data-name="Trazado 235969" d="M46.927,92.121v-2.1a.329.329,0,0,1,.657,0v2.1a.329.329,0,1,1-.657,0m0-4.2v-2.1a.329.329,0,1,1,.657,0v2.1a.329.329,0,1,1-.657,0m0-4.2v-2.1a.329.329,0,1,1,.657,0v2.1a.329.329,0,0,1-.657,0m0-4.2v-2.1a.328.328,0,1,1,.657,0v2.1a.329.329,0,1,1-.657,0m0-4.2v-2.1a.328.328,0,1,1,.657,0v2.1a.328.328,0,1,1-.657,0m0-4.2v-2.1a.328.328,0,1,1,.657,0v2.1a.328.328,0,1,1-.657,0m0-4.2v-2.1a.328.328,0,0,1,.657,0v2.1a.328.328,0,1,1-.657,0" fill="#27debf"/>
            <path id="Trazado_235970" data-name="Trazado 235970" d="M47.257,63.037a.328.328,0,0,0,.328-.329v-1.1a.328.328,0,1,0-.657,0v1.1a.329.329,0,0,0,.329.329" fill="#27debf"/>
            <path id="Trazado_235971" data-name="Trazado 235971" d="M10.87,76.324a.329.329,0,0,0,.164-.614l-.949-.548a.332.332,0,0,0-.449.121.328.328,0,0,0,.12.449l.95.548a.336.336,0,0,0,.164.044" fill="#27debf"/>
            <path id="Trazado_235972" data-name="Trazado 235972" d="M42.684,94.743l-2-1.154a.33.33,0,0,1-.121-.449.334.334,0,0,1,.45-.121l2,1.154a.329.329,0,0,1-.165.614.333.333,0,0,1-.164-.044m-4-2.307-2-1.154a.329.329,0,1,1,.328-.57l2,1.153a.329.329,0,0,1-.164.614.339.339,0,0,1-.165-.043m-4-2.308-2-1.154a.33.33,0,0,1-.121-.45.334.334,0,0,1,.45-.12l2,1.154a.328.328,0,0,1-.164.613.332.332,0,0,1-.164-.043m-4-2.308-2-1.156a.328.328,0,0,1,.329-.568l2,1.154a.329.329,0,0,1-.164.614.337.337,0,0,1-.165-.044m-4-2.309-2-1.153a.329.329,0,0,1-.121-.45.333.333,0,0,1,.45-.121l2,1.154a.329.329,0,0,1-.164.614.333.333,0,0,1-.164-.044m-4-2.307-2-1.154a.329.329,0,0,1,.329-.57l2,1.154a.328.328,0,0,1-.165.613A.335.335,0,0,1,22.7,83.2m-4-2.308-2-1.154a.329.329,0,1,1,.328-.57l2,1.154a.328.328,0,0,1,.121.449.332.332,0,0,1-.285.165A.34.34,0,0,1,18.7,80.9m-4-2.308-2-1.154a.33.33,0,0,1-.121-.449.334.334,0,0,1,.45-.121l2,1.154a.329.329,0,0,1-.165.614.333.333,0,0,1-.164-.044" fill="#27debf"/>
            <path id="Trazado_235973" data-name="Trazado 235973" d="M45.8,96.489a.329.329,0,0,0,.164-.614l-.949-.548a.332.332,0,0,0-.449.121.328.328,0,0,0,.12.449l.95.548a.326.326,0,0,0,.164.044" fill="#27debf"/>
            <path id="Trazado_235974" data-name="Trazado 235974" d="M8.461,40.638a.329.329,0,0,0,.329-.329V39.214a.329.329,0,1,0-.658,0v1.095a.329.329,0,0,0,.329.329" fill="#27debf"/>
            <path id="Trazado_235975" data-name="Trazado 235975" d="M8.131,69.721v-2.1a.329.329,0,0,1,.658,0v2.1a.329.329,0,1,1-.658,0m0-4.2v-2.1a.329.329,0,0,1,.658,0v2.1a.329.329,0,1,1-.658,0m0-4.2v-2.1a.329.329,0,0,1,.658,0v2.1a.329.329,0,0,1-.658,0m0-4.2v-2.1a.329.329,0,1,1,.657,0v2.1a.329.329,0,0,1-.658,0m0-4.2v-2.1a.329.329,0,1,1,.657,0v2.1a.329.329,0,1,1-.657,0m0-4.2v-2.1a.329.329,0,0,1,.657,0v2.1a.329.329,0,1,1-.657,0m0-4.2v-2.1a.329.329,0,0,1,.657,0v2.1a.329.329,0,1,1-.657,0" fill="#27debf"/>
            <path id="Trazado_235976" data-name="Trazado 235976" d="M8.46,73.246a.329.329,0,0,0,.329-.329v-1.1a.329.329,0,1,0-.658,0v1.1a.329.329,0,0,0,.329.329" fill="#27debf"/>
            <path id="Trazado_235977" data-name="Trazado 235977" d="M9.756,40.342l-2.92-1.686a.329.329,0,0,1-.164-.285V35a.329.329,0,0,1,.164-.285.333.333,0,0,1,.329,0l2.92,1.686a.331.331,0,0,1,.164.285v3.372a.329.329,0,0,1-.493.285M7.329,35.568v2.613l2.262,1.307V36.875Z" fill="#27debf"/>
            <path id="Trazado_235978" data-name="Trazado 235978" d="M9.756,77.418l-2.92-1.687a.327.327,0,0,1-.164-.285V72.075a.329.329,0,0,1,.493-.285l2.92,1.686a.331.331,0,0,1,.164.285v3.372a.33.33,0,0,1-.493.285M7.329,72.644v2.613l2.262,1.307V73.951Z" fill="#27debf"/>
            <path id="Trazado_235979" data-name="Trazado 235979" d="M48.552,62.741l-2.92-1.687a.328.328,0,0,1-.164-.285V57.4a.329.329,0,0,1,.493-.286L48.88,58.8a.33.33,0,0,1,.165.285v3.372a.329.329,0,0,1-.493.285m-2.427-4.774v2.612l2.262,1.307V59.274Z" fill="#27debf"/>
            <path id="Trazado_235980" data-name="Trazado 235980" d="M48.552,99.817l-2.92-1.686a.329.329,0,0,1-.164-.285V94.474a.329.329,0,0,1,.493-.285l2.919,1.686a.33.33,0,0,1,.165.285v3.372a.329.329,0,0,1-.493.285m-2.427-4.774v2.613l2.262,1.307V96.35Z" fill="#27debf"/>
            <path id="Trazado_235981" data-name="Trazado 235981" d="M6.99,57.293A3.52,3.52,0,0,0,8.46,60.1c.812.469,1.47-.029,1.47-1.111a3.519,3.519,0,0,0-1.47-2.809c-.812-.469-1.47.028-1.47,1.111" fill="#27debf"/>
            <path id="Trazado_235982" data-name="Trazado 235982" d="M26.4,47.878a3.52,3.52,0,0,0,1.47,2.809c.812.469,1.47-.029,1.47-1.111a3.519,3.519,0,0,0-1.47-2.809c-.812-.469-1.47.028-1.47,1.111" fill="#27debf"/>
            <path id="Trazado_235983" data-name="Trazado 235983" d="M26.4,84.954a3.52,3.52,0,0,0,1.47,2.809c.812.469,1.47-.029,1.47-1.111a3.519,3.519,0,0,0-1.47-2.809c-.812-.469-1.47.028-1.47,1.111" fill="#27debf"/>
            <path id="Trazado_235984" data-name="Trazado 235984" d="M45.787,79.743a3.52,3.52,0,0,0,1.47,2.809c.812.469,1.471-.029,1.471-1.111a3.52,3.52,0,0,0-1.471-2.809c-.812-.469-1.47.028-1.47,1.111" fill="#27debf"/>
            <path id="Trazado_235985" data-name="Trazado 235985" d="M20.635,64.506l1.777,1.251a.723.723,0,0,1,.249.377,11.561,11.561,0,0,0,.45,1.508.37.37,0,0,1-.1.385l-1,.864a.3.3,0,0,0-.063.368l1.43,2.478a.305.305,0,0,0,.351.13l1.249-.436a.373.373,0,0,1,.382.108,11.775,11.775,0,0,0,1.081,1.144.729.729,0,0,1,.2.4l.2,2.165a.525.525,0,0,0,.232.363l1.945,1.123a.145.145,0,0,0,.235-.12l.19-1.89a.2.2,0,0,1,.259-.183,3.863,3.863,0,0,0,.937.1.484.484,0,0,1,.377.187l1.438,2.163a.262.262,0,0,0,.345.081l1.252-.723a.262.262,0,0,0,.1-.339L33,73.682a.485.485,0,0,1,.026-.42,3.827,3.827,0,0,0,.386-.858.207.207,0,0,1,.289-.134l1.731.781a.145.145,0,0,0,.222-.143V70.661a.522.522,0,0,0-.2-.382l-1.777-1.251a.723.723,0,0,1-.249-.377,11.562,11.562,0,0,0-.45-1.508.372.372,0,0,1,.1-.385l1-.864a.3.3,0,0,0,.063-.368l-1.43-2.478a.305.305,0,0,0-.351-.13l-1.249.436a.373.373,0,0,1-.382-.108A11.775,11.775,0,0,0,29.645,62.1a.725.725,0,0,1-.2-.4l-.2-2.165a.525.525,0,0,0-.232-.363l-1.945-1.123a.145.145,0,0,0-.235.12l-.19,1.89a.2.2,0,0,1-.259.183,3.863,3.863,0,0,0-.937-.1.478.478,0,0,1-.376-.187l-1.439-2.163a.261.261,0,0,0-.344-.081l-1.253.723a.262.262,0,0,0-.1.339L23.09,61.1a.478.478,0,0,1-.026.42,3.827,3.827,0,0,0-.386.858.207.207,0,0,1-.289.134l-1.731-.781a.145.145,0,0,0-.222.143v2.247a.522.522,0,0,0,.2.382m4.122.989c0-2.1,1.471-2.945,3.287-1.9A7.263,7.263,0,0,1,31.33,69.29c0,2.1-1.471,2.945-3.286,1.9A7.26,7.26,0,0,1,24.757,65.5" fill="#27debf"/>
            <path id="Trazado_235986" data-name="Trazado 235986" d="M99.208,147.8V136.966a4.542,4.542,0,0,0-2.055-3.559L8.726,82.354c-1.135-.656-2.055-.125-2.055,1.186V94.377a4.54,4.54,0,0,0,2.055,3.559L97.153,148.99c1.135.655,2.055.124,2.055-1.187" fill="#e0e0e0"/>
          </g>
        </g>
      </g>
    </g>
  </g>
</svg>
