<svg id="Grupo_985581" data-name="Grupo 985581" xmlns="http://www.w3.org/2000/svg" xmlns:xlink="http://www.w3.org/1999/xlink" width="149.368" height="194.882" viewBox="0 0 149.368 194.882">
  <defs>
    <clipPath id="clip-path">
      <rect id="Rectángulo_59224" data-name="Rectángulo 59224" width="149.368" height="194.882" fill="none"/>
    </clipPath>
    <clipPath id="clip-path-3">
      <rect id="Rectángulo_59219" data-name="Rectángulo 59219" width="146.568" height="193.299" transform="translate(0 1.583)" fill="none"/>
    </clipPath>
    <clipPath id="clip-path-5">
      <rect id="Rectángulo_59220" data-name="Rectángulo 59220" width="147.973" height="85.713" transform="translate(0.727)" fill="none"/>
    </clipPath>
    <clipPath id="clip-path-6">
      <rect id="Rectángulo_59221" data-name="Rectángulo 59221" width="3.458" height="10.946" transform="translate(145.91 84.101)" fill="none"/>
    </clipPath>
    <clipPath id="clip-path-7">
      <rect id="Rectángulo_59222" data-name="Rectángulo 59222" width="3.603" height="101.276" transform="translate(145.762 93.404)" fill="none"/>
    </clipPath>
  </defs>
  <g id="Grupo_182863" data-name="Grupo 182863" clip-path="url(#clip-path)">
    <g id="Grupo_182862" data-name="Grupo 182862">
      <g id="Grupo_182861" data-name="Grupo 182861" clip-path="url(#clip-path)">
        <g id="Grupo_182851" data-name="Grupo 182851" opacity="0.8">
          <g id="Grupo_182850" data-name="Grupo 182850">
            <g id="Grupo_182849" data-name="Grupo 182849" clip-path="url(#clip-path-3)">
              <path id="Trazado_236059" data-name="Trazado 236059" d="M0,3.144V108.633a4.846,4.846,0,0,0,2.193,3.8l142.182,82.243a1.393,1.393,0,0,0,.726.208,1.214,1.214,0,0,0,.28-.036.825.825,0,0,0,.187-.064c.043-.022.079-.043.115-.065l.13-.086a.9.9,0,0,0,.122-.108,1.725,1.725,0,0,0,.4-.575,2.761,2.761,0,0,0,.23-1.108V87.882a4.853,4.853,0,0,0-2.193-3.8L2.193,1.879A1.588,1.588,0,0,0,.719,1.692.941.941,0,0,0,.532,1.8l-.014.015a.656.656,0,0,0-.144.144.335.335,0,0,0-.065.079.419.419,0,0,0-.072.115,1.018,1.018,0,0,0-.129.28.745.745,0,0,0-.05.194c-.008.015-.015.029-.008.043a1,1,0,0,0-.036.2C.007,2.957,0,3.051,0,3.144" fill="#455a64"/>
              <path id="Trazado_236060" data-name="Trazado 236060" d="M1.221,2.583a1.008,1.008,0,0,1,.472.161L143.875,84.951a3.865,3.865,0,0,1,1.693,2.931V192.839a1.748,1.748,0,0,1-.141.7.749.749,0,0,1-.167.249l-.051.047h0l-.04.027-.012.012a.415.415,0,0,1-.085.011.542.542,0,0,1-.195-.075L2.694,111.564A3.866,3.866,0,0,1,1,108.633V3.144c0-.058,0-.115.012-.188l.022-.045,0-.045.075-.226.014-.021L1.146,2.6h0a.164.164,0,0,1,.074-.013m0-1a1.174,1.174,0,0,0-.5.108A.99.99,0,0,0,.533,1.8l-.015.015a.723.723,0,0,0-.144.143.357.357,0,0,0-.064.08.365.365,0,0,0-.072.115.98.98,0,0,0-.13.28.787.787,0,0,0-.05.194c-.007.015-.014.029-.007.043a.88.88,0,0,0-.036.2C.008,2.957,0,3.05,0,3.144V108.633a4.847,4.847,0,0,0,2.194,3.8l142.181,82.243a1.434,1.434,0,0,0,.7.209h.03a1.23,1.23,0,0,0,.281-.036.861.861,0,0,0,.187-.064c.043-.022.079-.044.115-.065l.129-.086a.842.842,0,0,0,.122-.108,1.729,1.729,0,0,0,.4-.576,2.736,2.736,0,0,0,.23-1.107V87.882a4.857,4.857,0,0,0-2.193-3.8L2.194,1.878a2,2,0,0,0-.973-.3" fill="#455a64"/>
              <g id="Grupo_182848" data-name="Grupo 182848" opacity="0.7">
                <g id="Grupo_182847" data-name="Grupo 182847">
                  <g id="Grupo_182846" data-name="Grupo 182846" clip-path="url(#clip-path-3)">
                    <path id="Trazado_236061" data-name="Trazado 236061" d="M0,3.144V108.633a4.846,4.846,0,0,0,2.193,3.8l142.182,82.243a1.393,1.393,0,0,0,.726.208,1.214,1.214,0,0,0,.28-.036.825.825,0,0,0,.187-.064c.043-.022.079-.043.115-.065l.13-.086a.9.9,0,0,0,.122-.108,1.725,1.725,0,0,0,.4-.575,2.761,2.761,0,0,0,.23-1.108V87.882a4.853,4.853,0,0,0-2.193-3.8L2.193,1.879A1.588,1.588,0,0,0,.719,1.692.941.941,0,0,0,.532,1.8l-.014.015a.656.656,0,0,0-.144.144.335.335,0,0,0-.065.079.419.419,0,0,0-.072.115,1.018,1.018,0,0,0-.129.28.745.745,0,0,0-.05.194c-.008.015-.015.029-.008.043a1,1,0,0,0-.036.2C.007,2.957,0,3.051,0,3.144" fill="#455a64"/>
                  </g>
                </g>
              </g>
            </g>
          </g>
        </g>
        <path id="Trazado_236062" data-name="Trazado 236062" d="M.719,1.692a1.588,1.588,0,0,1,1.474.187L144.375,84.086a4.855,4.855,0,0,1,2.193,3.8v7.162l2.8-1.639V86.293a4.835,4.835,0,0,0-2.186-3.789L4.99.3A1.522,1.522,0,0,0,3.4.168C3.006.405,1.186,1.447.719,1.692" fill="#27debf"/>
        <path id="Trazado_236063" data-name="Trazado 236063" d="M0,3.13C.014,1.745.989,1.187,2.194,1.882L144.376,84.088a4.84,4.84,0,0,1,2.19,3.794l0,7.165L0,10.318Z" fill="#27debf"/>
        <g id="Grupo_182854" data-name="Grupo 182854" opacity="0.4">
          <g id="Grupo_182853" data-name="Grupo 182853">
            <g id="Grupo_182852" data-name="Grupo 182852" clip-path="url(#clip-path-5)">
              <path id="Trazado_236064" data-name="Trazado 236064" d="M2.195,1.881,144.374,84.088a4.5,4.5,0,0,1,1.543,1.625L148.7,84.1a4.368,4.368,0,0,0-1.524-1.6L4.992.295A1.539,1.539,0,0,0,3.4.166C3.008.407,1.189,1.44.728,1.688a1.583,1.583,0,0,1,1.467.193" fill="#fff"/>
            </g>
          </g>
        </g>
        <g id="Grupo_182857" data-name="Grupo 182857" opacity="0.15">
          <g id="Grupo_182856" data-name="Grupo 182856">
            <g id="Grupo_182855" data-name="Grupo 182855" clip-path="url(#clip-path-6)">
              <path id="Trazado_236065" data-name="Trazado 236065" d="M149.368,93.414l0-7.122A4.525,4.525,0,0,0,148.7,84.1l-2.79,1.606a4.432,4.432,0,0,1,.654,2.177v7.163Z"/>
            </g>
          </g>
        </g>
        <path id="Trazado_236066" data-name="Trazado 236066" d="M13.2,11.286a3.265,3.265,0,0,1,1.238,2.62c0,1.052-.554,1.586-1.238,1.191a3.265,3.265,0,0,1-1.238-2.62c0-1.053.554-1.586,1.238-1.191" fill="#455a64"/>
        <path id="Trazado_236067" data-name="Trazado 236067" d="M8.743,8.708a3.265,3.265,0,0,1,1.238,2.62c0,1.052-.554,1.586-1.238,1.191A3.265,3.265,0,0,1,7.505,9.9c0-1.052.554-1.586,1.238-1.191" fill="#455a64"/>
        <path id="Trazado_236068" data-name="Trazado 236068" d="M4.288,6.131a3.265,3.265,0,0,1,1.238,2.62c0,1.052-.554,1.586-1.238,1.191A3.265,3.265,0,0,1,3.05,7.322c0-1.052.554-1.586,1.238-1.191" fill="#455a64"/>
        <g id="Grupo_182860" data-name="Grupo 182860" opacity="0.9">
          <g id="Grupo_182859" data-name="Grupo 182859">
            <g id="Grupo_182858" data-name="Grupo 182858" clip-path="url(#clip-path-7)">
              <path id="Trazado_236069" data-name="Trazado 236069" d="M145.762,194.68c.079-.05.174-.1.273-.158.2-.122.432-.252.677-.381l.006-.008c.123-.071.246-.143.367-.208a.055.055,0,0,1,.03-.014c.2-.115.394-.23.574-.331s.353-.2.482-.273.23-.13.274-.151a1.251,1.251,0,0,0,.373-.3,1.633,1.633,0,0,0,.3-.446,2.717,2.717,0,0,0,.252-1.158V93.4l-2.8,1.64v97.8a3.257,3.257,0,0,1-.23,1.108,1.73,1.73,0,0,1-.4.575.381.381,0,0,1-.123.108.162.162,0,0,1-.051.05" fill="#37474f"/>
            </g>
          </g>
        </g>
        <path id="Trazado_236070" data-name="Trazado 236070" d="M99.035,131.556s5.176-3.347,5.845-3.368l14.7-.462-5.845,3.111v.257Z" fill="#263238"/>
        <path id="Trazado_236071" data-name="Trazado 236071" d="M99.035,143.778V131.556l14.7-.462v-.257l-14.7-17.528V101.087l25.215,31.341v9.21Z" fill="#fafafa"/>
        <path id="Trazado_236072" data-name="Trazado 236072" d="M99.035,101.087l5.845-3.368,25.215,31.341-5.845,3.368Z" fill="#455a64"/>
        <path id="Trazado_236073" data-name="Trazado 236073" d="M130.094,129.06v9.21l-5.845,3.368v-9.21Z" fill="#37474f"/>
        <path id="Trazado_236074" data-name="Trazado 236074" d="M64.54,66.368l7.548,4.358L91.6,142.241l-7.827-4.518Z" fill="#fafafa"/>
        <path id="Trazado_236075" data-name="Trazado 236075" d="M64.54,66.368,70.385,63l7.548,4.358-5.845,3.368Z" fill="#455a64"/>
        <path id="Trazado_236076" data-name="Trazado 236076" d="M77.933,67.357l-5.845,3.368L91.6,142.24l5.845-3.368Z" fill="#37474f"/>
        <path id="Trazado_236077" data-name="Trazado 236077" d="M62.95,103.981,57.1,107.349l-14.7-17.7,5.845-3.368Z" fill="#263238"/>
        <path id="Trazado_236078" data-name="Trazado 236078" d="M42.4,89.908l14.7,17.44v12.223L31.891,88.315V79.106L57.1,76.879V89.1l-14.7.548Z" fill="#fafafa"/>
        <path id="Trazado_236079" data-name="Trazado 236079" d="M62.95,73.512,57.1,76.88,31.891,79.106l5.845-3.368Z" fill="#455a64"/>
        <path id="Trazado_236080" data-name="Trazado 236080" d="M57.1,76.879V89.1l5.845-3.368V73.511" fill="#37474f"/>
        <path id="Trazado_236081" data-name="Trazado 236081" d="M62.95,103.981,57.1,107.349v12.222L62.95,116.2Z" fill="#37474f"/>
      </g>
    </g>
  </g>
</svg>
