<svg xmlns="http://www.w3.org/2000/svg" width="163.85" height="171.388" viewBox="0 0 163.85 171.388">
  <g id="Grupo_985689" data-name="Grupo 985689" transform="translate(21.17 29.475)">
    <rect id="Rectángulo_49533" data-name="Rectángulo 49533" width="125.073" height="116.129" transform="translate(17.606 25.784)" fill="#ffde96"/>
    <g id="BUtFOk" transform="translate(-21.17 -29.475)">
      <g id="Grupo_895141" data-name="Grupo 895141" transform="translate(0)">
        <path id="Trazado_616594" data-name="Trazado 616594" d="M9.521-1418.71H11.3q35.42,0,70.84-.015a3.34,3.34,0,0,1,2.656,1.13c8.769,9.083,17.589,18.116,26.343,27.213a3.787,3.787,0,0,1,.978,2.382q.074,57.507.043,115.014c0,.448-.054.9-.088,1.424H9.521Zm98.305,142.834c0-.8,0-1.4,0-2.01q0-9.045-.007-18.09,0-45.226-.03-90.451a3.37,3.37,0,0,0-.875-2.119c-8.01-8.318-16.079-16.58-24.1-24.889a3.018,3.018,0,0,0-2.411-.972q-32.5.033-64.994.017H13.87v138.514Z" transform="translate(-9.521 1418.725)" fill="#12263f"/>
        <path id="Trazado_616595" data-name="Trazado 616595" d="M385.071-1268.737H389.4v1.511q0,40.17-.024,80.34a4.559,4.559,0,0,1-.565,2.15c-3.046,5.374-6.143,10.718-9.235,16.066-.966,1.671-4,1.622-4.985-.075-3.067-5.3-6.144-10.6-9.167-15.928a4.56,4.56,0,0,1-.567-2.151q-.042-40.247-.021-80.493c0-.446.048-.893.077-1.414h4.2v75.139h15.955Zm.375,79.658H369.295c-.545,1.755.224,3.063,1.05,4.376,1.026,1.631,1.648,3.918,3.112,4.76s3.77.17,5.691.339a2.439,2.439,0,0,0,2.717-1.618c.711-1.461,1.687-2.795,2.391-4.259A29.8,29.8,0,0,0,385.446-1189.079Zm-8.355,16.027,1.206-2.141h-2.436Z" transform="translate(-255.682 1314.813)" fill="#12263f"/>
        <path id="Trazado_616596" data-name="Trazado 616596" d="M389.407-1324.758h-24.39a3.161,3.161,0,0,1-.172-.71c-.012-4.444-.027-8.889.01-13.333a3.988,3.988,0,0,1,.519-1.347c.037-.088.145-.143.2-.225a8.718,8.718,0,0,1,8.784-3.779c3.075.354,6.224.033,9.338.117a3.984,3.984,0,0,1,2,.769c3.067,2.124,4.186,4.992,3.777,8.767A91.928,91.928,0,0,0,389.407-1324.758Zm-4.432-10.637c.3-3.092-.814-4.369-3.646-4.369q-4.288,0-8.576,0c-2.8.006-3.98,1.491-3.406,4.367Zm-15.771,6.228h15.754v-1.683H369.2Z" transform="translate(-255.681 1367.12)" fill="#12263f"/>
        <path id="Trazado_616597" data-name="Trazado 616597" d="M398.2-1223.778h4.085v58.293H398.2Z" transform="translate(-278.801 1283.666)" fill="#12263f"/>
        <path id="Trazado_616598" data-name="Trazado 616598" d="M402.3-1270.536v4.1h-4.17v-4.1Z" transform="translate(-278.754 1316.059)" fill="#12263f"/>
        <path id="Trazado_616599" data-name="Trazado 616599" d="M398.1-1247.338h4.1v4.134h-4.1Z" transform="translate(-278.731 1299.988)" fill="#12263f"/>
        <path id="Trazado_616600" data-name="Trazado 616600" d="M159.588-1255.725h-5.916c-7.973,0-15.946-.018-23.918.033a3.01,3.01,0,0,0-1.987.755q-13.1,13.881-26.115,27.848c-.163.175-.3.372-.582.72l2.382.115v4.174h-9.64v-9.625h4.147c.051.571.1,1.119.168,1.891.434-.391.773-.655,1.063-.965q12.005-12.81,23.97-25.657a4.029,4.029,0,0,0,.933-2.405c.112-2.9.043-5.8.043-8.792H128.4v7.5h26.874v-26.723h-26.8v7.558h-4.226v-11.885h35.342Z" transform="translate(-67.917 1330.366)" fill="#12263f"/>
        <path id="Trazado_616601" data-name="Trazado 616601" d="M102.536-1275.719l-1.447-1.554,2.876-2.776,6.606,6.625-6.68,6.7-2.777-2.881,1.412-1.565H80.249v15.371H44.717v-35.325H80.16v15.41Zm-26.762,15.64v-26.746H49.028v26.746Z" transform="translate(-33.905 1330.326)" fill="#12263f"/>
        <path id="Trazado_616602" data-name="Trazado 616602" d="M75.9-1121.548h4.37v6.418h22.3l-1.414-1.643,2.9-2.52,6.442,6.434-6.5,6.5-2.615-2.852,1.217-1.375H80.351v15.392H44.85v-35.371H68.62v4.185H49.128v26.864H75.9Z" transform="translate(-33.997 1219.089)" fill="#12263f"/>
        <path id="Trazado_616603" data-name="Trazado 616603" d="M101.023-1388.519v15.6H44.712v-15.6Zm-4.286,4.34H49.047v6.906h47.69Z" transform="translate(-33.901 1397.798)" fill="#12263f"/>
        <path id="Trazado_616604" data-name="Trazado 616604" d="M192.744-1095.159v-11.8h4.227v7.469H223.8v-26.753H197.072v7.519h-4.308v-11.788h35.331v35.353Z" transform="translate(-136.458 1219.05)" fill="#12263f"/>
        <path id="Trazado_616605" data-name="Trazado 616605" d="M245.447-1369.437h17.774v4.227H241.249v-22.828h4.2Z" transform="translate(-170.063 1397.465)" fill="#12263f"/>
        <path id="Trazado_616606" data-name="Trazado 616606" d="M82.9-1326.229v4.1H51.865v-4.1Z" transform="translate(-38.857 1354.644)" fill="#12263f"/>
        <path id="Trazado_616607" data-name="Trazado 616607" d="M82.872-1005.551v4.129H51.813v-4.129Z" transform="translate(-38.821 1132.477)" fill="#12263f"/>
        <path id="Trazado_616608" data-name="Trazado 616608" d="M51.715-1161.854v-4.151H82.76v4.151Z" transform="translate(-38.753 1243.64)" fill="#12263f"/>
        <path id="Trazado_616609" data-name="Trazado 616609" d="M230.58-1165.958v4.239h-1.7c-9.232,0-18.464-.037-27.694.036-1.537.012-1.986-.479-1.8-1.911a19.019,19.019,0,0,0,.017-2.365Z" transform="translate(-141.03 1243.607)" fill="#12263f"/>
        <path id="Trazado_616610" data-name="Trazado 616610" d="M230.647-1005.879v4.239H199.5a24.125,24.125,0,0,1,.059-3.4c.049-.333.8-.8,1.23-.8,3.727-.069,7.456-.05,11.185-.05q8.427,0,16.854.013Z" transform="translate(-141.119 1132.715)" fill="#12263f"/>
        <path id="Trazado_616611" data-name="Trazado 616611" d="M123.192-1267.576v18.993h-4.257v-14.737h-3.041v-4.256Z" transform="translate(-83.217 1314.009)" fill="#12263f"/>
        <path id="Trazado_616612" data-name="Trazado 616612" d="M68.919-1263.467v-4.1h4.1v4.1Z" transform="translate(-50.672 1314)" fill="#12263f"/>
        <path id="Trazado_616613" data-name="Trazado 616613" d="M96.7-1267.514v4.059h-4.16v-4.059Z" transform="translate(-67.038 1313.966)" fill="#12263f"/>
        <path id="Trazado_616614" data-name="Trazado 616614" d="M156.032-1365.886v-4.12H170.51v4.12Z" transform="translate(-111.024 1384.972)" fill="#12263f"/>
        <path id="Trazado_616615" data-name="Trazado 616615" d="M136.824-1365.823h-4.135v-4.172h4.135Z" transform="translate(-94.852 1384.965)" fill="#12263f"/>
        <path id="Trazado_616616" data-name="Trazado 616616" d="M109.464-1370.091h4.048v4.148h-4.048Z" transform="translate(-78.762 1385.031)" fill="#12263f"/>
      </g>
    </g>
  </g>
</svg>
