<svg xmlns="http://www.w3.org/2000/svg" width="195.768" height="172.929" viewBox="0 0 195.768 172.929">
  <g id="Grupo_894903" data-name="Grupo 894903" transform="translate(47.632 33.714)">
    <rect id="Rectángulo_49533" data-name="Rectángulo 49533" width="121.994" height="113.27" transform="translate(26.142 25.944)" fill="#ffde96"/>
    <g id="emmf59" transform="translate(-47.632 -33.714)">
      <g id="Grupo_892598" data-name="Grupo 892598">
        <path id="Trazado_612190" data-name="Trazado 612190" d="M-425.779-319.227h36.35v26.01H-425.8V-282.8h36.339v26.126h-36.306v10.471h20.479c0,3.635.441,7.158-.1,10.524A12.517,12.517,0,0,1-417.991-225.3q-52.285.02-104.57,0a12.929,12.929,0,0,1-12.96-13.123q-.017-55.466.029-110.933a2.387,2.387,0,0,0-1.807-2.674,18.184,18.184,0,0,1-10.908-20.7,18.276,18.276,0,0,1,17.814-14.4q59.871-.027,119.742.019a4.548,4.548,0,0,1,2.261.651q8.882,5.462,17.7,11.03c5.391,3.4,5.387,9.7-.021,13.126q-8.878,5.62-17.832,11.121a4.307,4.307,0,0,1-2.126.555c-5,.047-9.994.025-15.109.025Zm-104.539-31.3v1.889q0,54.574,0,109.149c0,.489-.015.98.018,1.468a7.839,7.839,0,0,0,9.876,7.193,7.893,7.893,0,0,0,5.767-7.619c.051-2.535.01-5.072.01-7.785h83.46v-10.416h-5.207v-10.471h-15.6V-285.38c-3.111,2.226-4.884,4.918-5.175,8.439-.134,1.621-.045,3.261-.06,4.892a15.642,15.642,0,0,1-19.718,14.891,15.192,15.192,0,0,1-11.517-15.3,16.013,16.013,0,0,0-5.745-13.593c-8.335-7.487-11.305-17.207-9.556-28.207,2.2-13.834,14.749-25.085,28.486-25.851,15-.836,28.264,8.184,32.341,22.161.854,2.928,1.179,6.011,1.753,9.048h4.879V-319.33h5.114v-31.195Zm67.8,72.979c.308-1.277.521-2.458.88-3.592,1.055-3.327,3.291-5.771,5.842-8.07,7.258-6.539,10.207-14.707,8.521-24.357a26.148,26.148,0,0,0-28.99-21.141c-14.411,1.784-25.19,16.438-22.254,30.663a26.883,26.883,0,0,0,9.367,15.6,16.2,16.2,0,0,1,5.386,8.543c.2.772.325,1.563.478,2.31h4.969c-.521-7.837-1.035-15.564-1.556-23.409-1.247,0-2.328.009-3.408,0a7.775,7.775,0,0,1-7.857-7.517,7.8,7.8,0,0,1,7.24-8.125c4.782-.219,8.434,2.831,8.737,7.281.069,1.016.193,2.029.292,3.043h4.007c.1-1.131.207-2.157.282-3.185.317-4.33,3.992-7.346,8.706-7.139a7.8,7.8,0,0,1,7.267,7.941,7.775,7.775,0,0,1-7.679,7.7c-1.172.018-2.344,0-3.6,0-.523,7.956-1.031,15.672-1.542,23.456ZM-512.028-230.5h1.631q45.84,0,91.681,0c5.84,0,9.482-4.578,8.287-10.332h-99.036C-509.2-237.189-509.632-233.789-512.028-230.5Zm97.85-138.4a5.43,5.43,0,0,0-5.056-2.639q-47.939.141-95.88.063h-2.026v5.233h2.072q47.7,0,95.39.051C-417.293-366.2-415.433-366.624-414.178-368.91Zm-.382-12.9H-517.132v5.118h82.026c5.547,0,11.094.017,16.64-.027a2.188,2.188,0,0,0,1.628-.613C-415.995-378.707-415.355-380.2-414.56-381.813Zm.034,25.927c-.674-1.352-1.362-2.516-1.845-3.76a2.083,2.083,0,0,0-2.345-1.425q-48.372.052-96.744.028h-1.671v5.158Zm-16.47,41.9v15.472h36.346v-15.472Zm0,36.552v15.473h36.354v-15.473ZM-522.543-381.9c-2.9,0-5.616-.112-8.322.023A13.012,13.012,0,0,0-543.057-371.5a13.013,13.013,0,0,0,7.543,14.554c4.2,1.819,8.614.936,12.971,1.128Zm86.157,88.77v-10.479c-1.585,0-3,.047-4.4-.016-.937-.043-1.187.33-1.5,1.215-1.164,3.305-2.544,6.534-3.807,9.805a7.3,7.3,0,0,0-.657,2.428c-.058,5.433-.03,10.867-.03,16.3v1.52H-436.3v-10.425h5.112v-10.349Zm27.229-63.853c5.431-3.392,10.691-6.646,15.915-9.958,1.7-1.075,1.743-2.744.088-3.8-5.265-3.347-10.575-6.622-15.991-10-.9,1.774-1.714,3.479-2.617,5.136a1.26,1.26,0,0,0,.3,1.8c1.693,1.578,3.32,3.227,5.113,4.985l-5.919,5.615Zm-53.353,84.792h-20.74a10.457,10.457,0,0,0,10.284,10.354A10.453,10.453,0,0,0-462.51-272.194ZM-474.585-301c.51,7.609,1.007,15.041,1.505,22.472l.408-.013c.494-7.431.987-14.862,1.492-22.459h-3.4Zm-5.815-5.216a24.975,24.975,0,0,0-.019-2.821,2.708,2.708,0,0,0-2.966-2.391,2.744,2.744,0,0,0-2.532,2.521,2.693,2.693,0,0,0,2.7,2.68C-482.314-306.17-481.4-306.218-480.4-306.218Zm15.031,0c.954,0,1.864.042,2.768-.009a2.7,2.7,0,0,0,2.756-2.624,2.739,2.739,0,0,0-2.635-2.585,2.694,2.694,0,0,0-2.873,2.5C-465.44-308.095-465.368-307.235-465.368-306.216Z" transform="translate(548.597 387.139)" fill="#12263f"/>
        <path id="Trazado_612191" data-name="Trazado 612191" d="M-450.489-83.334v5.007h-25.94v-5.007Z" transform="translate(500.022 182.651)" fill="#12263f"/>
        <path id="Trazado_612192" data-name="Trazado 612192" d="M-450.484-51.387v5h-25.94v-5Z" transform="translate(500.018 161.148)" fill="#12263f"/>
        <path id="Trazado_612193" data-name="Trazado 612193" d="M-476.448-14.532V-19.54h25.94v5.008Z" transform="translate(500.035 139.712)" fill="#12263f"/>
        <path id="Trazado_612194" data-name="Trazado 612194" d="M-476.393,12.376h5V17.4h-5Z" transform="translate(499.997 118.23)" fill="#12263f"/>
        <path id="Trazado_612195" data-name="Trazado 612195" d="M-439.315,12.448v4.978h-5.064V12.448Z" transform="translate(478.449 118.182)" fill="#12263f"/>
        <path id="Trazado_612196" data-name="Trazado 612196" d="M-412.372,12.247h4.948v5.064h-4.948Z" transform="translate(456.906 118.317)" fill="#12263f"/>
        <path id="Trazado_612197" data-name="Trazado 612197" d="M-167.851-142.154h-4.979v-5.064h4.979Z" transform="translate(295.673 225.651)" fill="#12263f"/>
        <path id="Trazado_612198" data-name="Trazado 612198" d="M-140.9-147.381h4.986v5.064H-140.9Z" transform="translate(274.18 225.761)" fill="#12263f"/>
        <path id="Trazado_612199" data-name="Trazado 612199" d="M-103.982-142.225h-5.005v-5.034h5.005Z" transform="translate(252.701 225.678)" fill="#12263f"/>
        <path id="Trazado_612200" data-name="Trazado 612200" d="M-167.9-30.375h-4.948v-5.064h4.948Z" transform="translate(295.684 150.414)" fill="#12263f"/>
        <path id="Trazado_612201" data-name="Trazado 612201" d="M-141.065-30.415v-5.008h5.037v5.008Z" transform="translate(274.292 150.403)" fill="#12263f"/>
        <path id="Trazado_612202" data-name="Trazado 612202" d="M-104.015-30.375h-4.948v-5.064h4.948Z" transform="translate(252.685 150.414)" fill="#12263f"/>
      </g>
    </g>
  </g>
</svg>
