<svg xmlns="http://www.w3.org/2000/svg" width="194.226" height="191.491" viewBox="0 0 194.226 191.491">
  <g id="Grupo_985691" data-name="Grupo 985691" transform="translate(32.556 33.633)">
    <rect id="Rectángulo_49533" data-name="Rectángulo 49533" width="135.176" height="125.509" transform="translate(26.493 32.35)" fill="#ffde96"/>
    <g id="EI0LS1" transform="translate(-32.556 -33.633)">
      <g id="Grupo_895140" data-name="Grupo 895140">
        <path id="Trazado_616583" data-name="Trazado 616583" d="M154.388-659.744a3.344,3.344,0,0,0,.593.118c4.648-.354,5.356,1.16,5.134,5.259-.061,1.129.011,2.264-.017,3.4a8.527,8.527,0,0,1-8.56,8.5c-5.956.058-11.913.015-17.869.016h-2.156v2.02q0,12.869,0,25.738c-.009,7.5-4.788,12.276-12.284,12.28q-19.21.012-38.419,0c-7.392-.005-12.179-4.8-12.2-12.184,0-1.787-.029-3.575.005-5.362a6,6,0,0,0-3.152-5.611q-4.519-2.7-9.033-5.416c-2.833-1.712-2.846-4.046-.033-5.751,2.98-1.805,5.971-3.592,8.878-5.713h-4.9c-5.123,0-10.245-.014-15.367.019a2.967,2.967,0,0,0-1.8.445c-1.653,1.429-3.2,2.985-4.882,4.593.557.231,1.156.455,1.735.723Q61.8-626.588,62.877-602.639c.077,1.724.022,3.455.01,5.183-.019,2.648-1,3.621-3.705,3.622q-19.12.01-38.24,0-14.117,0-28.233,0c-3.373,0-4.094-.8-4.174-4.241-.142-6.056.223-12.025,2.531-17.724a37.137,37.137,0,0,1,21.041-21.18c.32-.132.638-.268,1-.419-1.717-1.642-3.333-3.25-5.035-4.761a2.529,2.529,0,0,0-1.511-.283c-3.038-.024-6.076.007-9.113-.017a8.573,8.573,0,0,1-8.9-8.9q-.021-2.323,0-4.647c.019-2.593.987-3.577,3.536-3.609.648-.008,1.3,0,2.181,0v-2.17q0-49.688,0-99.375c0-3.516.762-4.273,4.3-4.273H150.1c3.52,0,4.286.766,4.286,4.295q0,49.6,0,99.2Zm-151.373.055A23.057,23.057,0,0,1,24.541-679.6c9.269-.537,21.272,5.205,23.964,19.849h20.1v-2.284q0-23.949,0-47.9c0-7.9,4.658-12.59,12.5-12.592q18.94,0,37.881,0c7.876,0,12.517,4.664,12.519,12.579q0,24.038,0,48.076v2.152h8.447v-71.24H8.486v45.483H2.845v-1.9q0-28.417,0-56.834c0-3.245.836-4.06,4.158-4.06H141.551c3.5,0,4.258.77,4.258,4.321q0,41.106,0,82.212v2.032h2.747V-759.58H.129v99.891ZM62.762-633.87c2.165,1.308,4.057,2.415,5.912,3.581a11.46,11.46,0,0,1,5.649,10.122c.024,1.786,0,3.573.005,5.36.007,4.483,2.2,6.674,6.688,6.675q19.025,0,38.051,0c4.593,0,6.726-2.163,6.726-6.817q0-47.53,0-95.06c0-4.637-2.145-6.8-6.743-6.8q-18.936,0-37.872,0c-4.762,0-6.85,2.092-6.851,6.861q0,30.913.011,61.825a11.88,11.88,0,0,1-6.258,11.045C66.391-636.095,64.731-635.06,62.762-633.87ZM-5.624-599.68h62.7a31.52,31.52,0,0,0-31.451-34.189A31.512,31.512,0,0,0-5.624-599.68Zm14.19-57.143a17.189,17.189,0,0,0,17.077,17.229,17.214,17.214,0,0,0,17.226-17.093,17.184,17.184,0,0,0-17.083-17.222A17.179,17.179,0,0,0,8.566-656.822ZM139.941-736.86v-5.568H8.706v5.568Zm-8.357,88.68c6.783,0,13.386.033,19.989-.023a2.678,2.678,0,0,0,2.783-2.7c.089-.928.016-1.873.016-2.884H131.584ZM47.1-648.3H68.524v-5.459H48.486Zm-52.817-5.538c0,1.088-.062,2.029.014,2.959a2.581,2.581,0,0,0,2.432,2.625c2.512.151,5.039.042,7.626.042l-1.432-5.626Z" transform="translate(11.492 765.428)" fill="#12263f"/>
        <path id="Trazado_616584" data-name="Trazado 616584" d="M85.4-619.885c2.4-2.88,4.493-5.392,6.59-7.9,1.919-2.3,3.7-2.331,5.578-.079q6.636,7.943,13.257,15.9c.887,1.061,1.522,2.148.868,3.564-.68,1.473-1.942,1.729-3.409,1.726q-22.04-.027-44.081,0c-1.544,0-2.861-.283-3.492-1.87-.608-1.526.178-2.6,1.207-3.619,4.388-4.362,8.75-8.751,13.132-13.119,1.932-1.926,3.27-1.952,5.169-.038C81.928-623.6,83.571-621.81,85.4-619.885Zm17.542,7.4L94.8-622.237,86.7-612.484ZM77.777-619.32,70.8-612.407a43.447,43.447,0,0,1,5.759.049c2.822.378,3.954-1.389,4.98-3.091Z" transform="translate(-34.723 678.186)" fill="#12263f"/>
        <path id="Trazado_616585" data-name="Trazado 616585" d="M226.034-735.567H220.6v-5.562h5.434Z" transform="translate(-137.504 749.828)" fill="#12263f"/>
        <path id="Trazado_616586" data-name="Trazado 616586" d="M284.4-573.362v5.5h-39.8v-5.5Z" transform="translate(-152.907 642.127)" fill="#12263f"/>
        <path id="Trazado_616587" data-name="Trazado 616587" d="M284.313-535.861H244.574v-5.567h39.739Z" transform="translate(-152.895 621.627)" fill="#12263f"/>
        <path id="Trazado_616588" data-name="Trazado 616588" d="M284.313-503.909H244.574v-5.567h39.739Z" transform="translate(-152.895 601.114)" fill="#12263f"/>
        <path id="Trazado_616589" data-name="Trazado 616589" d="M244.409-472.1v-5.5h39.8v5.5Z" transform="translate(-152.789 580.651)" fill="#12263f"/>
        <path id="Trazado_616590" data-name="Trazado 616590" d="M244.548-445.7h39.8v5.5h-39.8Z" transform="translate(-152.878 560.171)" fill="#12263f"/>
        <path id="Trazado_616591" data-name="Trazado 616591" d="M284.351-408.11H244.563v-5.52h39.788Z" transform="translate(-152.888 539.584)" fill="#12263f"/>
        <path id="Trazado_616592" data-name="Trazado 616592" d="M244.409-376.24v-5.5h39.8v5.5Z" transform="translate(-152.789 519.114)" fill="#12263f"/>
        <path id="Trazado_616593" data-name="Trazado 616593" d="M244.4-599.9v-5.5h28.366v5.5Z" transform="translate(-152.784 662.696)" fill="#12263f"/>
      </g>
    </g>
  </g>
</svg>
