<svg xmlns="http://www.w3.org/2000/svg" width="943" height="318" viewBox="0 0 943 318">
  <g id="Grupo_985821" data-name="Grupo 985821" transform="translate(1971 9946)">
    <path id="Trazado_659154" data-name="Trazado 659154" d="M5,0H214a5,5,0,0,1,5,5V45a5,5,0,0,1-5,5H5a5,5,0,0,1-5-5V5A5,5,0,0,1,5,0Z" transform="translate(-1767 -9944)" fill="#dee4f0"/>
    <path id="Trazado_659155" data-name="Trazado 659155" d="M5,0H214a5,5,0,0,1,5,5V45a5,5,0,0,1-5,5H5a5,5,0,0,1-5-5V5A5,5,0,0,1,5,0Z" transform="translate(-1971 -9870)" fill="#dee4f0"/>
    <path id="Trazado_659169" data-name="Trazado 659169" d="M5,0H214a5,5,0,0,1,5,5V45a5,5,0,0,1-5,5H5a5,5,0,0,1-5-5V5A5,5,0,0,1,5,0Z" transform="translate(-1971 -9678)" fill="#dee4f0"/>
    <path id="Trazado_659165" data-name="Trazado 659165" d="M5,0H214a5,5,0,0,1,5,5V45a5,5,0,0,1-5,5H5a5,5,0,0,1-5-5V5A5,5,0,0,1,5,0Z" transform="translate(-1247 -9870)" fill="#dee4f0"/>
    <path id="Trazado_659170" data-name="Trazado 659170" d="M5,0H214a5,5,0,0,1,5,5V45a5,5,0,0,1-5,5H5a5,5,0,0,1-5-5V5A5,5,0,0,1,5,0Z" transform="translate(-1247 -9678)" fill="#dee4f0"/>
    <path id="Trazado_659171" data-name="Trazado 659171" d="M5,0H214a5,5,0,0,1,5,5V45a5,5,0,0,1-5,5H5a5,5,0,0,1-5-5V5A5,5,0,0,1,5,0Z" transform="translate(-1599 -9678)" fill="#dee4f0"/>
    <path id="Trazado_659160" data-name="Trazado 659160" d="M5,0H214a5,5,0,0,1,5,5V45a5,5,0,0,1-5,5H5a5,5,0,0,1-5-5V5A5,5,0,0,1,5,0Z" transform="translate(-1436 -9946)" fill="#dee4f0"/>
    <path id="Trazado_659156" data-name="Trazado 659156" d="M-74.912-5.01V0h-2.93V-14.219h5.547a6.417,6.417,0,0,1,2.817.586,4.318,4.318,0,0,1,1.87,1.665,4.643,4.643,0,0,1,.654,2.456,4.083,4.083,0,0,1-1.431,3.3,5.959,5.959,0,0,1-3.96,1.206Zm0-2.373h2.617a2.573,2.573,0,0,0,1.772-.547,1.989,1.989,0,0,0,.61-1.562,2.345,2.345,0,0,0-.615-1.689,2.3,2.3,0,0,0-1.7-.664h-2.686Zm15.723-.537A7.667,7.667,0,0,0-60.205-8a2.067,2.067,0,0,0-2.1,1.084V0h-2.822V-10.566h2.666l.078,1.26a2.615,2.615,0,0,1,2.354-1.455,2.957,2.957,0,0,1,.879.127ZM-51.5-1.074A3.539,3.539,0,0,1-54.395.2a3.338,3.338,0,0,1-2.593-.977A4.169,4.169,0,0,1-57.9-3.643v-6.924h2.822v6.834q0,1.652,1.5,1.652a2.038,2.038,0,0,0,1.973-1v-7.489h2.832V0h-2.656ZM-41.777.2A5.187,5.187,0,0,1-45.562-1.23a5.068,5.068,0,0,1-1.46-3.8V-5.3a6.383,6.383,0,0,1,.615-2.847,4.515,4.515,0,0,1,1.743-1.934,4.893,4.893,0,0,1,2.573-.679,4.385,4.385,0,0,1,3.413,1.367,5.555,5.555,0,0,1,1.245,3.877v1.152H-44.16a2.622,2.622,0,0,0,.825,1.66,2.5,2.5,0,0,0,1.743.625,3.046,3.046,0,0,0,2.549-1.182l1.387,1.553a4.237,4.237,0,0,1-1.719,1.4A5.639,5.639,0,0,1-41.777.2ZM-42.1-8.486a1.764,1.764,0,0,0-1.362.569,2.946,2.946,0,0,0-.669,1.628h3.926v-.226a2.1,2.1,0,0,0-.508-1.457A1.819,1.819,0,0,0-42.1-8.486Zm15.791,3.3a6.4,6.4,0,0,1-1.084,3.96A3.591,3.591,0,0,1-30.42.2a3.3,3.3,0,0,1-2.744-1.318L-33.291,0H-35.83V-15h2.822v5.381a3.214,3.214,0,0,1,2.568-1.143,3.62,3.62,0,0,1,3.032,1.421,6.408,6.408,0,0,1,1.1,4ZM-29.131-5.4a4.227,4.227,0,0,0-.508-2.346,1.715,1.715,0,0,0-1.514-.74,1.861,1.861,0,0,0-1.855,1.107V-3.2A1.886,1.886,0,0,0-31.133-2.08a1.743,1.743,0,0,0,1.8-1.352A6.993,6.993,0,0,0-29.131-5.4ZM-18.447,0a3.134,3.134,0,0,1-.283-.947A3.415,3.415,0,0,1-21.4.2,3.752,3.752,0,0,1-23.97-.7,2.89,2.89,0,0,1-24.99-2.969a2.986,2.986,0,0,1,1.245-2.578,6.144,6.144,0,0,1,3.6-.908h1.3v-.605a1.741,1.741,0,0,0-.376-1.172,1.479,1.479,0,0,0-1.187-.439,1.682,1.682,0,0,0-1.118.342,1.161,1.161,0,0,0-.405.938h-2.822a2.835,2.835,0,0,1,.566-1.7,3.744,3.744,0,0,1,1.6-1.226,5.837,5.837,0,0,1,2.324-.444,4.611,4.611,0,0,1,3.1.981,3.433,3.433,0,0,1,1.147,2.759v4.58A5.052,5.052,0,0,0-15.6-.166V0Zm-2.334-1.963a2.431,2.431,0,0,0,1.152-.278,1.828,1.828,0,0,0,.781-.747V-4.8H-19.9q-2.119,0-2.256,1.465l-.01.166A1.13,1.13,0,0,0-21.8-2.3,1.441,1.441,0,0,0-20.781-1.963ZM-8.125-2.92a.909.909,0,0,0-.513-.815,5.824,5.824,0,0,0-1.646-.532q-3.77-.791-3.77-3.2a2.9,2.9,0,0,1,1.167-2.349,4.708,4.708,0,0,1,3.052-.942,5.067,5.067,0,0,1,3.218.947A2.985,2.985,0,0,1-5.41-7.354H-8.232a1.366,1.366,0,0,0-.391-1,1.653,1.653,0,0,0-1.221-.4,1.689,1.689,0,0,0-1.1.322,1.017,1.017,0,0,0-.391.82.87.87,0,0,0,.444.757,4.571,4.571,0,0,0,1.5.5,12.244,12.244,0,0,1,1.777.474A2.92,2.92,0,0,1-5.381-3.037,2.756,2.756,0,0,1-6.621-.7,5.35,5.35,0,0,1-9.824.2a5.588,5.588,0,0,1-2.358-.474,3.957,3.957,0,0,1-1.616-1.3,3.018,3.018,0,0,1-.586-1.782h2.676a1.473,1.473,0,0,0,.557,1.152,2.208,2.208,0,0,0,1.387.4A2.044,2.044,0,0,0-8.54-2.114.957.957,0,0,0-8.125-2.92ZM7.744-1.074A3.539,3.539,0,0,1,4.854.2,3.338,3.338,0,0,1,2.261-.781a4.169,4.169,0,0,1-.913-2.861v-6.924H4.17v6.834q0,1.652,1.5,1.652a2.038,2.038,0,0,0,1.973-1v-7.489h2.832V0H7.822Zm7.461-9.492.088,1.221a3.689,3.689,0,0,1,3.037-1.416,3.066,3.066,0,0,1,2.5.986,4.6,4.6,0,0,1,.84,2.949V0H18.848V-6.773a1.838,1.838,0,0,0-.391-1.307,1.746,1.746,0,0,0-1.3-.406,1.941,1.941,0,0,0-1.787,1.018V0H12.549V-10.566ZM26.787,0H23.955V-10.566h2.832Zm-3-13.3a1.39,1.39,0,0,1,.425-1.045,1.6,1.6,0,0,1,1.157-.41,1.6,1.6,0,0,1,1.152.41,1.382,1.382,0,0,1,.43,1.045,1.386,1.386,0,0,1-.435,1.055,1.6,1.6,0,0,1-1.147.41,1.6,1.6,0,0,1-1.147-.41A1.386,1.386,0,0,1,23.789-13.3Zm8.7.137v2.6H34.3V-8.5H32.49v5.273a1.259,1.259,0,0,0,.225.84,1.128,1.128,0,0,0,.859.254A4.5,4.5,0,0,0,34.4-2.2V-.059A5.81,5.81,0,0,1,32.7.2q-2.969,0-3.027-3V-8.5H28.125v-2.07h1.543v-2.6ZM41.992,0a3.134,3.134,0,0,1-.283-.947A3.415,3.415,0,0,1,39.043.2,3.752,3.752,0,0,1,36.47-.7a2.89,2.89,0,0,1-1.021-2.266,2.986,2.986,0,0,1,1.245-2.578,6.144,6.144,0,0,1,3.6-.908h1.3v-.605a1.741,1.741,0,0,0-.376-1.172,1.479,1.479,0,0,0-1.187-.439,1.682,1.682,0,0,0-1.118.342,1.161,1.161,0,0,0-.405.938H35.684a2.835,2.835,0,0,1,.566-1.7,3.744,3.744,0,0,1,1.6-1.226,5.837,5.837,0,0,1,2.324-.444,4.611,4.611,0,0,1,3.1.981,3.433,3.433,0,0,1,1.147,2.759v4.58a5.052,5.052,0,0,0,.42,2.275V0ZM39.658-1.963a2.431,2.431,0,0,0,1.152-.278,1.828,1.828,0,0,0,.781-.747V-4.8H40.537q-2.119,0-2.256,1.465l-.01.166a1.13,1.13,0,0,0,.371.869A1.441,1.441,0,0,0,39.658-1.963ZM52.529-7.92A7.667,7.667,0,0,0,51.514-8a2.067,2.067,0,0,0-2.1,1.084V0H46.592V-10.566h2.666l.078,1.26a2.615,2.615,0,0,1,2.354-1.455,2.957,2.957,0,0,1,.879.127ZM56.865,0H54.033V-10.566h2.832Zm-3-13.3a1.39,1.39,0,0,1,.425-1.045,1.6,1.6,0,0,1,1.157-.41,1.6,1.6,0,0,1,1.152.41,1.382,1.382,0,0,1,.43,1.045,1.386,1.386,0,0,1-.435,1.055,1.6,1.6,0,0,1-1.147.41,1.6,1.6,0,0,1-1.147-.41A1.386,1.386,0,0,1,53.867-13.3ZM65.313,0a3.134,3.134,0,0,1-.283-.947A3.415,3.415,0,0,1,62.363.2,3.752,3.752,0,0,1,59.79-.7,2.89,2.89,0,0,1,58.77-2.969a2.986,2.986,0,0,1,1.245-2.578,6.144,6.144,0,0,1,3.6-.908h1.3v-.605a1.741,1.741,0,0,0-.376-1.172,1.479,1.479,0,0,0-1.187-.439,1.682,1.682,0,0,0-1.118.342,1.161,1.161,0,0,0-.405.938H59a2.835,2.835,0,0,1,.566-1.7,3.744,3.744,0,0,1,1.6-1.226,5.837,5.837,0,0,1,2.324-.444,4.611,4.611,0,0,1,3.1.981,3.433,3.433,0,0,1,1.147,2.759v4.58a5.052,5.052,0,0,0,.42,2.275V0ZM62.979-1.963a2.431,2.431,0,0,0,1.152-.278,1.828,1.828,0,0,0,.781-.747V-4.8H63.857Q61.738-4.8,61.6-3.34l-.01.166a1.13,1.13,0,0,0,.371.869A1.441,1.441,0,0,0,62.979-1.963ZM75.635-2.92a.909.909,0,0,0-.513-.815,5.824,5.824,0,0,0-1.646-.532q-3.77-.791-3.77-3.2a2.9,2.9,0,0,1,1.167-2.349,4.708,4.708,0,0,1,3.052-.942,5.067,5.067,0,0,1,3.218.947A2.985,2.985,0,0,1,78.35-7.354H75.527a1.366,1.366,0,0,0-.391-1,1.653,1.653,0,0,0-1.221-.4,1.689,1.689,0,0,0-1.1.322,1.017,1.017,0,0,0-.391.82.87.87,0,0,0,.444.757,4.571,4.571,0,0,0,1.5.5,12.244,12.244,0,0,1,1.777.474,2.92,2.92,0,0,1,2.236,2.842A2.756,2.756,0,0,1,77.139-.7a5.35,5.35,0,0,1-3.2.894,5.588,5.588,0,0,1-2.358-.474,3.957,3.957,0,0,1-1.616-1.3,3.018,3.018,0,0,1-.586-1.782h2.676a1.473,1.473,0,0,0,.557,1.152,2.208,2.208,0,0,0,1.387.4,2.044,2.044,0,0,0,1.226-.308A.957.957,0,0,0,75.635-2.92Z" transform="translate(-1657 -9911)" fill="#12263f"/>
    <path id="Trazado_659157" data-name="Trazado 659157" d="M-80.327-5.01V0h-2.93V-14.219h5.547a6.417,6.417,0,0,1,2.817.586,4.318,4.318,0,0,1,1.87,1.665,4.643,4.643,0,0,1,.654,2.456,4.083,4.083,0,0,1-1.431,3.3,5.959,5.959,0,0,1-3.96,1.206Zm0-2.373h2.617a2.573,2.573,0,0,0,1.772-.547,1.989,1.989,0,0,0,.61-1.562,2.345,2.345,0,0,0-.615-1.689,2.3,2.3,0,0,0-1.7-.664h-2.686ZM-64.6-7.92A7.667,7.667,0,0,0-65.62-8a2.067,2.067,0,0,0-2.1,1.084V0h-2.822V-10.566h2.666l.078,1.26a2.615,2.615,0,0,1,2.354-1.455,2.957,2.957,0,0,1,.879.127Zm7.686,6.846A3.539,3.539,0,0,1-59.81.2,3.338,3.338,0,0,1-62.4-.781a4.169,4.169,0,0,1-.913-2.861v-6.924h2.822v6.834q0,1.652,1.5,1.652a2.038,2.038,0,0,0,1.973-1v-7.489h2.832V0h-2.656ZM-47.192.2A5.187,5.187,0,0,1-50.977-1.23a5.068,5.068,0,0,1-1.46-3.8V-5.3a6.383,6.383,0,0,1,.615-2.847,4.515,4.515,0,0,1,1.743-1.934,4.893,4.893,0,0,1,2.573-.679,4.385,4.385,0,0,1,3.413,1.367,5.555,5.555,0,0,1,1.245,3.877v1.152h-6.729a2.622,2.622,0,0,0,.825,1.66,2.5,2.5,0,0,0,1.743.625,3.046,3.046,0,0,0,2.549-1.182l1.387,1.553a4.237,4.237,0,0,1-1.719,1.4A5.639,5.639,0,0,1-47.192.2Zm-.322-8.682a1.764,1.764,0,0,0-1.362.569,2.946,2.946,0,0,0-.669,1.628h3.926v-.226a2.1,2.1,0,0,0-.508-1.457A1.819,1.819,0,0,0-47.515-8.486Zm15.791,3.3a6.4,6.4,0,0,1-1.084,3.96A3.591,3.591,0,0,1-35.835.2a3.3,3.3,0,0,1-2.744-1.318L-38.706,0h-2.539V-15h2.822v5.381a3.214,3.214,0,0,1,2.568-1.143,3.62,3.62,0,0,1,3.032,1.421,6.408,6.408,0,0,1,1.1,4ZM-34.546-5.4a4.227,4.227,0,0,0-.508-2.346,1.715,1.715,0,0,0-1.514-.74,1.861,1.861,0,0,0-1.855,1.107V-3.2A1.886,1.886,0,0,0-36.548-2.08a1.743,1.743,0,0,0,1.8-1.352A6.993,6.993,0,0,0-34.546-5.4ZM-23.862,0a3.134,3.134,0,0,1-.283-.947A3.415,3.415,0,0,1-26.812.2a3.752,3.752,0,0,1-2.573-.9,2.89,2.89,0,0,1-1.021-2.266A2.986,2.986,0,0,1-29.16-5.547a6.144,6.144,0,0,1,3.6-.908h1.3v-.605a1.741,1.741,0,0,0-.376-1.172,1.479,1.479,0,0,0-1.187-.439,1.682,1.682,0,0,0-1.118.342,1.161,1.161,0,0,0-.405.938h-2.822a2.835,2.835,0,0,1,.566-1.7A3.744,3.744,0,0,1-28-10.317a5.837,5.837,0,0,1,2.324-.444,4.611,4.611,0,0,1,3.1.981,3.433,3.433,0,0,1,1.147,2.759v4.58a5.052,5.052,0,0,0,.42,2.275V0ZM-26.2-1.963a2.431,2.431,0,0,0,1.152-.278,1.828,1.828,0,0,0,.781-.747V-4.8h-1.055q-2.119,0-2.256,1.465l-.01.166a1.13,1.13,0,0,0,.371.869A1.441,1.441,0,0,0-26.2-1.963ZM-13.54-2.92a.909.909,0,0,0-.513-.815A5.824,5.824,0,0,0-15.7-4.268q-3.77-.791-3.77-3.2A2.9,2.9,0,0,1-18.3-9.819a4.708,4.708,0,0,1,3.052-.942,5.067,5.067,0,0,1,3.218.947,2.985,2.985,0,0,1,1.206,2.461h-2.822a1.366,1.366,0,0,0-.391-1,1.653,1.653,0,0,0-1.221-.4,1.689,1.689,0,0,0-1.1.322,1.017,1.017,0,0,0-.391.82.87.87,0,0,0,.444.757,4.571,4.571,0,0,0,1.5.5,12.244,12.244,0,0,1,1.777.474A2.92,2.92,0,0,1-10.8-3.037,2.756,2.756,0,0,1-12.036-.7a5.35,5.35,0,0,1-3.2.894A5.588,5.588,0,0,1-17.6-.278a3.957,3.957,0,0,1-1.616-1.3A3.018,3.018,0,0,1-19.8-3.359h2.676a1.473,1.473,0,0,0,.557,1.152,2.208,2.208,0,0,0,1.387.4,2.044,2.044,0,0,0,1.226-.308A.957.957,0,0,0-13.54-2.92ZM-1.021,0H-3.853V-10.566h2.832Zm-3-13.3a1.39,1.39,0,0,1,.425-1.045,1.6,1.6,0,0,1,1.157-.41,1.6,1.6,0,0,1,1.152.41A1.382,1.382,0,0,1-.854-13.3a1.386,1.386,0,0,1-.435,1.055,1.6,1.6,0,0,1-1.147.41,1.6,1.6,0,0,1-1.147-.41A1.386,1.386,0,0,1-4.019-13.3ZM3.9-10.566l.088,1.221a3.689,3.689,0,0,1,3.037-1.416,3.066,3.066,0,0,1,2.5.986,4.6,4.6,0,0,1,.84,2.949V0H7.544V-6.773A1.838,1.838,0,0,0,7.153-8.08a1.746,1.746,0,0,0-1.3-.406A1.941,1.941,0,0,0,4.067-7.468V0H1.245V-10.566Zm11.982-2.6v2.6H17.69V-8.5H15.884v5.273a1.259,1.259,0,0,0,.225.84,1.128,1.128,0,0,0,.859.254A4.5,4.5,0,0,0,17.8-2.2V-.059A5.81,5.81,0,0,1,16.089.2q-2.969,0-3.027-3V-8.5H11.519v-2.07h1.543v-2.6ZM24.126.2A5.187,5.187,0,0,1,20.342-1.23a5.068,5.068,0,0,1-1.46-3.8V-5.3A6.383,6.383,0,0,1,19.5-8.149a4.515,4.515,0,0,1,1.743-1.934,4.893,4.893,0,0,1,2.573-.679,4.385,4.385,0,0,1,3.413,1.367,5.555,5.555,0,0,1,1.245,3.877v1.152H21.743a2.622,2.622,0,0,0,.825,1.66,2.5,2.5,0,0,0,1.743.625A3.046,3.046,0,0,0,26.86-3.262l1.387,1.553a4.237,4.237,0,0,1-1.719,1.4A5.639,5.639,0,0,1,24.126.2ZM23.8-8.486a1.764,1.764,0,0,0-1.362.569,2.946,2.946,0,0,0-.669,1.628H25.7v-.226a2.1,2.1,0,0,0-.508-1.457A1.819,1.819,0,0,0,23.8-8.486Zm5.859,3.125A6.193,6.193,0,0,1,30.82-9.277a3.75,3.75,0,0,1,3.12-1.484A3.289,3.289,0,0,1,36.646-9.57l.117-1h2.559V-.352a4.516,4.516,0,0,1-.63,2.412,4.045,4.045,0,0,1-1.772,1.563,6.231,6.231,0,0,1-2.676.537A5.794,5.794,0,0,1,31.978,3.7a4.021,4.021,0,0,1-1.67-1.2L31.558.781a3.306,3.306,0,0,0,2.559,1.182,2.42,2.42,0,0,0,1.748-.6,2.253,2.253,0,0,0,.625-1.7V-.908A3.264,3.264,0,0,1,33.921.2,3.74,3.74,0,0,1,30.84-1.294a6.191,6.191,0,0,1-1.177-3.95Zm2.822.2A3.877,3.877,0,0,0,33.062-2.9a1.831,1.831,0,0,0,1.582.819,1.958,1.958,0,0,0,1.846-.971V-7.515a1.954,1.954,0,0,0-1.826-.971,1.843,1.843,0,0,0-1.6.834A4.37,4.37,0,0,0,32.485-5.161ZM47.427-7.92A7.667,7.667,0,0,0,46.411-8a2.067,2.067,0,0,0-2.1,1.084V0H41.489V-10.566h2.666l.078,1.26a2.615,2.615,0,0,1,2.354-1.455,2.957,2.957,0,0,1,.879.127ZM54.614,0a3.134,3.134,0,0,1-.283-.947A3.415,3.415,0,0,1,51.665.2a3.752,3.752,0,0,1-2.573-.9,2.89,2.89,0,0,1-1.021-2.266,2.986,2.986,0,0,1,1.245-2.578,6.144,6.144,0,0,1,3.6-.908h1.3v-.605a1.741,1.741,0,0,0-.376-1.172,1.479,1.479,0,0,0-1.187-.439,1.682,1.682,0,0,0-1.118.342,1.161,1.161,0,0,0-.405.938H48.306a2.835,2.835,0,0,1,.566-1.7,3.744,3.744,0,0,1,1.6-1.226,5.837,5.837,0,0,1,2.324-.444,4.611,4.611,0,0,1,3.1.981,3.433,3.433,0,0,1,1.147,2.759v4.58a5.052,5.052,0,0,0,.42,2.275V0ZM52.28-1.963a2.431,2.431,0,0,0,1.152-.278,1.828,1.828,0,0,0,.781-.747V-4.8H53.159Q51.04-4.8,50.9-3.34l-.01.166a1.13,1.13,0,0,0,.371.869A1.441,1.441,0,0,0,52.28-1.963ZM62.192,0H59.36V-15h2.832ZM69.38.2A5.187,5.187,0,0,1,65.6-1.23a5.068,5.068,0,0,1-1.46-3.8V-5.3a6.383,6.383,0,0,1,.615-2.847,4.515,4.515,0,0,1,1.743-1.934,4.893,4.893,0,0,1,2.573-.679A4.385,4.385,0,0,1,72.48-9.395a5.555,5.555,0,0,1,1.245,3.877v1.152H67a2.622,2.622,0,0,0,.825,1.66,2.5,2.5,0,0,0,1.743.625,3.046,3.046,0,0,0,2.549-1.182L73.5-1.709a4.237,4.237,0,0,1-1.719,1.4A5.639,5.639,0,0,1,69.38.2Zm-.322-8.682a1.764,1.764,0,0,0-1.362.569,2.946,2.946,0,0,0-.669,1.628h3.926v-.226a2.1,2.1,0,0,0-.508-1.457A1.819,1.819,0,0,0,69.058-8.486ZM81.05-2.92a.909.909,0,0,0-.513-.815,5.824,5.824,0,0,0-1.646-.532q-3.77-.791-3.77-3.2a2.9,2.9,0,0,1,1.167-2.349,4.708,4.708,0,0,1,3.052-.942,5.067,5.067,0,0,1,3.218.947,2.985,2.985,0,0,1,1.206,2.461H80.942a1.366,1.366,0,0,0-.391-1,1.653,1.653,0,0,0-1.221-.4,1.689,1.689,0,0,0-1.1.322,1.017,1.017,0,0,0-.391.82.87.87,0,0,0,.444.757,4.571,4.571,0,0,0,1.5.5,12.244,12.244,0,0,1,1.777.474,2.92,2.92,0,0,1,2.236,2.842A2.756,2.756,0,0,1,82.554-.7a5.35,5.35,0,0,1-3.2.894,5.588,5.588,0,0,1-2.358-.474,3.957,3.957,0,0,1-1.616-1.3,3.018,3.018,0,0,1-.586-1.782h2.676a1.473,1.473,0,0,0,.557,1.152,2.208,2.208,0,0,0,1.387.4,2.044,2.044,0,0,0,1.226-.308A.957.957,0,0,0,81.05-2.92Z" transform="translate(-1861 -9837)" fill="#12263f"/>
    <path id="Trazado_659174" data-name="Trazado 659174" d="M-87.983-5.01V0h-2.93V-14.219h5.547a6.417,6.417,0,0,1,2.817.586,4.318,4.318,0,0,1,1.87,1.665,4.643,4.643,0,0,1,.654,2.456,4.083,4.083,0,0,1-1.431,3.3,5.959,5.959,0,0,1-3.96,1.206Zm0-2.373h2.617a2.573,2.573,0,0,0,1.772-.547,1.989,1.989,0,0,0,.61-1.562,2.345,2.345,0,0,0-.615-1.689,2.3,2.3,0,0,0-1.7-.664h-2.686Zm15.723-.537A7.667,7.667,0,0,0-73.276-8a2.067,2.067,0,0,0-2.1,1.084V0H-78.2V-10.566h2.666l.078,1.26A2.615,2.615,0,0,1-73.1-10.762a2.957,2.957,0,0,1,.879.127Zm7.686,6.846A3.539,3.539,0,0,1-67.466.2a3.338,3.338,0,0,1-2.593-.977,4.169,4.169,0,0,1-.913-2.861v-6.924h2.822v6.834q0,1.652,1.5,1.652a2.038,2.038,0,0,0,1.973-1v-7.489h2.832V0H-64.5ZM-54.849.2A5.187,5.187,0,0,1-58.633-1.23a5.068,5.068,0,0,1-1.46-3.8V-5.3a6.383,6.383,0,0,1,.615-2.847,4.515,4.515,0,0,1,1.743-1.934,4.893,4.893,0,0,1,2.573-.679,4.385,4.385,0,0,1,3.413,1.367A5.555,5.555,0,0,1-50.5-5.518v1.152h-6.729a2.622,2.622,0,0,0,.825,1.66,2.5,2.5,0,0,0,1.743.625,3.046,3.046,0,0,0,2.549-1.182l1.387,1.553a4.237,4.237,0,0,1-1.719,1.4A5.639,5.639,0,0,1-54.849.2Zm-.322-8.682a1.764,1.764,0,0,0-1.362.569A2.946,2.946,0,0,0-57.2-6.289h3.926v-.226a2.1,2.1,0,0,0-.508-1.457A1.819,1.819,0,0,0-55.171-8.486Zm15.791,3.3a6.4,6.4,0,0,1-1.084,3.96A3.591,3.591,0,0,1-43.491.2a3.3,3.3,0,0,1-2.744-1.318L-46.362,0H-48.9V-15h2.822v5.381a3.214,3.214,0,0,1,2.568-1.143,3.62,3.62,0,0,1,3.032,1.421,6.408,6.408,0,0,1,1.1,4ZM-42.2-5.4a4.227,4.227,0,0,0-.508-2.346,1.715,1.715,0,0,0-1.514-.74,1.861,1.861,0,0,0-1.855,1.107V-3.2A1.886,1.886,0,0,0-44.2-2.08a1.743,1.743,0,0,0,1.8-1.352A6.993,6.993,0,0,0-42.2-5.4ZM-31.519,0A3.134,3.134,0,0,1-31.8-.947,3.415,3.415,0,0,1-34.468.2a3.752,3.752,0,0,1-2.573-.9,2.89,2.89,0,0,1-1.021-2.266,2.986,2.986,0,0,1,1.245-2.578,6.144,6.144,0,0,1,3.6-.908h1.3v-.605a1.741,1.741,0,0,0-.376-1.172,1.479,1.479,0,0,0-1.187-.439A1.682,1.682,0,0,0-34.6-8.33,1.161,1.161,0,0,0-35-7.393h-2.822a2.835,2.835,0,0,1,.566-1.7,3.744,3.744,0,0,1,1.6-1.226,5.837,5.837,0,0,1,2.324-.444,4.611,4.611,0,0,1,3.1.981,3.433,3.433,0,0,1,1.147,2.759v4.58a5.052,5.052,0,0,0,.42,2.275V0Zm-2.334-1.963A2.431,2.431,0,0,0-32.7-2.241a1.828,1.828,0,0,0,.781-.747V-4.8h-1.055q-2.119,0-2.256,1.465l-.01.166a1.13,1.13,0,0,0,.371.869A1.441,1.441,0,0,0-33.853-1.963ZM-21.2-2.92a.909.909,0,0,0-.513-.815,5.824,5.824,0,0,0-1.646-.532q-3.77-.791-3.77-3.2a2.9,2.9,0,0,1,1.167-2.349,4.708,4.708,0,0,1,3.052-.942,5.067,5.067,0,0,1,3.218.947,2.985,2.985,0,0,1,1.206,2.461H-21.3a1.366,1.366,0,0,0-.391-1,1.653,1.653,0,0,0-1.221-.4,1.689,1.689,0,0,0-1.1.322,1.017,1.017,0,0,0-.391.82.87.87,0,0,0,.444.757,4.571,4.571,0,0,0,1.5.5,12.244,12.244,0,0,1,1.777.474,2.92,2.92,0,0,1,2.236,2.842A2.756,2.756,0,0,1-19.692-.7,5.35,5.35,0,0,1-22.9.2a5.588,5.588,0,0,1-2.358-.474,3.957,3.957,0,0,1-1.616-1.3,3.018,3.018,0,0,1-.586-1.782h2.676a1.473,1.473,0,0,0,.557,1.152,2.208,2.208,0,0,0,1.387.4,2.044,2.044,0,0,0,1.226-.308A.957.957,0,0,0-21.2-2.92ZM-10.884,0V-8.5h-1.572v-2.07h1.572v-.9a3.648,3.648,0,0,1,1.021-2.759,3.952,3.952,0,0,1,2.856-.981,6.652,6.652,0,0,1,1.436.194l-.029,2.17a3.6,3.6,0,0,0-.859-.088q-1.592,0-1.592,1.507v.857h2.1V-8.5h-2.1V0ZM1.841-1.074A3.539,3.539,0,0,1-1.05.2,3.338,3.338,0,0,1-3.643-.781a4.169,4.169,0,0,1-.913-2.861v-6.924h2.822v6.834q0,1.652,1.5,1.652a2.038,2.038,0,0,0,1.973-1v-7.489H4.575V0H1.919ZM9.3-10.566,9.39-9.346a3.689,3.689,0,0,1,3.037-1.416,3.066,3.066,0,0,1,2.5.986,4.6,4.6,0,0,1,.84,2.949V0H12.944V-6.773a1.838,1.838,0,0,0-.391-1.307,1.746,1.746,0,0,0-1.3-.406A1.941,1.941,0,0,0,9.468-7.468V0H6.646V-10.566Zm13,8.486a1.851,1.851,0,0,0,1.27-.43,1.506,1.506,0,0,0,.508-1.143h2.646a3.62,3.62,0,0,1-.586,1.968A3.866,3.866,0,0,1,24.561-.3,4.936,4.936,0,0,1,22.349.2a4.587,4.587,0,0,1-3.574-1.44,5.7,5.7,0,0,1-1.309-3.979V-5.41a5.635,5.635,0,0,1,1.3-3.9,4.534,4.534,0,0,1,3.564-1.455,4.444,4.444,0,0,1,3.179,1.128,3.994,3.994,0,0,1,1.216,3H24.077a1.939,1.939,0,0,0-.508-1.34,1.693,1.693,0,0,0-1.289-.515,1.7,1.7,0,0,0-1.489.719,4.166,4.166,0,0,0-.5,2.333v.293a4.219,4.219,0,0,0,.5,2.347A1.721,1.721,0,0,0,22.3-2.08ZM31.313,0H28.481V-10.566h2.832Zm-3-13.3a1.39,1.39,0,0,1,.425-1.045,1.6,1.6,0,0,1,1.157-.41,1.6,1.6,0,0,1,1.152.41,1.382,1.382,0,0,1,.43,1.045,1.386,1.386,0,0,1-.435,1.055,1.6,1.6,0,0,1-1.147.41,1.6,1.6,0,0,1-1.147-.41A1.386,1.386,0,0,1,28.315-13.3ZM33.2-5.381a6.267,6.267,0,0,1,.605-2.8,4.432,4.432,0,0,1,1.743-1.9,5.086,5.086,0,0,1,2.642-.674A4.812,4.812,0,0,1,41.68-9.453,5.252,5.252,0,0,1,43.188-5.9l.02.723a5.523,5.523,0,0,1-1.357,3.9A4.718,4.718,0,0,1,38.208.2,4.742,4.742,0,0,1,34.561-1.27,5.62,5.62,0,0,1,33.2-5.254Zm2.822.2a3.95,3.95,0,0,0,.566,2.3,1.868,1.868,0,0,0,1.621.8,1.873,1.873,0,0,0,1.6-.787,4.322,4.322,0,0,0,.576-2.518,3.91,3.91,0,0,0-.576-2.289,1.873,1.873,0,0,0-1.621-.812,1.842,1.842,0,0,0-1.6.807A4.395,4.395,0,0,0,36.021-5.181Zm11.523-5.386.088,1.221a3.689,3.689,0,0,1,3.037-1.416,3.066,3.066,0,0,1,2.5.986,4.6,4.6,0,0,1,.84,2.949V0H51.187V-6.773A1.838,1.838,0,0,0,50.8-8.08a1.746,1.746,0,0,0-1.3-.406A1.941,1.941,0,0,0,47.71-7.468V0H44.888V-10.566ZM62.271,0a3.134,3.134,0,0,1-.283-.947A3.415,3.415,0,0,1,59.321.2a3.752,3.752,0,0,1-2.573-.9,2.89,2.89,0,0,1-1.021-2.266,2.986,2.986,0,0,1,1.245-2.578,6.144,6.144,0,0,1,3.6-.908h1.3v-.605a1.741,1.741,0,0,0-.376-1.172,1.479,1.479,0,0,0-1.187-.439,1.682,1.682,0,0,0-1.118.342,1.161,1.161,0,0,0-.405.938H55.962a2.835,2.835,0,0,1,.566-1.7,3.744,3.744,0,0,1,1.6-1.226,5.837,5.837,0,0,1,2.324-.444,4.611,4.611,0,0,1,3.1.981A3.433,3.433,0,0,1,64.7-7.021v4.58a5.052,5.052,0,0,0,.42,2.275V0ZM59.937-1.963a2.431,2.431,0,0,0,1.152-.278,1.828,1.828,0,0,0,.781-.747V-4.8H60.815Q58.7-4.8,58.56-3.34l-.01.166a1.13,1.13,0,0,0,.371.869A1.441,1.441,0,0,0,59.937-1.963ZM69.849,0H67.017V-15h2.832Zm7.188.2A5.187,5.187,0,0,1,73.252-1.23a5.068,5.068,0,0,1-1.46-3.8V-5.3a6.383,6.383,0,0,1,.615-2.847,4.515,4.515,0,0,1,1.743-1.934,4.893,4.893,0,0,1,2.573-.679,4.385,4.385,0,0,1,3.413,1.367,5.555,5.555,0,0,1,1.245,3.877v1.152H74.653a2.622,2.622,0,0,0,.825,1.66,2.5,2.5,0,0,0,1.743.625,3.046,3.046,0,0,0,2.549-1.182l1.387,1.553a4.237,4.237,0,0,1-1.719,1.4A5.639,5.639,0,0,1,77.036.2Zm-.322-8.682a1.764,1.764,0,0,0-1.362.569,2.946,2.946,0,0,0-.669,1.628h3.926v-.226A2.1,2.1,0,0,0,78.1-7.971,1.819,1.819,0,0,0,76.714-8.486ZM88.706-2.92a.909.909,0,0,0-.513-.815,5.824,5.824,0,0,0-1.646-.532q-3.77-.791-3.77-3.2a2.9,2.9,0,0,1,1.167-2.349A4.708,4.708,0,0,1,87-10.762a5.067,5.067,0,0,1,3.218.947,2.985,2.985,0,0,1,1.206,2.461H88.6a1.366,1.366,0,0,0-.391-1,1.653,1.653,0,0,0-1.221-.4,1.689,1.689,0,0,0-1.1.322,1.017,1.017,0,0,0-.391.82.87.87,0,0,0,.444.757,4.571,4.571,0,0,0,1.5.5,12.244,12.244,0,0,1,1.777.474A2.92,2.92,0,0,1,91.45-3.037,2.756,2.756,0,0,1,90.21-.7a5.35,5.35,0,0,1-3.2.894,5.588,5.588,0,0,1-2.358-.474,3.957,3.957,0,0,1-1.616-1.3,3.018,3.018,0,0,1-.586-1.782h2.676a1.473,1.473,0,0,0,.557,1.152,2.208,2.208,0,0,0,1.387.4,2.044,2.044,0,0,0,1.226-.308A.957.957,0,0,0,88.706-2.92Z" transform="translate(-1861 -9645)" fill="#12263f"/>
    <path id="Trazado_659166" data-name="Trazado 659166" d="M-99.78-5.01V0h-2.93V-14.219h5.547a6.417,6.417,0,0,1,2.817.586,4.318,4.318,0,0,1,1.87,1.665,4.643,4.643,0,0,1,.654,2.456,4.083,4.083,0,0,1-1.431,3.3,5.959,5.959,0,0,1-3.96,1.206Zm0-2.373h2.617a2.573,2.573,0,0,0,1.772-.547,1.989,1.989,0,0,0,.61-1.562,2.345,2.345,0,0,0-.615-1.689,2.3,2.3,0,0,0-1.7-.664H-99.78Zm15.723-.537A7.667,7.667,0,0,0-85.073-8a2.067,2.067,0,0,0-2.1,1.084V0H-90V-10.566h2.666l.078,1.26A2.615,2.615,0,0,1-84.9-10.762a2.957,2.957,0,0,1,.879.127Zm7.686,6.846A3.539,3.539,0,0,1-79.263.2a3.338,3.338,0,0,1-2.593-.977,4.169,4.169,0,0,1-.913-2.861v-6.924h2.822v6.834q0,1.652,1.5,1.652a2.038,2.038,0,0,0,1.973-1v-7.489h2.832V0h-2.656ZM-66.646.2A5.187,5.187,0,0,1-70.43-1.23a5.068,5.068,0,0,1-1.46-3.8V-5.3a6.383,6.383,0,0,1,.615-2.847,4.515,4.515,0,0,1,1.743-1.934,4.893,4.893,0,0,1,2.573-.679,4.385,4.385,0,0,1,3.413,1.367A5.555,5.555,0,0,1-62.3-5.518v1.152h-6.729a2.622,2.622,0,0,0,.825,1.66,2.5,2.5,0,0,0,1.743.625,3.046,3.046,0,0,0,2.549-1.182l1.387,1.553a4.237,4.237,0,0,1-1.719,1.4A5.639,5.639,0,0,1-66.646.2Zm-.322-8.682a1.764,1.764,0,0,0-1.362.569A2.946,2.946,0,0,0-69-6.289h3.926v-.226a2.1,2.1,0,0,0-.508-1.457A1.819,1.819,0,0,0-66.968-8.486Zm15.791,3.3a6.4,6.4,0,0,1-1.084,3.96A3.591,3.591,0,0,1-55.288.2a3.3,3.3,0,0,1-2.744-1.318L-58.159,0H-60.7V-15h2.822v5.381a3.214,3.214,0,0,1,2.568-1.143,3.62,3.62,0,0,1,3.032,1.421,6.408,6.408,0,0,1,1.1,4ZM-54-5.4a4.227,4.227,0,0,0-.508-2.346,1.715,1.715,0,0,0-1.514-.74,1.861,1.861,0,0,0-1.855,1.107V-3.2A1.886,1.886,0,0,0-56-2.08a1.743,1.743,0,0,0,1.8-1.352A6.993,6.993,0,0,0-54-5.4ZM-43.315,0A3.134,3.134,0,0,1-43.6-.947,3.415,3.415,0,0,1-46.265.2a3.752,3.752,0,0,1-2.573-.9,2.89,2.89,0,0,1-1.021-2.266,2.986,2.986,0,0,1,1.245-2.578,6.144,6.144,0,0,1,3.6-.908h1.3v-.605a1.741,1.741,0,0,0-.376-1.172,1.479,1.479,0,0,0-1.187-.439A1.682,1.682,0,0,0-46.4-8.33a1.161,1.161,0,0,0-.405.938h-2.822a2.835,2.835,0,0,1,.566-1.7,3.744,3.744,0,0,1,1.6-1.226,5.837,5.837,0,0,1,2.324-.444,4.611,4.611,0,0,1,3.1.981,3.433,3.433,0,0,1,1.147,2.759v4.58a5.052,5.052,0,0,0,.42,2.275V0Zm-2.334-1.963A2.431,2.431,0,0,0-44.5-2.241a1.828,1.828,0,0,0,.781-.747V-4.8h-1.055q-2.119,0-2.256,1.465l-.01.166a1.13,1.13,0,0,0,.371.869A1.441,1.441,0,0,0-45.649-1.963Zm12.656-.957a.909.909,0,0,0-.513-.815,5.824,5.824,0,0,0-1.646-.532q-3.77-.791-3.77-3.2a2.9,2.9,0,0,1,1.167-2.349,4.708,4.708,0,0,1,3.052-.942,5.067,5.067,0,0,1,3.218.947,2.985,2.985,0,0,1,1.206,2.461H-33.1a1.366,1.366,0,0,0-.391-1,1.653,1.653,0,0,0-1.221-.4,1.689,1.689,0,0,0-1.1.322,1.017,1.017,0,0,0-.391.82.87.87,0,0,0,.444.757,4.571,4.571,0,0,0,1.5.5,12.244,12.244,0,0,1,1.777.474,2.92,2.92,0,0,1,2.236,2.842A2.756,2.756,0,0,1-31.489-.7a5.35,5.35,0,0,1-3.2.894,5.588,5.588,0,0,1-2.358-.474,3.957,3.957,0,0,1-1.616-1.3,3.018,3.018,0,0,1-.586-1.782h2.676a1.473,1.473,0,0,0,.557,1.152,2.208,2.208,0,0,0,1.387.4,2.044,2.044,0,0,0,1.226-.308A.957.957,0,0,0-32.993-2.92Zm9.1-2.441A6.368,6.368,0,0,1-22.783-9.3a3.6,3.6,0,0,1,3.032-1.465A3.236,3.236,0,0,1-17.2-9.609V-15h2.832V0h-2.549l-.137-1.123A3.321,3.321,0,0,1-19.771.2a3.587,3.587,0,0,1-2.993-1.47A6.573,6.573,0,0,1-23.892-5.361Zm2.822.2a4.194,4.194,0,0,0,.518,2.286,1.685,1.685,0,0,0,1.5.795A1.888,1.888,0,0,0-17.2-3.189V-7.378a1.861,1.861,0,0,0-1.826-1.109Q-21.069-8.486-21.069-5.161ZM-7.319.2A5.187,5.187,0,0,1-11.1-1.23a5.068,5.068,0,0,1-1.46-3.8V-5.3a6.383,6.383,0,0,1,.615-2.847,4.515,4.515,0,0,1,1.743-1.934,4.893,4.893,0,0,1,2.573-.679A4.385,4.385,0,0,1-4.219-9.395,5.555,5.555,0,0,1-2.974-5.518v1.152H-9.7a2.622,2.622,0,0,0,.825,1.66,2.5,2.5,0,0,0,1.743.625A3.046,3.046,0,0,0-4.585-3.262L-3.2-1.709a4.237,4.237,0,0,1-1.719,1.4A5.639,5.639,0,0,1-7.319.2Zm-.322-8.682A1.764,1.764,0,0,0-9-7.917a2.946,2.946,0,0,0-.669,1.628h3.926v-.226a2.1,2.1,0,0,0-.508-1.457A1.819,1.819,0,0,0-7.642-8.486ZM6.587,0H3.755V-10.566H6.587Zm-3-13.3a1.39,1.39,0,0,1,.425-1.045,1.6,1.6,0,0,1,1.157-.41,1.6,1.6,0,0,1,1.152.41,1.382,1.382,0,0,1,.43,1.045,1.386,1.386,0,0,1-.435,1.055,1.6,1.6,0,0,1-1.147.41,1.6,1.6,0,0,1-1.147-.41A1.386,1.386,0,0,1,3.589-13.3Zm7.92,2.734L11.6-9.346a3.689,3.689,0,0,1,3.037-1.416,3.066,3.066,0,0,1,2.5.986,4.6,4.6,0,0,1,.84,2.949V0H15.151V-6.773a1.838,1.838,0,0,0-.391-1.307,1.746,1.746,0,0,0-1.3-.406,1.941,1.941,0,0,0-1.787,1.018V0H8.853V-10.566Zm11.982-2.6v2.6H25.3V-8.5H23.491v5.273a1.259,1.259,0,0,0,.225.84,1.128,1.128,0,0,0,.859.254,4.5,4.5,0,0,0,.83-.068V-.059A5.81,5.81,0,0,1,23.7.2q-2.969,0-3.027-3V-8.5H19.126v-2.07h1.543v-2.6ZM31.733.2A5.187,5.187,0,0,1,27.949-1.23a5.068,5.068,0,0,1-1.46-3.8V-5.3A6.383,6.383,0,0,1,27.1-8.149a4.515,4.515,0,0,1,1.743-1.934,4.893,4.893,0,0,1,2.573-.679,4.385,4.385,0,0,1,3.413,1.367,5.555,5.555,0,0,1,1.245,3.877v1.152H29.351a2.622,2.622,0,0,0,.825,1.66,2.5,2.5,0,0,0,1.743.625,3.046,3.046,0,0,0,2.549-1.182l1.387,1.553a4.237,4.237,0,0,1-1.719,1.4A5.639,5.639,0,0,1,31.733.2Zm-.322-8.682a1.764,1.764,0,0,0-1.362.569,2.946,2.946,0,0,0-.669,1.628h3.926v-.226A2.1,2.1,0,0,0,32.8-7.971,1.819,1.819,0,0,0,31.411-8.486Zm5.859,3.125a6.193,6.193,0,0,1,1.157-3.916,3.75,3.75,0,0,1,3.12-1.484A3.289,3.289,0,0,1,44.253-9.57l.117-1h2.559V-.352a4.516,4.516,0,0,1-.63,2.412,4.045,4.045,0,0,1-1.772,1.563,6.231,6.231,0,0,1-2.676.537A5.794,5.794,0,0,1,39.585,3.7a4.021,4.021,0,0,1-1.67-1.2L39.165.781a3.306,3.306,0,0,0,2.559,1.182,2.42,2.42,0,0,0,1.748-.6,2.253,2.253,0,0,0,.625-1.7V-.908A3.264,3.264,0,0,1,41.528.2a3.74,3.74,0,0,1-3.081-1.489,6.191,6.191,0,0,1-1.177-3.95Zm2.822.2A3.877,3.877,0,0,0,40.669-2.9a1.831,1.831,0,0,0,1.582.819A1.958,1.958,0,0,0,44.1-3.051V-7.515a1.954,1.954,0,0,0-1.826-.971,1.843,1.843,0,0,0-1.6.834A4.37,4.37,0,0,0,40.093-5.161ZM55.034-7.92A7.667,7.667,0,0,0,54.019-8a2.067,2.067,0,0,0-2.1,1.084V0H49.1V-10.566h2.666l.078,1.26a2.615,2.615,0,0,1,2.354-1.455,2.957,2.957,0,0,1,.879.127ZM62.222,0a3.134,3.134,0,0,1-.283-.947A3.415,3.415,0,0,1,59.272.2,3.752,3.752,0,0,1,56.7-.7a2.89,2.89,0,0,1-1.021-2.266,2.986,2.986,0,0,1,1.245-2.578,6.144,6.144,0,0,1,3.6-.908h1.3v-.605a1.741,1.741,0,0,0-.376-1.172,1.479,1.479,0,0,0-1.187-.439,1.682,1.682,0,0,0-1.118.342,1.161,1.161,0,0,0-.405.938H55.913a2.835,2.835,0,0,1,.566-1.7,3.744,3.744,0,0,1,1.6-1.226,5.837,5.837,0,0,1,2.324-.444,4.611,4.611,0,0,1,3.1.981,3.433,3.433,0,0,1,1.147,2.759v4.58a5.052,5.052,0,0,0,.42,2.275V0ZM59.888-1.963a2.431,2.431,0,0,0,1.152-.278,1.828,1.828,0,0,0,.781-.747V-4.8H60.767q-2.119,0-2.256,1.465l-.01.166a1.13,1.13,0,0,0,.371.869A1.441,1.441,0,0,0,59.888-1.963ZM71.216-2.08a1.851,1.851,0,0,0,1.27-.43,1.506,1.506,0,0,0,.508-1.143H75.64a3.62,3.62,0,0,1-.586,1.968A3.866,3.866,0,0,1,73.477-.3,4.936,4.936,0,0,1,71.265.2a4.587,4.587,0,0,1-3.574-1.44,5.7,5.7,0,0,1-1.309-3.979V-5.41a5.635,5.635,0,0,1,1.3-3.9,4.534,4.534,0,0,1,3.564-1.455,4.444,4.444,0,0,1,3.179,1.128,3.994,3.994,0,0,1,1.216,3H72.993a1.939,1.939,0,0,0-.508-1.34A1.693,1.693,0,0,0,71.2-8.486a1.7,1.7,0,0,0-1.489.719,4.166,4.166,0,0,0-.5,2.333v.293a4.219,4.219,0,0,0,.5,2.347A1.721,1.721,0,0,0,71.216-2.08ZM80.229,0H77.4V-10.566h2.832Zm-3-13.3a1.39,1.39,0,0,1,.425-1.045,1.6,1.6,0,0,1,1.157-.41,1.6,1.6,0,0,1,1.152.41A1.382,1.382,0,0,1,80.4-13.3a1.386,1.386,0,0,1-.435,1.055,1.6,1.6,0,0,1-1.147.41,1.6,1.6,0,0,1-1.147-.41A1.386,1.386,0,0,1,77.231-13.3Zm4.883,7.92a6.266,6.266,0,0,1,.605-2.8,4.432,4.432,0,0,1,1.743-1.9,5.086,5.086,0,0,1,2.642-.674A4.812,4.812,0,0,1,90.6-9.453,5.252,5.252,0,0,1,92.1-5.9l.02.723a5.523,5.523,0,0,1-1.357,3.9A4.718,4.718,0,0,1,87.124.2,4.742,4.742,0,0,1,83.477-1.27a5.62,5.62,0,0,1-1.362-3.984Zm2.822.2a3.95,3.95,0,0,0,.566,2.3,1.868,1.868,0,0,0,1.621.8,1.873,1.873,0,0,0,1.6-.787A4.322,4.322,0,0,0,89.3-5.386a3.91,3.91,0,0,0-.576-2.289A1.873,1.873,0,0,0,87.1-8.486a1.842,1.842,0,0,0-1.6.807A4.395,4.395,0,0,0,84.937-5.181ZM87.661-15h3.076l-2.705,3.027H85.737Zm8.8,4.434.088,1.221a3.689,3.689,0,0,1,3.037-1.416,3.066,3.066,0,0,1,2.5.986,4.6,4.6,0,0,1,.84,2.949V0H100.1V-6.773a1.838,1.838,0,0,0-.391-1.307,1.746,1.746,0,0,0-1.3-.406,1.941,1.941,0,0,0-1.787,1.018V0H93.8V-10.566Z" transform="translate(-1137 -9837)" fill="#12263f"/>
    <path id="Trazado_659175" data-name="Trazado 659175" d="M-89.57-5.01V0H-92.5V-14.219h5.547a6.417,6.417,0,0,1,2.817.586,4.318,4.318,0,0,1,1.87,1.665,4.643,4.643,0,0,1,.654,2.456,4.083,4.083,0,0,1-1.431,3.3A5.959,5.959,0,0,1-87-5.01Zm0-2.373h2.617a2.573,2.573,0,0,0,1.772-.547,1.989,1.989,0,0,0,.61-1.562,2.345,2.345,0,0,0-.615-1.689,2.3,2.3,0,0,0-1.7-.664H-89.57Zm15.723-.537A7.667,7.667,0,0,0-74.863-8a2.067,2.067,0,0,0-2.1,1.084V0h-2.822V-10.566h2.666l.078,1.26a2.615,2.615,0,0,1,2.354-1.455,2.957,2.957,0,0,1,.879.127Zm7.686,6.846A3.539,3.539,0,0,1-69.053.2a3.338,3.338,0,0,1-2.593-.977,4.169,4.169,0,0,1-.913-2.861v-6.924h2.822v6.834q0,1.652,1.5,1.652a2.038,2.038,0,0,0,1.973-1v-7.489h2.832V0h-2.656ZM-56.436.2A5.187,5.187,0,0,1-60.22-1.23a5.068,5.068,0,0,1-1.46-3.8V-5.3a6.383,6.383,0,0,1,.615-2.847,4.515,4.515,0,0,1,1.743-1.934,4.893,4.893,0,0,1,2.573-.679,4.385,4.385,0,0,1,3.413,1.367A5.555,5.555,0,0,1-52.09-5.518v1.152h-6.729a2.622,2.622,0,0,0,.825,1.66,2.5,2.5,0,0,0,1.743.625A3.046,3.046,0,0,0-53.7-3.262l1.387,1.553a4.237,4.237,0,0,1-1.719,1.4A5.639,5.639,0,0,1-56.436.2Zm-.322-8.682a1.764,1.764,0,0,0-1.362.569,2.946,2.946,0,0,0-.669,1.628h3.926v-.226a2.1,2.1,0,0,0-.508-1.457A1.819,1.819,0,0,0-56.758-8.486Zm15.791,3.3a6.4,6.4,0,0,1-1.084,3.96A3.591,3.591,0,0,1-45.078.2a3.3,3.3,0,0,1-2.744-1.318L-47.949,0h-2.539V-15h2.822v5.381A3.214,3.214,0,0,1-45.1-10.762a3.62,3.62,0,0,1,3.032,1.421,6.408,6.408,0,0,1,1.1,4ZM-43.789-5.4A4.227,4.227,0,0,0-44.3-7.747a1.715,1.715,0,0,0-1.514-.74,1.861,1.861,0,0,0-1.855,1.107V-3.2A1.886,1.886,0,0,0-45.791-2.08a1.743,1.743,0,0,0,1.8-1.352A6.993,6.993,0,0,0-43.789-5.4ZM-33.105,0a3.134,3.134,0,0,1-.283-.947A3.415,3.415,0,0,1-36.055.2a3.752,3.752,0,0,1-2.573-.9,2.89,2.89,0,0,1-1.021-2.266A2.986,2.986,0,0,1-38.4-5.547a6.144,6.144,0,0,1,3.6-.908h1.3v-.605a1.741,1.741,0,0,0-.376-1.172,1.479,1.479,0,0,0-1.187-.439,1.682,1.682,0,0,0-1.118.342,1.161,1.161,0,0,0-.405.938h-2.822a2.835,2.835,0,0,1,.566-1.7,3.744,3.744,0,0,1,1.6-1.226,5.837,5.837,0,0,1,2.324-.444,4.611,4.611,0,0,1,3.1.981,3.433,3.433,0,0,1,1.147,2.759v4.58a5.052,5.052,0,0,0,.42,2.275V0Zm-2.334-1.963a2.431,2.431,0,0,0,1.152-.278,1.828,1.828,0,0,0,.781-.747V-4.8h-1.055q-2.119,0-2.256,1.465l-.01.166a1.13,1.13,0,0,0,.371.869A1.441,1.441,0,0,0-35.439-1.963Zm12.656-.957a.909.909,0,0,0-.513-.815,5.824,5.824,0,0,0-1.646-.532q-3.77-.791-3.77-3.2a2.9,2.9,0,0,1,1.167-2.349,4.708,4.708,0,0,1,3.052-.942,5.067,5.067,0,0,1,3.218.947,2.985,2.985,0,0,1,1.206,2.461h-2.822a1.366,1.366,0,0,0-.391-1,1.653,1.653,0,0,0-1.221-.4,1.689,1.689,0,0,0-1.1.322,1.017,1.017,0,0,0-.391.82.87.87,0,0,0,.444.757,4.571,4.571,0,0,0,1.5.5,12.244,12.244,0,0,1,1.777.474,2.92,2.92,0,0,1,2.236,2.842A2.756,2.756,0,0,1-21.279-.7a5.35,5.35,0,0,1-3.2.894,5.588,5.588,0,0,1-2.358-.474,3.957,3.957,0,0,1-1.616-1.3,3.018,3.018,0,0,1-.586-1.782h2.676a1.473,1.473,0,0,0,.557,1.152,2.208,2.208,0,0,0,1.387.4A2.044,2.044,0,0,0-23.2-2.114.957.957,0,0,0-22.783-2.92Zm15.479-5A7.667,7.667,0,0,0-8.32-8a2.067,2.067,0,0,0-2.1,1.084V0h-2.822V-10.566h2.666l.078,1.26a2.615,2.615,0,0,1,2.354-1.455,2.957,2.957,0,0,1,.879.127ZM-1.27.2A5.187,5.187,0,0,1-5.054-1.23a5.068,5.068,0,0,1-1.46-3.8V-5.3A6.383,6.383,0,0,1-5.9-8.149a4.515,4.515,0,0,1,1.743-1.934,4.893,4.893,0,0,1,2.573-.679A4.385,4.385,0,0,1,1.831-9.395,5.555,5.555,0,0,1,3.076-5.518v1.152H-3.652a2.622,2.622,0,0,0,.825,1.66,2.5,2.5,0,0,0,1.743.625A3.046,3.046,0,0,0,1.465-3.262L2.852-1.709a4.237,4.237,0,0,1-1.719,1.4A5.639,5.639,0,0,1-1.27.2Zm-.322-8.682a1.764,1.764,0,0,0-1.362.569,2.946,2.946,0,0,0-.669,1.628H.3v-.226A2.1,2.1,0,0,0-.205-7.971,1.819,1.819,0,0,0-1.592-8.486Zm8.867-2.08.088,1.221A3.689,3.689,0,0,1,10.4-10.762a3.066,3.066,0,0,1,2.5.986,4.6,4.6,0,0,1,.84,2.949V0H10.918V-6.773a1.838,1.838,0,0,0-.391-1.307,1.746,1.746,0,0,0-1.3-.406A1.941,1.941,0,0,0,7.441-7.468V0H4.619V-10.566Zm8.164,5.205A6.368,6.368,0,0,1,16.548-9.3a3.6,3.6,0,0,1,3.032-1.465,3.236,3.236,0,0,1,2.549,1.152V-15h2.832V0H22.412l-.137-1.123A3.321,3.321,0,0,1,19.561.2a3.587,3.587,0,0,1-2.993-1.47A6.573,6.573,0,0,1,15.439-5.361Zm2.822.2a4.194,4.194,0,0,0,.518,2.286,1.685,1.685,0,0,0,1.5.795,1.888,1.888,0,0,0,1.846-1.109V-7.378A1.861,1.861,0,0,0,20.3-8.486Q18.262-8.486,18.262-5.161ZM30.127,0H27.295V-10.566h2.832Zm-3-13.3a1.39,1.39,0,0,1,.425-1.045,1.6,1.6,0,0,1,1.157-.41,1.6,1.6,0,0,1,1.152.41,1.382,1.382,0,0,1,.43,1.045,1.386,1.386,0,0,1-.435,1.055,1.6,1.6,0,0,1-1.147.41,1.6,1.6,0,0,1-1.147-.41A1.386,1.386,0,0,1,27.129-13.3ZM35.1-10.566l.088,1.182a3.713,3.713,0,0,1,3.037-1.377,2.818,2.818,0,0,1,2.8,1.611A3.628,3.628,0,0,1,44.2-10.762a3.152,3.152,0,0,1,2.559,1,4.6,4.6,0,0,1,.84,3.013V0H44.766V-6.754a2.02,2.02,0,0,0-.352-1.316,1.556,1.556,0,0,0-1.24-.416,1.762,1.762,0,0,0-1.758,1.214L41.426,0H38.6V-6.744a2,2,0,0,0-.361-1.331,1.571,1.571,0,0,0-1.23-.411,1.828,1.828,0,0,0-1.738,1V0H32.451V-10.566ZM52.744,0H49.912V-10.566h2.832Zm-3-13.3a1.39,1.39,0,0,1,.425-1.045,1.6,1.6,0,0,1,1.157-.41,1.6,1.6,0,0,1,1.152.41,1.382,1.382,0,0,1,.43,1.045,1.386,1.386,0,0,1-.435,1.055,1.6,1.6,0,0,1-1.147.41,1.6,1.6,0,0,1-1.147-.41A1.386,1.386,0,0,1,49.746-13.3ZM59.932.2A5.187,5.187,0,0,1,56.147-1.23a5.068,5.068,0,0,1-1.46-3.8V-5.3A6.383,6.383,0,0,1,55.3-8.149a4.515,4.515,0,0,1,1.743-1.934,4.893,4.893,0,0,1,2.573-.679,4.385,4.385,0,0,1,3.413,1.367,5.555,5.555,0,0,1,1.245,3.877v1.152H57.549a2.622,2.622,0,0,0,.825,1.66,2.5,2.5,0,0,0,1.743.625,3.046,3.046,0,0,0,2.549-1.182l1.387,1.553a4.237,4.237,0,0,1-1.719,1.4A5.639,5.639,0,0,1,59.932.2Zm-.322-8.682a1.764,1.764,0,0,0-1.362.569,2.946,2.946,0,0,0-.669,1.628H61.5v-.226A2.1,2.1,0,0,0,61-7.971,1.819,1.819,0,0,0,59.609-8.486Zm8.867-2.08.088,1.221A3.689,3.689,0,0,1,71.6-10.762a3.066,3.066,0,0,1,2.5.986,4.6,4.6,0,0,1,.84,2.949V0H72.119V-6.773a1.838,1.838,0,0,0-.391-1.307,1.746,1.746,0,0,0-1.3-.406,1.941,1.941,0,0,0-1.787,1.018V0H65.82V-10.566Zm11.982-2.6v2.6h1.807V-8.5H80.459v5.273a1.259,1.259,0,0,0,.225.84,1.128,1.128,0,0,0,.859.254,4.5,4.5,0,0,0,.83-.068V-.059A5.81,5.81,0,0,1,80.664.2q-2.969,0-3.027-3V-8.5H76.094v-2.07h1.543v-2.6Zm2.646,7.783a6.266,6.266,0,0,1,.605-2.8,4.432,4.432,0,0,1,1.743-1.9,5.086,5.086,0,0,1,2.642-.674,4.812,4.812,0,0,1,3.491,1.309A5.252,5.252,0,0,1,93.1-5.9l.02.723a5.523,5.523,0,0,1-1.357,3.9A4.718,4.718,0,0,1,88.115.2,4.742,4.742,0,0,1,84.468-1.27a5.62,5.62,0,0,1-1.362-3.984Zm2.822.2a3.95,3.95,0,0,0,.566,2.3,1.868,1.868,0,0,0,1.621.8,1.873,1.873,0,0,0,1.6-.787,4.322,4.322,0,0,0,.576-2.518,3.91,3.91,0,0,0-.576-2.289A1.873,1.873,0,0,0,88.1-8.486a1.842,1.842,0,0,0-1.6.807A4.395,4.395,0,0,0,85.928-5.181Z" transform="translate(-1137 -9645)" fill="#12263f"/>
    <path id="Trazado_659176" data-name="Trazado 659176" d="M-98.525-5.01V0h-2.93V-14.219h5.547a6.417,6.417,0,0,1,2.817.586,4.318,4.318,0,0,1,1.87,1.665,4.643,4.643,0,0,1,.654,2.456A4.083,4.083,0,0,1-92-6.216a5.959,5.959,0,0,1-3.96,1.206Zm0-2.373h2.617a2.573,2.573,0,0,0,1.772-.547,1.989,1.989,0,0,0,.61-1.562,2.345,2.345,0,0,0-.615-1.689,2.3,2.3,0,0,0-1.7-.664h-2.686ZM-82.8-7.92A7.667,7.667,0,0,0-83.818-8a2.067,2.067,0,0,0-2.1,1.084V0H-88.74V-10.566h2.666L-86-9.307a2.615,2.615,0,0,1,2.354-1.455,2.957,2.957,0,0,1,.879.127Zm7.686,6.846A3.539,3.539,0,0,1-78.008.2,3.338,3.338,0,0,1-80.6-.781a4.169,4.169,0,0,1-.913-2.861v-6.924h2.822v6.834q0,1.652,1.5,1.652a2.038,2.038,0,0,0,1.973-1v-7.489h2.832V0h-2.656ZM-65.391.2A5.187,5.187,0,0,1-69.175-1.23a5.068,5.068,0,0,1-1.46-3.8V-5.3a6.383,6.383,0,0,1,.615-2.847,4.515,4.515,0,0,1,1.743-1.934,4.893,4.893,0,0,1,2.573-.679A4.385,4.385,0,0,1-62.29-9.395a5.555,5.555,0,0,1,1.245,3.877v1.152h-6.729a2.622,2.622,0,0,0,.825,1.66,2.5,2.5,0,0,0,1.743.625,3.046,3.046,0,0,0,2.549-1.182l1.387,1.553a4.237,4.237,0,0,1-1.719,1.4A5.639,5.639,0,0,1-65.391.2Zm-.322-8.682a1.764,1.764,0,0,0-1.362.569,2.946,2.946,0,0,0-.669,1.628h3.926v-.226a2.1,2.1,0,0,0-.508-1.457A1.819,1.819,0,0,0-65.713-8.486Zm15.791,3.3a6.4,6.4,0,0,1-1.084,3.96A3.591,3.591,0,0,1-54.033.2a3.3,3.3,0,0,1-2.744-1.318L-56.9,0h-2.539V-15h2.822v5.381a3.214,3.214,0,0,1,2.568-1.143,3.62,3.62,0,0,1,3.032,1.421,6.408,6.408,0,0,1,1.1,4ZM-52.744-5.4a4.227,4.227,0,0,0-.508-2.346,1.715,1.715,0,0,0-1.514-.74,1.861,1.861,0,0,0-1.855,1.107V-3.2A1.886,1.886,0,0,0-54.746-2.08a1.743,1.743,0,0,0,1.8-1.352A6.993,6.993,0,0,0-52.744-5.4ZM-42.061,0a3.134,3.134,0,0,1-.283-.947A3.415,3.415,0,0,1-45.01.2a3.752,3.752,0,0,1-2.573-.9A2.89,2.89,0,0,1-48.6-2.969a2.986,2.986,0,0,1,1.245-2.578,6.144,6.144,0,0,1,3.6-.908h1.3v-.605a1.741,1.741,0,0,0-.376-1.172,1.479,1.479,0,0,0-1.187-.439,1.682,1.682,0,0,0-1.118.342,1.161,1.161,0,0,0-.405.938h-2.822a2.835,2.835,0,0,1,.566-1.7,3.744,3.744,0,0,1,1.6-1.226,5.837,5.837,0,0,1,2.324-.444,4.611,4.611,0,0,1,3.1.981,3.433,3.433,0,0,1,1.147,2.759v4.58a5.052,5.052,0,0,0,.42,2.275V0Zm-2.334-1.963a2.431,2.431,0,0,0,1.152-.278,1.828,1.828,0,0,0,.781-.747V-4.8h-1.055q-2.119,0-2.256,1.465l-.01.166a1.13,1.13,0,0,0,.371.869A1.441,1.441,0,0,0-44.395-1.963Zm12.656-.957a.909.909,0,0,0-.513-.815A5.824,5.824,0,0,0-33.9-4.268q-3.77-.791-3.77-3.2A2.9,2.9,0,0,1-36.5-9.819a4.708,4.708,0,0,1,3.052-.942,5.067,5.067,0,0,1,3.218.947,2.985,2.985,0,0,1,1.206,2.461h-2.822a1.366,1.366,0,0,0-.391-1,1.653,1.653,0,0,0-1.221-.4,1.689,1.689,0,0,0-1.1.322,1.017,1.017,0,0,0-.391.82.87.87,0,0,0,.444.757,4.571,4.571,0,0,0,1.5.5,12.244,12.244,0,0,1,1.777.474,2.92,2.92,0,0,1,2.236,2.842A2.756,2.756,0,0,1-30.234-.7a5.35,5.35,0,0,1-3.2.894A5.588,5.588,0,0,1-35.8-.278a3.957,3.957,0,0,1-1.616-1.3A3.018,3.018,0,0,1-38-3.359h2.676a1.473,1.473,0,0,0,.557,1.152,2.208,2.208,0,0,0,1.387.4,2.044,2.044,0,0,0,1.226-.308A.957.957,0,0,0-31.738-2.92Zm9.1-2.441A6.368,6.368,0,0,1-21.528-9.3,3.6,3.6,0,0,1-18.5-10.762a3.236,3.236,0,0,1,2.549,1.152V-15h2.832V0h-2.549L-15.8-1.123A3.321,3.321,0,0,1-18.516.2a3.587,3.587,0,0,1-2.993-1.47A6.573,6.573,0,0,1-22.637-5.361Zm2.822.2A4.194,4.194,0,0,0-19.3-2.875a1.685,1.685,0,0,0,1.5.795,1.888,1.888,0,0,0,1.846-1.109V-7.378a1.861,1.861,0,0,0-1.826-1.109Q-19.814-8.486-19.814-5.161ZM-6.064.2A5.187,5.187,0,0,1-9.849-1.23a5.068,5.068,0,0,1-1.46-3.8V-5.3a6.383,6.383,0,0,1,.615-2.847A4.515,4.515,0,0,1-8.95-10.083a4.893,4.893,0,0,1,2.573-.679A4.385,4.385,0,0,1-2.964-9.395,5.555,5.555,0,0,1-1.719-5.518v1.152H-8.447a2.622,2.622,0,0,0,.825,1.66,2.5,2.5,0,0,0,1.743.625A3.046,3.046,0,0,0-3.33-3.262l1.387,1.553a4.237,4.237,0,0,1-1.719,1.4A5.639,5.639,0,0,1-6.064.2Zm-.322-8.682a1.764,1.764,0,0,0-1.362.569,2.946,2.946,0,0,0-.669,1.628h3.926v-.226A2.1,2.1,0,0,0-5-7.971,1.819,1.819,0,0,0-6.387-8.486ZM10.986,0A3.134,3.134,0,0,1,10.7-.947,3.415,3.415,0,0,1,8.037.2,3.752,3.752,0,0,1,5.464-.7,2.89,2.89,0,0,1,4.443-2.969,2.986,2.986,0,0,1,5.688-5.547a6.144,6.144,0,0,1,3.6-.908h1.3v-.605a1.741,1.741,0,0,0-.376-1.172,1.479,1.479,0,0,0-1.187-.439,1.682,1.682,0,0,0-1.118.342,1.161,1.161,0,0,0-.405.938H4.678a2.835,2.835,0,0,1,.566-1.7,3.744,3.744,0,0,1,1.6-1.226,5.837,5.837,0,0,1,2.324-.444,4.611,4.611,0,0,1,3.1.981,3.433,3.433,0,0,1,1.147,2.759v4.58a5.052,5.052,0,0,0,.42,2.275V0ZM8.652-1.963A2.431,2.431,0,0,0,9.8-2.241a1.828,1.828,0,0,0,.781-.747V-4.8H9.531Q7.412-4.8,7.275-3.34l-.01.166a1.13,1.13,0,0,0,.371.869A1.441,1.441,0,0,0,8.652-1.963ZM19.98-2.08a1.851,1.851,0,0,0,1.27-.43,1.506,1.506,0,0,0,.508-1.143H24.4a3.62,3.62,0,0,1-.586,1.968A3.866,3.866,0,0,1,22.241-.3,4.936,4.936,0,0,1,20.029.2a4.587,4.587,0,0,1-3.574-1.44,5.7,5.7,0,0,1-1.309-3.979V-5.41a5.635,5.635,0,0,1,1.3-3.9,4.534,4.534,0,0,1,3.564-1.455,4.444,4.444,0,0,1,3.179,1.128,3.994,3.994,0,0,1,1.216,3H21.758a1.939,1.939,0,0,0-.508-1.34,1.693,1.693,0,0,0-1.289-.515,1.7,1.7,0,0,0-1.489.719,4.166,4.166,0,0,0-.5,2.333v.293a4.219,4.219,0,0,0,.5,2.347A1.721,1.721,0,0,0,19.98-2.08ZM30.879.2A5.187,5.187,0,0,1,27.095-1.23a5.068,5.068,0,0,1-1.46-3.8V-5.3a6.383,6.383,0,0,1,.615-2.847,4.515,4.515,0,0,1,1.743-1.934,4.893,4.893,0,0,1,2.573-.679,4.385,4.385,0,0,1,3.413,1.367,5.555,5.555,0,0,1,1.245,3.877v1.152H28.5a2.622,2.622,0,0,0,.825,1.66,2.5,2.5,0,0,0,1.743.625,3.046,3.046,0,0,0,2.549-1.182L35-1.709a4.237,4.237,0,0,1-1.719,1.4A5.639,5.639,0,0,1,30.879.2Zm-.322-8.682a1.764,1.764,0,0,0-1.362.569,2.946,2.946,0,0,0-.669,1.628h3.926v-.226a2.1,2.1,0,0,0-.508-1.457A1.819,1.819,0,0,0,30.557-8.486Zm15.781,3.3a6.337,6.337,0,0,1-1.108,3.911A3.554,3.554,0,0,1,42.236.2,3.292,3.292,0,0,1,39.648-.918v4.98H36.826V-10.566h2.617l.1,1.035a3.317,3.317,0,0,1,2.676-1.23,3.578,3.578,0,0,1,3.037,1.445,6.509,6.509,0,0,1,1.084,3.984ZM43.516-5.4a4.182,4.182,0,0,0-.522-2.282,1.7,1.7,0,0,0-1.519-.8,1.847,1.847,0,0,0-1.826,1.019v4.339A1.879,1.879,0,0,0,41.494-2.08Q43.516-2.08,43.516-5.4Zm7.949-7.763v2.6h1.807V-8.5H51.465v5.273a1.259,1.259,0,0,0,.225.84,1.128,1.128,0,0,0,.859.254,4.5,4.5,0,0,0,.83-.068V-.059A5.81,5.81,0,0,1,51.67.2q-2.969,0-3.027-3V-8.5H47.1v-2.07h1.543v-2.6ZM60.967,0a3.134,3.134,0,0,1-.283-.947A3.415,3.415,0,0,1,58.018.2a3.752,3.752,0,0,1-2.573-.9,2.89,2.89,0,0,1-1.021-2.266,2.986,2.986,0,0,1,1.245-2.578,6.144,6.144,0,0,1,3.6-.908h1.3v-.605a1.741,1.741,0,0,0-.376-1.172A1.479,1.479,0,0,0,59-8.672a1.682,1.682,0,0,0-1.118.342,1.161,1.161,0,0,0-.405.938H54.658a2.835,2.835,0,0,1,.566-1.7,3.744,3.744,0,0,1,1.6-1.226,5.837,5.837,0,0,1,2.324-.444,4.611,4.611,0,0,1,3.1.981A3.433,3.433,0,0,1,63.4-7.021v4.58a5.052,5.052,0,0,0,.42,2.275V0ZM58.633-1.963a2.431,2.431,0,0,0,1.152-.278,1.828,1.828,0,0,0,.781-.747V-4.8H59.512q-2.119,0-2.256,1.465l-.01.166a1.13,1.13,0,0,0,.371.869A1.441,1.441,0,0,0,58.633-1.963ZM69.961-2.08a1.851,1.851,0,0,0,1.27-.43,1.506,1.506,0,0,0,.508-1.143h2.646A3.62,3.62,0,0,1,73.8-1.685,3.866,3.866,0,0,1,72.222-.3,4.936,4.936,0,0,1,70.01.2a4.587,4.587,0,0,1-3.574-1.44,5.7,5.7,0,0,1-1.309-3.979V-5.41a5.635,5.635,0,0,1,1.3-3.9,4.534,4.534,0,0,1,3.564-1.455,4.444,4.444,0,0,1,3.179,1.128,3.994,3.994,0,0,1,1.216,3H71.738a1.939,1.939,0,0,0-.508-1.34,1.693,1.693,0,0,0-1.289-.515,1.7,1.7,0,0,0-1.489.719,4.166,4.166,0,0,0-.5,2.333v.293a4.219,4.219,0,0,0,.5,2.347A1.721,1.721,0,0,0,69.961-2.08ZM78.975,0H76.143V-10.566h2.832Zm-3-13.3a1.39,1.39,0,0,1,.425-1.045,1.6,1.6,0,0,1,1.157-.41,1.6,1.6,0,0,1,1.152.41,1.382,1.382,0,0,1,.43,1.045,1.386,1.386,0,0,1-.435,1.055,1.6,1.6,0,0,1-1.147.41,1.6,1.6,0,0,1-1.147-.41A1.386,1.386,0,0,1,75.977-13.3Zm4.883,7.92a6.266,6.266,0,0,1,.605-2.8,4.432,4.432,0,0,1,1.743-1.9,5.086,5.086,0,0,1,2.642-.674,4.812,4.812,0,0,1,3.491,1.309A5.252,5.252,0,0,1,90.85-5.9l.02.723a5.523,5.523,0,0,1-1.357,3.9A4.718,4.718,0,0,1,85.869.2,4.742,4.742,0,0,1,82.222-1.27a5.62,5.62,0,0,1-1.362-3.984Zm2.822.2a3.95,3.95,0,0,0,.566,2.3,1.868,1.868,0,0,0,1.621.8,1.873,1.873,0,0,0,1.6-.787,4.322,4.322,0,0,0,.576-2.518,3.91,3.91,0,0,0-.576-2.289,1.873,1.873,0,0,0-1.621-.812,1.842,1.842,0,0,0-1.6.807A4.395,4.395,0,0,0,83.682-5.181ZM86.406-15h3.076l-2.705,3.027H84.482Zm8.8,4.434.088,1.221a3.689,3.689,0,0,1,3.037-1.416,3.066,3.066,0,0,1,2.5.986,4.6,4.6,0,0,1,.84,2.949V0H98.848V-6.773a1.838,1.838,0,0,0-.391-1.307,1.746,1.746,0,0,0-1.3-.406,1.941,1.941,0,0,0-1.787,1.018V0H92.549V-10.566Z" transform="translate(-1489 -9645)" fill="#12263f"/>
    <path id="Trazado_659161" data-name="Trazado 659161" d="M-74.556-5.01V0h-2.93V-14.219h5.547a6.417,6.417,0,0,1,2.817.586,4.318,4.318,0,0,1,1.87,1.665A4.643,4.643,0,0,1-66.6-9.512a4.083,4.083,0,0,1-1.431,3.3,5.959,5.959,0,0,1-3.96,1.206Zm0-2.373h2.617a2.573,2.573,0,0,0,1.772-.547,1.989,1.989,0,0,0,.61-1.562,2.345,2.345,0,0,0-.615-1.689,2.3,2.3,0,0,0-1.7-.664h-2.686Zm15.723-.537A7.667,7.667,0,0,0-59.849-8a2.067,2.067,0,0,0-2.1,1.084V0h-2.822V-10.566H-62.1l.078,1.26a2.615,2.615,0,0,1,2.354-1.455,2.957,2.957,0,0,1,.879.127Zm7.686,6.846A3.539,3.539,0,0,1-54.038.2a3.338,3.338,0,0,1-2.593-.977,4.169,4.169,0,0,1-.913-2.861v-6.924h2.822v6.834q0,1.652,1.5,1.652a2.038,2.038,0,0,0,1.973-1v-7.489h2.832V0h-2.656ZM-41.421.2A5.187,5.187,0,0,1-45.205-1.23a5.068,5.068,0,0,1-1.46-3.8V-5.3a6.383,6.383,0,0,1,.615-2.847,4.515,4.515,0,0,1,1.743-1.934,4.893,4.893,0,0,1,2.573-.679A4.385,4.385,0,0,1-38.32-9.395a5.555,5.555,0,0,1,1.245,3.877v1.152H-43.8a2.622,2.622,0,0,0,.825,1.66,2.5,2.5,0,0,0,1.743.625,3.046,3.046,0,0,0,2.549-1.182L-37.3-1.709a4.237,4.237,0,0,1-1.719,1.4A5.639,5.639,0,0,1-41.421.2Zm-.322-8.682a1.764,1.764,0,0,0-1.362.569,2.946,2.946,0,0,0-.669,1.628h3.926v-.226a2.1,2.1,0,0,0-.508-1.457A1.819,1.819,0,0,0-41.743-8.486Zm15.791,3.3a6.4,6.4,0,0,1-1.084,3.96A3.591,3.591,0,0,1-30.063.2a3.3,3.3,0,0,1-2.744-1.318L-32.935,0h-2.539V-15h2.822v5.381a3.214,3.214,0,0,1,2.568-1.143,3.62,3.62,0,0,1,3.032,1.421,6.408,6.408,0,0,1,1.1,4ZM-28.774-5.4a4.227,4.227,0,0,0-.508-2.346,1.715,1.715,0,0,0-1.514-.74,1.861,1.861,0,0,0-1.855,1.107V-3.2A1.886,1.886,0,0,0-30.776-2.08a1.743,1.743,0,0,0,1.8-1.352A6.993,6.993,0,0,0-28.774-5.4ZM-18.091,0a3.134,3.134,0,0,1-.283-.947A3.415,3.415,0,0,1-21.04.2a3.752,3.752,0,0,1-2.573-.9,2.89,2.89,0,0,1-1.021-2.266,2.986,2.986,0,0,1,1.245-2.578,6.144,6.144,0,0,1,3.6-.908h1.3v-.605a1.741,1.741,0,0,0-.376-1.172,1.479,1.479,0,0,0-1.187-.439,1.682,1.682,0,0,0-1.118.342,1.161,1.161,0,0,0-.405.938H-24.4a2.835,2.835,0,0,1,.566-1.7,3.744,3.744,0,0,1,1.6-1.226,5.837,5.837,0,0,1,2.324-.444,4.611,4.611,0,0,1,3.1.981,3.433,3.433,0,0,1,1.147,2.759v4.58a5.052,5.052,0,0,0,.42,2.275V0Zm-2.334-1.963a2.431,2.431,0,0,0,1.152-.278,1.828,1.828,0,0,0,.781-.747V-4.8h-1.055q-2.119,0-2.256,1.465l-.01.166a1.13,1.13,0,0,0,.371.869A1.441,1.441,0,0,0-20.425-1.963ZM-7.769-2.92a.909.909,0,0,0-.513-.815,5.824,5.824,0,0,0-1.646-.532q-3.77-.791-3.77-3.2a2.9,2.9,0,0,1,1.167-2.349,4.708,4.708,0,0,1,3.052-.942,5.067,5.067,0,0,1,3.218.947A2.985,2.985,0,0,1-5.054-7.354H-7.876a1.366,1.366,0,0,0-.391-1,1.653,1.653,0,0,0-1.221-.4,1.689,1.689,0,0,0-1.1.322,1.017,1.017,0,0,0-.391.82.87.87,0,0,0,.444.757,4.571,4.571,0,0,0,1.5.5,12.244,12.244,0,0,1,1.777.474A2.92,2.92,0,0,1-5.024-3.037,2.756,2.756,0,0,1-6.265-.7,5.35,5.35,0,0,1-9.468.2a5.588,5.588,0,0,1-2.358-.474,3.957,3.957,0,0,1-1.616-1.3,3.018,3.018,0,0,1-.586-1.782h2.676A1.473,1.473,0,0,0-10.8-2.207a2.208,2.208,0,0,0,1.387.4,2.044,2.044,0,0,0,1.226-.308A.957.957,0,0,0-7.769-2.92Zm9.1-2.441A6.368,6.368,0,0,1,2.441-9.3a3.6,3.6,0,0,1,3.032-1.465A3.236,3.236,0,0,1,8.022-9.609V-15h2.832V0H8.306L8.169-1.123A3.321,3.321,0,0,1,5.454.2a3.587,3.587,0,0,1-2.993-1.47A6.573,6.573,0,0,1,1.333-5.361Zm2.822.2a4.194,4.194,0,0,0,.518,2.286,1.685,1.685,0,0,0,1.5.795A1.888,1.888,0,0,0,8.022-3.189V-7.378A1.861,1.861,0,0,0,6.2-8.486Q4.155-8.486,4.155-5.161ZM17.905.2A5.187,5.187,0,0,1,14.121-1.23a5.068,5.068,0,0,1-1.46-3.8V-5.3a6.383,6.383,0,0,1,.615-2.847,4.515,4.515,0,0,1,1.743-1.934,4.893,4.893,0,0,1,2.573-.679,4.385,4.385,0,0,1,3.413,1.367,5.555,5.555,0,0,1,1.245,3.877v1.152H15.522a2.622,2.622,0,0,0,.825,1.66,2.5,2.5,0,0,0,1.743.625A3.046,3.046,0,0,0,20.64-3.262l1.387,1.553a4.237,4.237,0,0,1-1.719,1.4A5.639,5.639,0,0,1,17.905.2Zm-.322-8.682a1.764,1.764,0,0,0-1.362.569,2.946,2.946,0,0,0-.669,1.628h3.926v-.226a2.1,2.1,0,0,0-.508-1.457A1.819,1.819,0,0,0,17.583-8.486Zm14-.928a3.522,3.522,0,0,1,2.822-1.348q3.438,0,3.486,3.994V0H35.073V-6.7a1.971,1.971,0,0,0-.391-1.346,1.672,1.672,0,0,0-1.3-.436,1.92,1.92,0,0,0-1.8.959V0H28.765V-15h2.822Zm14.766,8.34A3.539,3.539,0,0,1,43.462.2a3.338,3.338,0,0,1-2.593-.977,4.169,4.169,0,0,1-.913-2.861v-6.924h2.822v6.834q0,1.652,1.5,1.652a2.038,2.038,0,0,0,1.973-1v-7.489h2.832V0H46.431Zm7.51-9.492.088,1.182a3.713,3.713,0,0,1,3.037-1.377,2.818,2.818,0,0,1,2.8,1.611,3.628,3.628,0,0,1,3.174-1.611,3.152,3.152,0,0,1,2.559,1,4.6,4.6,0,0,1,.84,3.013V0H63.53V-6.754a2.02,2.02,0,0,0-.352-1.316,1.556,1.556,0,0,0-1.24-.416,1.762,1.762,0,0,0-1.758,1.214L60.19,0H57.368V-6.744a2,2,0,0,0-.361-1.331,1.571,1.571,0,0,0-1.23-.411,1.828,1.828,0,0,0-1.738,1V0H51.216V-10.566ZM68.091-5.381a6.266,6.266,0,0,1,.605-2.8,4.432,4.432,0,0,1,1.743-1.9,5.086,5.086,0,0,1,2.642-.674,4.812,4.812,0,0,1,3.491,1.309A5.252,5.252,0,0,1,78.081-5.9l.02.723a5.523,5.523,0,0,1-1.357,3.9A4.718,4.718,0,0,1,73.1.2,4.742,4.742,0,0,1,69.453-1.27a5.62,5.62,0,0,1-1.362-3.984Zm2.822.2a3.95,3.95,0,0,0,.566,2.3,1.868,1.868,0,0,0,1.621.8,1.873,1.873,0,0,0,1.6-.787,4.322,4.322,0,0,0,.576-2.518A3.91,3.91,0,0,0,74.7-7.675a1.873,1.873,0,0,0-1.621-.812,1.842,1.842,0,0,0-1.6.807A4.395,4.395,0,0,0,70.913-5.181Z" transform="translate(-1326 -9913)" fill="#12263f"/>
    <path id="Trazado_658896" data-name="Trazado 658896" d="M-1548-10652l-120.2-125.609" transform="translate(0 884)" fill="none" stroke="#12263f" stroke-width="3"/>
    <path id="Trazado_658897" data-name="Trazado 658897" d="M-1432.341-10737.291l-235.854-40.317" transform="translate(-193.305 961.609)" fill="none" stroke="#12263f" stroke-width="3"/>
    <path id="Trazado_658898" data-name="Trazado 658898" d="M-1668.2-10652l120.2-125.609" transform="translate(230.195 884)" fill="none" stroke="#12263f" stroke-width="3"/>
    <path id="Trazado_658899" data-name="Trazado 658899" d="M-1668.2-10737.291l235.854-40.317" transform="translate(310.081 961.609)" fill="none" stroke="#12263f" stroke-width="3"/>
    <path id="Trazado_659159" data-name="Trazado 659159" d="M7,0l7,12H0Z" transform="matrix(0.391, -0.921, 0.921, 0.391, -1869.258, -9811.9)" fill="#12263f"/>
    <path id="Trazado_659172" data-name="Trazado 659172" d="M7,0l7,12H0Z" transform="matrix(-0.966, -0.259, 0.259, -0.966, -1118.052, -9806.392)" fill="#12263f"/>
    <path id="Trazado_659164" data-name="Trazado 659164" d="M7,0l7,12H0Z" transform="translate(-1310.977 -9885.065) rotate(162)" fill="#12263f"/>
    <path id="Trazado_659158" data-name="Trazado 659158" d="M7,0l7,12H0Z" transform="translate(-1657.817 -9897.376) rotate(82)" fill="#12263f"/>
    <path id="Trazado_658900" data-name="Trazado 658900" d="M-1432.341-10737.291l-235.854-40.317" transform="translate(-2790.899 -20461.078) rotate(180)" fill="none" stroke="#12263f" stroke-width="3"/>
    <path id="Trazado_658901" data-name="Trazado 658901" d="M-1668.2-10737.291l235.854-40.317" transform="translate(-3294.285 -20461.078) rotate(180)" fill="none" stroke="#12263f" stroke-width="3"/>
    <path id="Trazado_659173" data-name="Trazado 659173" d="M7,0l7,12H0Z" transform="matrix(-0.391, 0.921, -0.921, -0.391, -1114.946, -9687.568)" fill="#12263f"/>
    <path id="Trazado_659167" data-name="Trazado 659167" d="M7,0l7,12H0Z" transform="matrix(0.966, 0.259, -0.259, 0.966, -1866.152, -9693.077)" fill="#12263f"/>
    <path id="Trazado_659162" data-name="Trazado 659162" d="M5,0H395a5,5,0,0,1,5,5V55a5,5,0,0,1-5,5H5a5,5,0,0,1-5-5V5A5,5,0,0,1,5,0Z" transform="translate(-1690 -9782)" fill="#f4a338"/>
    <path id="Trazado_659163" data-name="Trazado 659163" d="M-136.725-13.623h-5.009V0H-145.1V-13.623h-4.941v-2.729h13.319ZM-131.593,0h-3.257V-12.151h3.257Zm-3.448-15.3a1.6,1.6,0,0,1,.489-1.2,1.835,1.835,0,0,1,1.331-.472,1.839,1.839,0,0,1,1.325.472,1.589,1.589,0,0,1,.494,1.2,1.593,1.593,0,0,1-.5,1.213,1.844,1.844,0,0,1-1.32.472,1.844,1.844,0,0,1-1.32-.472A1.593,1.593,0,0,1-135.041-15.3Zm17.059,9.333a7.288,7.288,0,0,1-1.275,4.5A4.087,4.087,0,0,1-122.7.225a3.786,3.786,0,0,1-2.976-1.28V4.672h-3.246V-12.151h3.01l.112,1.19a3.815,3.815,0,0,1,3.077-1.415,4.115,4.115,0,0,1,3.493,1.662,7.485,7.485,0,0,1,1.247,4.582Zm-3.246-.247a4.809,4.809,0,0,0-.6-2.625,1.955,1.955,0,0,0-1.746-.924,2.124,2.124,0,0,0-2.1,1.171V-3.6a2.16,2.16,0,0,0,2.123,1.205Q-121.227-2.392-121.227-6.211Zm4.75.023a7.206,7.206,0,0,1,.7-3.223,5.1,5.1,0,0,1,2-2.19,5.849,5.849,0,0,1,3.038-.775,5.533,5.533,0,0,1,4.015,1.5,6.04,6.04,0,0,1,1.735,4.088l.022.831a6.351,6.351,0,0,1-1.561,4.487,5.426,5.426,0,0,1-4.189,1.69A5.453,5.453,0,0,1-114.91-1.46a6.463,6.463,0,0,1-1.567-4.582Zm3.246.23a4.542,4.542,0,0,0,.651,2.649,2.149,2.149,0,0,0,1.864.917,2.154,2.154,0,0,0,1.842-.905,4.97,4.97,0,0,0,.663-2.9,4.5,4.5,0,0,0-.663-2.632,2.154,2.154,0,0,0-1.864-.934,2.119,2.119,0,0,0-1.842.928A5.054,5.054,0,0,0-113.231-5.958Zm16.846,2.6a1.046,1.046,0,0,0-.59-.938,6.7,6.7,0,0,0-1.892-.612q-4.335-.91-4.335-3.684a3.339,3.339,0,0,1,1.342-2.7,5.414,5.414,0,0,1,3.51-1.084,5.827,5.827,0,0,1,3.7,1.089,3.433,3.433,0,0,1,1.387,2.83h-3.246a1.57,1.57,0,0,0-.449-1.151,1.9,1.9,0,0,0-1.4-.455,1.943,1.943,0,0,0-1.269.371,1.17,1.17,0,0,0-.449.943,1,1,0,0,0,.511.87,5.257,5.257,0,0,0,1.724.573,14.08,14.08,0,0,1,2.044.545A3.358,3.358,0,0,1-93.23-3.493,3.17,3.17,0,0,1-94.656-.8,6.153,6.153,0,0,1-98.34.225a6.426,6.426,0,0,1-2.712-.545,4.551,4.551,0,0,1-1.859-1.494,3.471,3.471,0,0,1-.674-2.05h3.077a1.694,1.694,0,0,0,.64,1.325,2.539,2.539,0,0,0,1.595.46,2.35,2.35,0,0,0,1.409-.354A1.1,1.1,0,0,0-96.385-3.358Zm10.467-2.808a7.323,7.323,0,0,1,1.275-4.526,4.136,4.136,0,0,1,3.487-1.685,3.722,3.722,0,0,1,2.931,1.325v-6.2h3.257V0H-77.9l-.157-1.292A3.819,3.819,0,0,1-81.179.225a4.125,4.125,0,0,1-3.442-1.69A7.559,7.559,0,0,1-85.919-6.166Zm3.246.231a4.823,4.823,0,0,0,.6,2.629,1.937,1.937,0,0,0,1.729.914,2.171,2.171,0,0,0,2.123-1.275V-8.484a2.14,2.14,0,0,0-2.1-1.275Q-82.673-9.759-82.673-5.935ZM-66.861.225a5.965,5.965,0,0,1-4.352-1.64,5.828,5.828,0,0,1-1.679-4.369V-6.1a7.341,7.341,0,0,1,.708-3.274,5.192,5.192,0,0,1,2-2.224,5.627,5.627,0,0,1,2.959-.781A5.043,5.043,0,0,1-63.295-10.8a6.389,6.389,0,0,1,1.432,4.458V-5.02H-69.6a3.015,3.015,0,0,0,.949,1.909,2.869,2.869,0,0,0,2,.719,3.5,3.5,0,0,0,2.931-1.359l1.595,1.786A4.872,4.872,0,0,1-64.1-.354,6.485,6.485,0,0,1-66.861.225Zm-.371-9.984a2.028,2.028,0,0,0-1.567.654,3.388,3.388,0,0,0-.769,1.873h4.515v-.26a2.416,2.416,0,0,0-.584-1.675A2.092,2.092,0,0,0-67.231-9.759Zm23.876,3.8a7.288,7.288,0,0,1-1.275,4.5A4.087,4.087,0,0,1-48.072.225a3.786,3.786,0,0,1-2.976-1.28V4.672h-3.246V-12.151h3.01l.112,1.19a3.815,3.815,0,0,1,3.077-1.415A4.115,4.115,0,0,1-44.6-10.714a7.485,7.485,0,0,1,1.247,4.582ZM-46.6-6.211a4.809,4.809,0,0,0-.6-2.625,1.955,1.955,0,0,0-1.746-.924,2.124,2.124,0,0,0-2.1,1.171V-3.6a2.16,2.16,0,0,0,2.123,1.205Q-46.6-2.392-46.6-6.211Zm12.084-2.9a8.818,8.818,0,0,0-1.168-.09A2.377,2.377,0,0,0-38.1-7.951V0h-3.246V-12.151h3.066l.09,1.449a3.007,3.007,0,0,1,2.707-1.673,3.4,3.4,0,0,1,1.011.146Zm8.838,7.873A4.07,4.07,0,0,1-29,.225,3.839,3.839,0,0,1-31.984-.9a4.794,4.794,0,0,1-1.05-3.291v-7.962h3.246v7.859q0,1.9,1.729,1.9a2.343,2.343,0,0,0,2.269-1.147v-8.612h3.257V0h-3.055ZM-14.493.225a5.965,5.965,0,0,1-4.352-1.64,5.828,5.828,0,0,1-1.679-4.369V-6.1a7.341,7.341,0,0,1,.708-3.274,5.192,5.192,0,0,1,2-2.224,5.627,5.627,0,0,1,2.959-.781A5.043,5.043,0,0,1-10.927-10.8,6.389,6.389,0,0,1-9.5-6.345V-5.02h-7.738a3.015,3.015,0,0,0,.949,1.909,2.869,2.869,0,0,0,2,.719,3.5,3.5,0,0,0,2.931-1.359l1.595,1.786A4.872,4.872,0,0,1-11.73-.354,6.485,6.485,0,0,1-14.493.225Zm-.371-9.984a2.028,2.028,0,0,0-1.567.654A3.388,3.388,0,0,0-17.2-7.232h4.515v-.26a2.416,2.416,0,0,0-.584-1.675A2.092,2.092,0,0,0-14.864-9.759ZM3.3-5.963A7.358,7.358,0,0,1,2.05-1.409,4.129,4.129,0,0,1-1.432.225,3.794,3.794,0,0,1-4.588-1.292L-4.734,0h-2.92V-17.25h3.246v6.188a3.7,3.7,0,0,1,2.954-1.314,4.163,4.163,0,0,1,3.487,1.634A7.369,7.369,0,0,1,3.3-6.143ZM.051-6.211a4.861,4.861,0,0,0-.584-2.7,1.973,1.973,0,0,0-1.741-.851A2.14,2.14,0,0,0-4.408-8.486v4.81A2.169,2.169,0,0,0-2.252-2.392,2,2,0,0,0-.185-3.947,8.042,8.042,0,0,0,.051-6.211ZM12.337,0a3.6,3.6,0,0,1-.326-1.089A3.927,3.927,0,0,1,8.945.225,4.314,4.314,0,0,1,5.986-.809,3.323,3.323,0,0,1,4.812-3.414,3.434,3.434,0,0,1,6.244-6.379a7.065,7.065,0,0,1,4.138-1.044h1.494v-.7a2,2,0,0,0-.432-1.348,1.7,1.7,0,0,0-1.365-.505,1.934,1.934,0,0,0-1.286.393A1.335,1.335,0,0,0,8.327-8.5H5.082a3.26,3.26,0,0,1,.651-1.954,4.306,4.306,0,0,1,1.842-1.409,6.712,6.712,0,0,1,2.673-.511,5.3,5.3,0,0,1,3.566,1.129,3.948,3.948,0,0,1,1.32,3.173v5.267a5.809,5.809,0,0,0,.483,2.617V0ZM9.653-2.257a2.8,2.8,0,0,0,1.325-.32,2.1,2.1,0,0,0,.9-.859V-5.525H10.663q-2.437,0-2.594,1.685l-.011.191a1.3,1.3,0,0,0,.427,1A1.658,1.658,0,0,0,9.653-2.257Zm14.555-1.1a1.046,1.046,0,0,0-.59-.938,6.7,6.7,0,0,0-1.892-.612q-4.335-.91-4.335-3.684a3.339,3.339,0,0,1,1.342-2.7,5.414,5.414,0,0,1,3.51-1.084,5.827,5.827,0,0,1,3.7,1.089,3.433,3.433,0,0,1,1.387,2.83H24.084a1.57,1.57,0,0,0-.449-1.151,1.9,1.9,0,0,0-1.4-.455,1.943,1.943,0,0,0-1.269.371,1.17,1.17,0,0,0-.449.943,1,1,0,0,0,.511.87,5.257,5.257,0,0,0,1.724.573,14.08,14.08,0,0,1,2.044.545,3.358,3.358,0,0,1,2.572,3.268A3.17,3.17,0,0,1,25.937-.8,6.153,6.153,0,0,1,22.253.225,6.426,6.426,0,0,1,19.541-.32a4.551,4.551,0,0,1-1.859-1.494,3.471,3.471,0,0,1-.674-2.05h3.077a1.694,1.694,0,0,0,.64,1.325,2.539,2.539,0,0,0,1.595.46,2.35,2.35,0,0,0,1.409-.354A1.1,1.1,0,0,0,24.207-3.358ZM34.674-6.166a7.323,7.323,0,0,1,1.275-4.526,4.136,4.136,0,0,1,3.487-1.685,3.722,3.722,0,0,1,2.931,1.325v-6.2h3.257V0H42.693l-.157-1.292A3.819,3.819,0,0,1,39.413.225a4.125,4.125,0,0,1-3.442-1.69A7.559,7.559,0,0,1,34.674-6.166Zm3.246.231a4.823,4.823,0,0,0,.6,2.629,1.937,1.937,0,0,0,1.729.914,2.171,2.171,0,0,0,2.123-1.275V-8.484a2.14,2.14,0,0,0-2.1-1.275Q37.92-9.759,37.92-5.935ZM53.732.225a5.965,5.965,0,0,1-4.352-1.64A5.828,5.828,0,0,1,47.7-5.784V-6.1a7.341,7.341,0,0,1,.708-3.274,5.192,5.192,0,0,1,2-2.224,5.627,5.627,0,0,1,2.959-.781A5.043,5.043,0,0,1,57.3-10.8,6.389,6.389,0,0,1,58.73-6.345V-5.02H50.992a3.015,3.015,0,0,0,.949,1.909,2.869,2.869,0,0,0,2,.719,3.5,3.5,0,0,0,2.931-1.359l1.595,1.786A4.872,4.872,0,0,1,56.495-.354,6.485,6.485,0,0,1,53.732.225Zm-.371-9.984a2.028,2.028,0,0,0-1.567.654,3.388,3.388,0,0,0-.769,1.873H55.54v-.26a2.416,2.416,0,0,0-.584-1.675A2.092,2.092,0,0,0,53.362-9.759ZM71.768-3.347a1.006,1.006,0,0,0-.314-.943,3.882,3.882,0,0,0-1.628-.685A5.973,5.973,0,0,1,67-6.272a2.476,2.476,0,0,1-.651-2.342,4.106,4.106,0,0,1,1.662-2.7,5.623,5.623,0,0,1,3.5-1.067,4.558,4.558,0,0,1,3.262,1.1,2.816,2.816,0,0,1,.848,2.74l-.022.067H72.465a1.6,1.6,0,0,0-.208-1.2,1.266,1.266,0,0,0-1.106-.449,1.7,1.7,0,0,0-1.123.393,1.537,1.537,0,0,0-.562.966.969.969,0,0,0,.27.927,3.8,3.8,0,0,0,1.651.635,5.908,5.908,0,0,1,2.9,1.32,2.621,2.621,0,0,1,.64,2.4A3.952,3.952,0,0,1,73.178-.769,6.336,6.336,0,0,1,69.511.236a4.378,4.378,0,0,1-3.358-1.247A3.009,3.009,0,0,1,65.3-3.8l.022-.067h2.965a1.6,1.6,0,0,0,.331,1.415,1.829,1.829,0,0,0,1.32.438,2.014,2.014,0,0,0,1.235-.359A1.508,1.508,0,0,0,71.768-3.347ZM76.9-6.188A7.971,7.971,0,0,1,79.018-10.7a5.7,5.7,0,0,1,4.217-1.679,4.09,4.09,0,0,1,3.627,1.746,5.979,5.979,0,0,1,.764,4.442l-.034.236a8.01,8.01,0,0,1-2.128,4.515A5.705,5.705,0,0,1,81.247.236,4.1,4.1,0,0,1,77.619-1.5a5.948,5.948,0,0,1-.752-4.447Zm3.189.23a5.734,5.734,0,0,0,.056,2.7,1.414,1.414,0,0,0,1.494.964,2.047,2.047,0,0,0,1.752-1.015,6.637,6.637,0,0,0,.955-2.652l.034-.235a5.64,5.64,0,0,0-.073-2.669,1.408,1.408,0,0,0-1.477-.987,2.062,2.062,0,0,0-1.769,1.032,6.449,6.449,0,0,0-.938,2.624ZM89.209,0l1.965-9.849H89.524l.46-2.3h1.651L91.9-13.5a5.253,5.253,0,0,1,1.746-3.218,5.281,5.281,0,0,1,3.386-1.039,5.135,5.135,0,0,1,.775.062q.4.062.876.174l-.752,2.437q-.225-.045-.46-.079a3.847,3.847,0,0,0-.539-.034,1.625,1.625,0,0,0-1.146.449,2.237,2.237,0,0,0-.64,1.247l-.27,1.348h2.19l-.46,2.3H94.42L92.455,0Zm13.937-15.127-.6,2.976h1.92l-.46,2.3h-1.92l-1.235,6.188a1.4,1.4,0,0,0,.045,1.039.754.754,0,0,0,.651.275,4.945,4.945,0,0,0,.545-.028,4.351,4.351,0,0,0,.533-.1l-.2,2.37a8.4,8.4,0,0,1-1.089.253A7.206,7.206,0,0,1,100.2.236a2.648,2.648,0,0,1-2.246-.955,3.613,3.613,0,0,1-.337-2.931l1.235-6.2H97.239l.46-2.3h1.617l.6-2.976ZM114.86-4.762l.067.011,2.841-7.4H120.8L115.533,0h-2.7l-.618-6.94-.067-.011L108.75,0h-2.684l-.416-12.151h3.032L108.6-4.784l.067.011,3.481-7.378H114.3ZM126.494,0a6.772,6.772,0,0,1-.1-.7q-.034-.359-.034-.73a5.7,5.7,0,0,1-1.494,1.2,3.626,3.626,0,0,1-1.786.46,2.94,2.94,0,0,1-2.392-1.011,3,3,0,0,1-.505-2.65,4.177,4.177,0,0,1,1.808-2.824,7.191,7.191,0,0,1,3.942-.927h1.46l.191-.966a1.923,1.923,0,0,0-.112-1.387,1.183,1.183,0,0,0-1.078-.455,1.7,1.7,0,0,0-1.123.393,1.747,1.747,0,0,0-.6,1.067l-3.111-.011-.022-.067a4.02,4.02,0,0,1,1.8-2.712,6.393,6.393,0,0,1,3.74-1.061,4.093,4.093,0,0,1,3.038,1.123,3.285,3.285,0,0,1,.724,3.133L129.83-3.1a9.251,9.251,0,0,0-.208,1.64A7.76,7.76,0,0,0,129.729,0ZM124.45-2.19a2.512,2.512,0,0,0,1.174-.309,3.266,3.266,0,0,0,.983-.769l.416-2.055h-1.46a2.035,2.035,0,0,0-1.415.528,2.2,2.2,0,0,0-.719,1.258,1.192,1.192,0,0,0,.135,1A1.053,1.053,0,0,0,124.45-2.19Zm15.083-7.064-1.292-.034A1.986,1.986,0,0,0,137.18-9a2.429,2.429,0,0,0-.792.814L134.749,0h-3.223l2.426-12.151h3.01l-.18,1.561.056.034a4.12,4.12,0,0,1,1.2-1.342,2.584,2.584,0,0,1,1.5-.477,3.446,3.446,0,0,1,.494.039,2.62,2.62,0,0,1,.438.1Zm4.93,9.49a4.234,4.234,0,0,1-3.639-1.7A5.428,5.428,0,0,1,140-5.728l.067-.449a8.125,8.125,0,0,1,2.094-4.515,5.343,5.343,0,0,1,4.015-1.685,3.777,3.777,0,0,1,3.3,1.5,5.269,5.269,0,0,1,.674,3.992L149.876-5.1H143.16a3.23,3.23,0,0,0,.416,2.047,1.812,1.812,0,0,0,1.628.761,5.693,5.693,0,0,0,1.673-.225,8.88,8.88,0,0,0,1.583-.685l.55,2.026a6.775,6.775,0,0,1-1.971,1A7.965,7.965,0,0,1,144.463.236Zm1.314-10.085a1.674,1.674,0,0,0-1.331.7,4.667,4.667,0,0,0-.848,1.825l.022.056h3.437l.045-.292a2.805,2.805,0,0,0-.14-1.69A1.205,1.205,0,0,0,145.777-9.849Z" transform="translate(-1490 -9744)" fill="#12263f"/>
    <path id="Trazado_658902" data-name="Trazado 658902" d="M-1490-10606v41.969" transform="translate(0 884)" fill="none" stroke="#12263f" stroke-width="3"/>
    <path id="Trazado_659168" data-name="Trazado 659168" d="M7,0l7,12H0Z" transform="translate(-1500.696 -9683) rotate(-60)" fill="#12263f"/>
  </g>
</svg>
